<svg xmlns="http://www.w3.org/2000/svg" xmlns:xlink="http://www.w3.org/1999/xlink" width="500" zoomAndPan="magnify" viewBox="0 0 375 74.999997" height="100" preserveAspectRatio="xMidYMid meet" version="1.0"><defs><g/><clipPath id="8fd0c9b261"><path d="M 41.292969 1.214844 L 77 1.214844 L 77 73.730469 L 41.292969 73.730469 Z M 41.292969 1.214844 " clip-rule="nonzero"/></clipPath><clipPath id="5b2e7ac9de"><path d="M 108 1.214844 L 144 1.214844 L 144 73.730469 L 108 73.730469 Z M 108 1.214844 " clip-rule="nonzero"/></clipPath></defs><g fill="#ffffff" fill-opacity="1"><g transform="translate(150.994825, 43.889245)"><g><path d="M 30.902344 -1.019531 C 29.28125 -1.34375 28.308594 -1.714844 27.472656 -3.335938 C 26.777344 -4.910156 26.035156 -6.996094 25.203125 -9.265625 L 18.066406 -29 L 14.082031 -28.722656 L 6.53125 -8.988281 C 5.511719 -6.300781 4.355469 -3.707031 3.613281 -1.992188 L 0.324219 -1.113281 L 0.507812 0.183594 L 5.328125 0 L 5.46875 0 L 5.46875 -0.046875 L 10.101562 0.183594 L 10.285156 -1.066406 C 8.015625 -1.34375 6.207031 -1.761719 6.441406 -3.195312 C 6.949219 -4.679688 7.644531 -6.71875 8.433594 -8.757812 L 9.683594 -12.046875 C 10.238281 -12.046875 11.027344 -12.09375 12.230469 -12.09375 L 16.214844 -12.09375 C 17.605469 -12.09375 18.4375 -12.09375 19.042969 -12.046875 L 19.96875 -9.265625 C 20.988281 -6.253906 21.683594 -3.660156 22.144531 -1.992188 L 18.347656 -1.113281 L 18.53125 0.183594 L 23.953125 0 L 27.566406 0 L 30.761719 0.230469 Z M 16.308594 -14.128906 L 10.46875 -14.128906 L 14.59375 -24.972656 L 18.300781 -14.128906 Z M 16.308594 -14.128906 "/></g></g></g><g fill="#ffffff" fill-opacity="1"><g transform="translate(182.218778, 43.889245)"><g><path d="M 14.6875 -26.964844 L 20.015625 -26.824219 L 22.332031 -22.144531 L 23.953125 -22.609375 L 23.070312 -29.09375 C 21.867188 -28.910156 19.96875 -28.769531 18.113281 -28.769531 L 6.160156 -28.769531 C 4.308594 -28.769531 2.410156 -28.910156 1.160156 -29.09375 L 0.324219 -22.609375 L 1.945312 -22.144531 L 4.125 -26.824219 L 9.496094 -26.964844 C 9.542969 -26.546875 9.589844 -24.648438 9.589844 -22.980469 L 9.589844 -9.21875 C 9.589844 -6.765625 9.496094 -4.03125 9.40625 -1.992188 L 5.605469 -1.113281 L 5.792969 0.183594 L 11.210938 0 L 13.390625 0 L 18.300781 0.230469 L 18.4375 -1.019531 C 16.816406 -1.34375 14.824219 -1.621094 14.6875 -3.289062 C 14.640625 -4.910156 14.59375 -7.132812 14.59375 -9.21875 L 14.59375 -22.980469 C 14.59375 -24.648438 14.640625 -26.546875 14.6875 -26.964844 Z M 14.6875 -26.964844 "/></g></g></g><g fill="#ffffff" fill-opacity="1"><g transform="translate(206.493781, 43.889245)"><g><path d="M 22.5625 -6.996094 L 20.105469 -1.851562 L 10.5625 -1.621094 L 10.5625 -13.480469 C 13.992188 -13.390625 16.261719 -13.296875 17.464844 -13.25 L 18.066406 -10.703125 L 19.457031 -10.886719 L 19.273438 -14.871094 L 19.410156 -17.605469 L 17.976562 -17.789062 C 17.882812 -17.003906 17.699219 -15.382812 16.492188 -15.242188 C 15.335938 -15.148438 13.480469 -15.148438 10.5625 -15.058594 L 10.5625 -27.101562 C 14.316406 -27.101562 17.511719 -27.007812 19.273438 -26.917969 L 20.847656 -22.238281 L 22.46875 -22.699219 L 21.589844 -29.234375 C 20.382812 -29.046875 18.484375 -28.769531 16.632812 -28.769531 L 7.320312 -28.769531 L 1.808594 -29 L 1.621094 -27.75 C 3.242188 -27.425781 5.234375 -27.148438 5.421875 -25.527344 L 5.421875 -25.480469 C 5.511719 -23.8125 5.558594 -21.589844 5.558594 -19.503906 L 5.558594 -9.265625 C 5.558594 -6.578125 5.421875 -3.890625 5.28125 -1.945312 L 1.484375 -1.113281 L 1.667969 0.183594 L 7.089844 0 L 17.605469 0 C 19.550781 0.046875 20.664062 0.230469 22.421875 0.417969 L 24.367188 -6.441406 Z M 22.5625 -6.996094 "/></g></g></g><g fill="#ffffff" fill-opacity="1"><g transform="translate(232.065921, 43.889245)"><g><path d="M 28.492188 -18.855469 C 28.492188 -21.636719 28.585938 -24.648438 28.585938 -26.777344 L 32.476562 -27.660156 L 32.292969 -28.957031 L 28.214844 -28.769531 L 26.640625 -28.769531 L 22.699219 -29.09375 L 22.515625 -27.84375 C 24.136719 -27.519531 26.128906 -27.195312 26.316406 -25.527344 C 26.359375 -23.71875 26.453125 -20.941406 26.5 -17.835938 L 26.683594 -7.132812 C 24.507812 -9.21875 11.257812 -24.738281 8.199219 -28.769531 L 6.625 -28.769531 L 1.714844 -29 L 1.574219 -27.796875 C 3.148438 -27.472656 5.234375 -27.195312 5.328125 -25.574219 L 5.328125 -25.480469 C 5.375 -24.042969 5.421875 -21.867188 5.421875 -19.550781 L 5.421875 -9.960938 C 5.421875 -7.132812 5.328125 -4.125 5.328125 -1.992188 L 1.484375 -1.113281 L 1.667969 0.183594 L 5.46875 0 L 7.226562 0 L 11.164062 0.277344 L 11.351562 -0.925781 C 9.730469 -1.296875 7.691406 -1.574219 7.550781 -3.242188 C 7.457031 -5.140625 7.367188 -8.109375 7.320312 -10.933594 L 7.132812 -22.191406 C 9.589844 -20.058594 26.40625 0 26.40625 0 L 28.722656 0 C 28.722656 -0.601562 28.492188 -3.335938 28.492188 -8.617188 Z M 28.492188 -18.855469 "/></g></g></g><g fill="#ffffff" fill-opacity="1"><g transform="translate(265.28191, 43.889245)"><g><path d="M 22.5625 -6.996094 L 20.105469 -1.851562 L 10.5625 -1.621094 L 10.5625 -13.480469 C 13.992188 -13.390625 16.261719 -13.296875 17.464844 -13.25 L 18.066406 -10.703125 L 19.457031 -10.886719 L 19.273438 -14.871094 L 19.410156 -17.605469 L 17.976562 -17.789062 C 17.882812 -17.003906 17.699219 -15.382812 16.492188 -15.242188 C 15.335938 -15.148438 13.480469 -15.148438 10.5625 -15.058594 L 10.5625 -27.101562 C 14.316406 -27.101562 17.511719 -27.007812 19.273438 -26.917969 L 20.847656 -22.238281 L 22.46875 -22.699219 L 21.589844 -29.234375 C 20.382812 -29.046875 18.484375 -28.769531 16.632812 -28.769531 L 7.320312 -28.769531 L 1.808594 -29 L 1.621094 -27.75 C 3.242188 -27.425781 5.234375 -27.148438 5.421875 -25.527344 L 5.421875 -25.480469 C 5.511719 -23.8125 5.558594 -21.589844 5.558594 -19.503906 L 5.558594 -9.265625 C 5.558594 -6.578125 5.421875 -3.890625 5.28125 -1.945312 L 1.484375 -1.113281 L 1.667969 0.183594 L 7.089844 0 L 17.605469 0 C 19.550781 0.046875 20.664062 0.230469 22.421875 0.417969 L 24.367188 -6.441406 Z M 22.5625 -6.996094 "/></g></g></g><g fill="#ffffff" fill-opacity="1"><g transform="translate(290.854049, 43.889245)"><g><path d="M 30.902344 -1.019531 C 29.28125 -1.34375 28.308594 -1.714844 27.472656 -3.335938 C 26.777344 -4.910156 26.035156 -6.996094 25.203125 -9.265625 L 18.066406 -29 L 14.082031 -28.722656 L 6.53125 -8.988281 C 5.511719 -6.300781 4.355469 -3.707031 3.613281 -1.992188 L 0.324219 -1.113281 L 0.507812 0.183594 L 5.328125 0 L 5.46875 0 L 5.46875 -0.046875 L 10.101562 0.183594 L 10.285156 -1.066406 C 8.015625 -1.34375 6.207031 -1.761719 6.441406 -3.195312 C 6.949219 -4.679688 7.644531 -6.71875 8.433594 -8.757812 L 9.683594 -12.046875 C 10.238281 -12.046875 11.027344 -12.09375 12.230469 -12.09375 L 16.214844 -12.09375 C 17.605469 -12.09375 18.4375 -12.09375 19.042969 -12.046875 L 19.96875 -9.265625 C 20.988281 -6.253906 21.683594 -3.660156 22.144531 -1.992188 L 18.347656 -1.113281 L 18.53125 0.183594 L 23.953125 0 L 27.566406 0 L 30.761719 0.230469 Z M 16.308594 -14.128906 L 10.46875 -14.128906 L 14.59375 -24.972656 L 18.300781 -14.128906 Z M 16.308594 -14.128906 "/></g></g></g><g fill="#ffffff" fill-opacity="1"><g transform="translate(168.881997, 60.364862)"><g><path d="M 7.628906 -7.164062 L 7.582031 -7.441406 L 6.511719 -7.390625 L 6.464844 -7.390625 L 5.285156 -7.453125 L 5.238281 -7.191406 C 5.628906 -7.128906 6.285156 -7.082031 6.308594 -6.691406 C 6.320312 -6.261719 6.332031 -5.652344 6.332031 -5.058594 L 6.332031 -3.261719 C 6.332031 -1.296875 5.605469 -0.285156 4.167969 -0.285156 C 2.75 -0.285156 2.046875 -1.296875 2.046875 -3.261719 L 2.046875 -5.011719 C 2.046875 -5.773438 2.058594 -6.476562 2.082031 -6.976562 L 3.105469 -7.164062 L 3.058594 -7.441406 L 1.75 -7.390625 L 1.429688 -7.390625 L 0.273438 -7.453125 L 0.226562 -7.203125 C 0.617188 -7.128906 1.070312 -7.09375 1.105469 -6.691406 C 1.117188 -6.261719 1.128906 -5.628906 1.128906 -5.011719 L 1.128906 -3.25 C 1.128906 -1 2.144531 0.167969 4.058594 0.167969 C 5.890625 0.167969 6.703125 -1 6.703125 -3.261719 L 6.703125 -5.058594 C 6.703125 -5.726562 6.726562 -6.476562 6.75 -7 Z M 7.628906 -7.164062 "/></g></g></g><g fill="#ffffff" fill-opacity="1"><g transform="translate(176.734435, 60.364862)"><g><path d="M 7.320312 -4.84375 C 7.320312 -5.605469 7.332031 -6.390625 7.34375 -6.988281 L 8.332031 -7.164062 L 8.285156 -7.441406 L 7.046875 -7.390625 L 5.929688 -7.453125 L 5.890625 -7.203125 C 6.285156 -7.128906 6.808594 -7.082031 6.855469 -6.691406 C 6.867188 -6.203125 6.890625 -5.402344 6.902344 -4.5 L 6.941406 -1.332031 C 6.441406 -1.84375 3.238281 -5.75 2 -7.390625 L 1.691406 -7.390625 L 0.511719 -7.453125 L 0.476562 -7.191406 C 0.855469 -7.117188 1.417969 -7.082031 1.441406 -6.703125 L 1.441406 -6.675781 C 1.453125 -6.296875 1.464844 -5.703125 1.464844 -5.070312 L 1.464844 -2.558594 C 1.464844 -1.808594 1.453125 -1.011719 1.441406 -0.40625 L 0.453125 -0.226562 L 0.5 0.046875 L 1.65625 0 L 1.714844 0 L 2.855469 0.0585938 L 2.890625 -0.203125 C 2.5 -0.261719 1.953125 -0.308594 1.929688 -0.703125 C 1.90625 -1.238281 1.878906 -2.09375 1.867188 -2.890625 L 1.832031 -6.152344 C 2.226562 -5.808594 6.902344 0 6.902344 0 L 7.378906 0 C 7.367188 -0.25 7.320312 -1.023438 7.320312 -2.226562 Z M 7.320312 -4.84375 "/></g></g></g><g fill="#ffffff" fill-opacity="1"><g transform="translate(185.288838, 60.364862)"><g><path d="M 2.429688 -0.714844 C 2.417969 -1.117188 2.390625 -1.738281 2.390625 -2.320312 L 2.390625 -5.046875 C 2.390625 -5.761719 2.429688 -6.511719 2.441406 -6.988281 L 3.417969 -7.164062 L 3.378906 -7.441406 L 2.105469 -7.390625 L 1.714844 -7.390625 L 0.523438 -7.453125 L 0.488281 -7.191406 C 0.878906 -7.117188 1.417969 -7.082031 1.453125 -6.675781 C 1.464844 -6.261719 1.488281 -5.640625 1.488281 -5.046875 L 1.488281 -2.320312 C 1.488281 -1.570312 1.464844 -0.832031 1.441406 -0.40625 L 0.453125 -0.226562 L 0.5 0.046875 L 1.785156 0 L 2.167969 0 L 3.355469 0.0585938 L 3.390625 -0.203125 C 3 -0.273438 2.453125 -0.308594 2.429688 -0.714844 Z M 2.429688 -0.714844 "/></g></g></g><g fill="#ffffff" fill-opacity="1"><g transform="translate(189.167471, 60.364862)"><g><path d="M 7.773438 -7.164062 L 7.726562 -7.441406 L 6.785156 -7.390625 L 6.738281 -7.390625 L 5.296875 -7.464844 L 5.25 -7.203125 C 5.640625 -7.128906 6.5 -7.09375 6.390625 -6.691406 C 6.261719 -6.308594 6.058594 -5.773438 5.84375 -5.226562 L 4.105469 -0.738281 L 2.476562 -5.058594 C 2.226562 -5.738281 2 -6.476562 1.832031 -6.988281 L 2.988281 -7.164062 L 2.941406 -7.441406 L 1.488281 -7.390625 L 1.046875 -7.390625 L 0.132812 -7.441406 L 0.09375 -7.191406 C 0.488281 -7.117188 0.726562 -7.035156 0.894531 -6.640625 C 1.058594 -6.25 1.273438 -5.703125 1.523438 -5.058594 L 3.488281 0.0351562 L 4.191406 -0.0351562 L 6.238281 -5.152344 C 6.476562 -5.773438 6.785156 -6.476562 7.023438 -6.988281 Z M 7.773438 -7.164062 "/></g></g></g><g fill="#ffffff" fill-opacity="1"><g transform="translate(197.031812, 60.364862)"><g><path d="M 5.714844 -1.617188 L 5.128906 -0.394531 L 2.40625 -0.355469 L 2.40625 -3.488281 C 3.429688 -3.476562 4.058594 -3.464844 4.355469 -3.453125 L 4.476562 -2.796875 L 4.773438 -2.84375 L 4.738281 -3.796875 L 4.761719 -4.5 L 4.464844 -4.546875 C 4.441406 -4.296875 4.417969 -3.902344 4.140625 -3.867188 C 3.84375 -3.855469 3.308594 -3.84375 2.40625 -3.84375 L 2.40625 -7.035156 C 3.523438 -7.035156 4.464844 -7 4.902344 -6.976562 L 5.25 -5.914062 L 5.558594 -6.011719 L 5.355469 -7.488281 C 5.105469 -7.453125 4.703125 -7.402344 4.296875 -7.390625 L 1.878906 -7.390625 L 0.523438 -7.441406 L 0.488281 -7.191406 C 0.878906 -7.117188 1.417969 -7.082031 1.453125 -6.691406 L 1.453125 -6.675781 C 1.476562 -6.25 1.488281 -5.640625 1.488281 -5.046875 L 1.488281 -2.332031 C 1.488281 -1.617188 1.464844 -0.929688 1.429688 -0.40625 L 0.453125 -0.226562 L 0.5 0.046875 L 1.761719 0 L 4.546875 0 C 4.964844 0.0117188 5.214844 0.046875 5.582031 0.09375 L 6.046875 -1.511719 Z M 5.714844 -1.617188 "/></g></g></g><g fill="#ffffff" fill-opacity="1"><g transform="translate(203.420848, 60.364862)"><g><path d="M 6.378906 -0.84375 C 6.128906 -1.261719 5.941406 -2 5.652344 -2.691406 C 5.296875 -3.523438 4.703125 -4.082031 3.703125 -4.441406 C 4.738281 -4.546875 5.511719 -5.117188 5.511719 -5.964844 C 5.511719 -6.570312 5.238281 -6.964844 4.546875 -7.214844 C 3.726562 -7.546875 2.917969 -7.390625 2.046875 -7.390625 L 1.714844 -7.390625 L 0.511719 -7.441406 L 0.476562 -7.191406 C 0.867188 -7.117188 1.40625 -7.082031 1.441406 -6.675781 C 1.464844 -6.261719 1.476562 -5.640625 1.476562 -5.046875 L 1.476562 -2.75 C 1.476562 -1.867188 1.453125 -0.917969 1.429688 -0.394531 L 0.453125 -0.226562 L 0.5 0.046875 L 1.761719 0 L 2.15625 0 L 3.34375 0.046875 L 3.378906 -0.203125 C 2.988281 -0.273438 2.441406 -0.320312 2.417969 -0.726562 C 2.40625 -1.144531 2.378906 -1.738281 2.378906 -2.320312 L 2.378906 -7.046875 C 2.773438 -7.046875 2.976562 -7.070312 3.238281 -7.070312 C 4.023438 -7.070312 4.652344 -6.808594 4.652344 -5.902344 C 4.652344 -4.902344 3.558594 -4.605469 3.035156 -4.605469 L 2.785156 -4.59375 L 2.878906 -4.285156 C 3.84375 -4.191406 4.367188 -3.390625 4.75 -2.464844 C 5.164062 -1.367188 5.523438 -0.367188 6.214844 -0.046875 C 6.414062 0.0351562 6.675781 0.0820312 6.890625 0.0703125 C 7.058594 0.0585938 7.214844 0.0117188 7.285156 -0.0117188 L 7.308594 -0.132812 C 6.953125 -0.226562 6.691406 -0.34375 6.378906 -0.84375 Z M 6.378906 -0.84375 "/></g></g></g><g fill="#ffffff" fill-opacity="1"><g transform="translate(210.821184, 60.364862)"><g><path d="M 0.441406 -1.644531 L 0.558594 -0.320312 C 1.046875 -0.0351562 1.703125 0.144531 2.367188 0.144531 C 3.640625 0.144531 4.558594 -0.703125 4.558594 -1.953125 C 4.558594 -3.105469 3.738281 -3.726562 2.929688 -4.25 C 2.214844 -4.726562 1.5 -5.320312 1.5 -6.046875 C 1.5 -6.628906 1.894531 -7.164062 2.617188 -7.175781 C 3.082031 -7.191406 3.355469 -7.128906 3.558594 -7.035156 L 3.941406 -5.929688 L 4.25 -6.011719 L 4.058594 -7.390625 C 3.667969 -7.476562 3.203125 -7.558594 2.738281 -7.558594 C 1.453125 -7.558594 0.703125 -6.796875 0.703125 -5.773438 C 0.703125 -4.558594 1.523438 -4.070312 2.320312 -3.476562 C 3.058594 -2.917969 3.726562 -2.390625 3.726562 -1.59375 C 3.726562 -0.941406 3.214844 -0.238281 2.34375 -0.238281 C 1.796875 -0.238281 1.355469 -0.367188 1.09375 -0.570312 L 0.773438 -1.808594 Z M 0.441406 -1.644531 "/></g></g></g><g fill="#ffffff" fill-opacity="1"><g transform="translate(215.794398, 60.364862)"><g><path d="M 2.429688 -0.714844 C 2.417969 -1.117188 2.390625 -1.738281 2.390625 -2.320312 L 2.390625 -5.046875 C 2.390625 -5.761719 2.429688 -6.511719 2.441406 -6.988281 L 3.417969 -7.164062 L 3.378906 -7.441406 L 2.105469 -7.390625 L 1.714844 -7.390625 L 0.523438 -7.453125 L 0.488281 -7.191406 C 0.878906 -7.117188 1.417969 -7.082031 1.453125 -6.675781 C 1.464844 -6.261719 1.488281 -5.640625 1.488281 -5.046875 L 1.488281 -2.320312 C 1.488281 -1.570312 1.464844 -0.832031 1.441406 -0.40625 L 0.453125 -0.226562 L 0.5 0.046875 L 1.785156 0 L 2.167969 0 L 3.355469 0.0585938 L 3.390625 -0.203125 C 3 -0.273438 2.453125 -0.308594 2.429688 -0.714844 Z M 2.429688 -0.714844 "/></g></g></g><g fill="#ffffff" fill-opacity="1"><g transform="translate(219.673031, 60.364862)"><g><path d="M 3.878906 -7.441406 C 3.285156 -7.441406 2.390625 -7.390625 1.929688 -7.390625 L 0.511719 -7.441406 L 0.476562 -7.191406 C 0.867188 -7.117188 1.40625 -7.082031 1.441406 -6.675781 C 1.464844 -6.261719 1.476562 -5.628906 1.476562 -5.046875 L 1.476562 -2.320312 C 1.476562 -1.65625 1.453125 -0.929688 1.429688 -0.40625 L 0.453125 -0.226562 L 0.5 0.046875 L 1.761719 0 L 2.035156 0 C 2.703125 0 3.417969 0.0585938 3.84375 0.0585938 C 6.214844 0.0585938 7.675781 -1.40625 7.675781 -3.761719 C 7.675781 -6.179688 6.035156 -7.441406 3.878906 -7.441406 Z M 3.785156 -0.320312 C 3.25 -0.320312 3.140625 -0.332031 2.441406 -0.332031 C 2.40625 -0.75 2.390625 -1.570312 2.390625 -2.320312 L 2.390625 -7.046875 C 2.546875 -7.046875 3.105469 -7.070312 3.761719 -7.070312 C 6.035156 -7.070312 6.703125 -5.25 6.703125 -3.640625 C 6.703125 -1.367188 5.25 -0.320312 3.785156 -0.320312 Z M 3.785156 -0.320312 "/></g></g></g><g fill="#ffffff" fill-opacity="1"><g transform="translate(227.692041, 60.364862)"><g><path d="M 7.628906 -0.203125 C 7.238281 -0.273438 6.988281 -0.355469 6.808594 -0.726562 C 6.628906 -1.15625 6.429688 -1.703125 6.203125 -2.332031 L 4.34375 -7.453125 L 3.617188 -7.390625 L 1.617188 -2.25 C 1.332031 -1.511719 1.035156 -0.820312 0.855469 -0.40625 L 0.09375 -0.226562 L 0.144531 0.046875 L 1.179688 0 L 2.40625 0.0351562 L 2.453125 -0.214844 C 1.796875 -0.273438 1.378906 -0.34375 1.464844 -0.691406 C 1.59375 -1.070312 1.785156 -1.617188 2.011719 -2.167969 L 2.390625 -3.15625 L 4.941406 -3.15625 L 5.226562 -2.332031 C 5.5 -1.535156 5.714844 -0.832031 5.832031 -0.40625 L 4.867188 -0.226562 L 4.917969 0.046875 L 6.179688 0 L 6.914062 0 L 7.59375 0.046875 Z M 4.203125 -3.570312 L 2.546875 -3.570312 L 3.726562 -6.628906 L 4.796875 -3.570312 Z M 4.203125 -3.570312 "/></g></g></g><g fill="#ffffff" fill-opacity="1"><g transform="translate(235.413607, 60.364862)"><g><path d="M 3.878906 -7.441406 C 3.285156 -7.441406 2.390625 -7.390625 1.929688 -7.390625 L 0.511719 -7.441406 L 0.476562 -7.191406 C 0.867188 -7.117188 1.40625 -7.082031 1.441406 -6.675781 C 1.464844 -6.261719 1.476562 -5.628906 1.476562 -5.046875 L 1.476562 -2.320312 C 1.476562 -1.65625 1.453125 -0.929688 1.429688 -0.40625 L 0.453125 -0.226562 L 0.5 0.046875 L 1.761719 0 L 2.035156 0 C 2.703125 0 3.417969 0.0585938 3.84375 0.0585938 C 6.214844 0.0585938 7.675781 -1.40625 7.675781 -3.761719 C 7.675781 -6.179688 6.035156 -7.441406 3.878906 -7.441406 Z M 3.785156 -0.320312 C 3.25 -0.320312 3.140625 -0.332031 2.441406 -0.332031 C 2.40625 -0.75 2.390625 -1.570312 2.390625 -2.320312 L 2.390625 -7.046875 C 2.546875 -7.046875 3.105469 -7.070312 3.761719 -7.070312 C 6.035156 -7.070312 6.703125 -5.25 6.703125 -3.640625 C 6.703125 -1.367188 5.25 -0.320312 3.785156 -0.320312 Z M 3.785156 -0.320312 "/></g></g></g><g fill="#ffffff" fill-opacity="1"><g transform="translate(243.432617, 60.364862)"><g/></g></g><g fill="#ffffff" fill-opacity="1"><g transform="translate(246.299948, 60.364862)"><g><path d="M 7.320312 -4.84375 C 7.320312 -5.605469 7.332031 -6.390625 7.34375 -6.988281 L 8.332031 -7.164062 L 8.285156 -7.441406 L 7.046875 -7.390625 L 5.929688 -7.453125 L 5.890625 -7.203125 C 6.285156 -7.128906 6.808594 -7.082031 6.855469 -6.691406 C 6.867188 -6.203125 6.890625 -5.402344 6.902344 -4.5 L 6.941406 -1.332031 C 6.441406 -1.84375 3.238281 -5.75 2 -7.390625 L 1.691406 -7.390625 L 0.511719 -7.453125 L 0.476562 -7.191406 C 0.855469 -7.117188 1.417969 -7.082031 1.441406 -6.703125 L 1.441406 -6.675781 C 1.453125 -6.296875 1.464844 -5.703125 1.464844 -5.070312 L 1.464844 -2.558594 C 1.464844 -1.808594 1.453125 -1.011719 1.441406 -0.40625 L 0.453125 -0.226562 L 0.5 0.046875 L 1.65625 0 L 1.714844 0 L 2.855469 0.0585938 L 2.890625 -0.203125 C 2.5 -0.261719 1.953125 -0.308594 1.929688 -0.703125 C 1.90625 -1.238281 1.878906 -2.09375 1.867188 -2.890625 L 1.832031 -6.152344 C 2.226562 -5.808594 6.902344 0 6.902344 0 L 7.378906 0 C 7.367188 -0.25 7.320312 -1.023438 7.320312 -2.226562 Z M 7.320312 -4.84375 "/></g></g></g><g fill="#ffffff" fill-opacity="1"><g transform="translate(254.854351, 60.364862)"><g><path d="M 7.628906 -0.203125 C 7.238281 -0.273438 6.988281 -0.355469 6.808594 -0.726562 C 6.628906 -1.15625 6.429688 -1.703125 6.203125 -2.332031 L 4.34375 -7.453125 L 3.617188 -7.390625 L 1.617188 -2.25 C 1.332031 -1.511719 1.035156 -0.820312 0.855469 -0.40625 L 0.09375 -0.226562 L 0.144531 0.046875 L 1.179688 0 L 2.40625 0.0351562 L 2.453125 -0.214844 C 1.796875 -0.273438 1.378906 -0.34375 1.464844 -0.691406 C 1.59375 -1.070312 1.785156 -1.617188 2.011719 -2.167969 L 2.390625 -3.15625 L 4.941406 -3.15625 L 5.226562 -2.332031 C 5.5 -1.535156 5.714844 -0.832031 5.832031 -0.40625 L 4.867188 -0.226562 L 4.917969 0.046875 L 6.179688 0 L 6.914062 0 L 7.59375 0.046875 Z M 4.203125 -3.570312 L 2.546875 -3.570312 L 3.726562 -6.628906 L 4.796875 -3.570312 Z M 4.203125 -3.570312 "/></g></g></g><g fill="#ffffff" fill-opacity="1"><g transform="translate(262.575917, 60.364862)"><g><path d="M 5.476562 -0.332031 C 5.214844 -0.273438 4.84375 -0.214844 4.34375 -0.214844 C 2.429688 -0.214844 1.367188 -1.785156 1.367188 -3.714844 C 1.367188 -6.203125 3.09375 -7.191406 4.464844 -7.191406 C 5.058594 -7.191406 5.464844 -7.046875 5.679688 -6.914062 L 6.179688 -5.679688 L 6.488281 -5.773438 L 6.179688 -7.453125 C 5.664062 -7.464844 4.988281 -7.546875 4.378906 -7.546875 C 2.25 -7.546875 0.367188 -6.320312 0.367188 -3.726562 C 0.367188 -1.355469 1.953125 0.15625 4.238281 0.15625 C 4.5 0.15625 4.738281 0.132812 4.929688 0.09375 C 4.941406 0.09375 4.964844 0.09375 4.976562 0.0820312 L 6.023438 -0.0703125 L 6.476562 -1.394531 L 6.140625 -1.5 Z M 5.476562 -0.332031 "/></g></g></g><g fill="#ffffff" fill-opacity="1"><g transform="translate(269.690703, 60.364862)"><g><path d="M 2.429688 -0.714844 C 2.417969 -1.117188 2.390625 -1.738281 2.390625 -2.320312 L 2.390625 -5.046875 C 2.390625 -5.761719 2.429688 -6.511719 2.441406 -6.988281 L 3.417969 -7.164062 L 3.378906 -7.441406 L 2.105469 -7.390625 L 1.714844 -7.390625 L 0.523438 -7.453125 L 0.488281 -7.191406 C 0.878906 -7.117188 1.417969 -7.082031 1.453125 -6.675781 C 1.464844 -6.261719 1.488281 -5.640625 1.488281 -5.046875 L 1.488281 -2.320312 C 1.488281 -1.570312 1.464844 -0.832031 1.441406 -0.40625 L 0.453125 -0.226562 L 0.5 0.046875 L 1.785156 0 L 2.167969 0 L 3.355469 0.0585938 L 3.390625 -0.203125 C 3 -0.273438 2.453125 -0.308594 2.429688 -0.714844 Z M 2.429688 -0.714844 "/></g></g></g><g fill="#ffffff" fill-opacity="1"><g transform="translate(273.569336, 60.364862)"><g><path d="M 4.355469 0.167969 C 6.453125 0.167969 8.355469 -1.058594 8.355469 -3.679688 C 8.355469 -6.035156 6.652344 -7.558594 4.378906 -7.558594 C 2.273438 -7.558594 0.367188 -6.320312 0.367188 -3.726562 C 0.367188 -1.355469 2.082031 0.167969 4.355469 0.167969 Z M 1.367188 -3.679688 C 1.320312 -6.179688 3.082031 -7.164062 4.378906 -7.191406 C 6.164062 -7.214844 7.332031 -5.582031 7.367188 -3.714844 C 7.402344 -1.226562 5.640625 -0.214844 4.34375 -0.203125 C 2.558594 -0.179688 1.394531 -1.820312 1.367188 -3.679688 Z M 1.367188 -3.679688 "/></g></g></g><g fill="#ffffff" fill-opacity="1"><g transform="translate(282.266514, 60.364862)"><g><path d="M 7.320312 -4.84375 C 7.320312 -5.605469 7.332031 -6.390625 7.34375 -6.988281 L 8.332031 -7.164062 L 8.285156 -7.441406 L 7.046875 -7.390625 L 5.929688 -7.453125 L 5.890625 -7.203125 C 6.285156 -7.128906 6.808594 -7.082031 6.855469 -6.691406 C 6.867188 -6.203125 6.890625 -5.402344 6.902344 -4.5 L 6.941406 -1.332031 C 6.441406 -1.84375 3.238281 -5.75 2 -7.390625 L 1.691406 -7.390625 L 0.511719 -7.453125 L 0.476562 -7.191406 C 0.855469 -7.117188 1.417969 -7.082031 1.441406 -6.703125 L 1.441406 -6.675781 C 1.453125 -6.296875 1.464844 -5.703125 1.464844 -5.070312 L 1.464844 -2.558594 C 1.464844 -1.808594 1.453125 -1.011719 1.441406 -0.40625 L 0.453125 -0.226562 L 0.5 0.046875 L 1.65625 0 L 1.714844 0 L 2.855469 0.0585938 L 2.890625 -0.203125 C 2.5 -0.261719 1.953125 -0.308594 1.929688 -0.703125 C 1.90625 -1.238281 1.878906 -2.09375 1.867188 -2.890625 L 1.832031 -6.152344 C 2.226562 -5.808594 6.902344 0 6.902344 0 L 7.378906 0 C 7.367188 -0.25 7.320312 -1.023438 7.320312 -2.226562 Z M 7.320312 -4.84375 "/></g></g></g><g fill="#ffffff" fill-opacity="1"><g transform="translate(290.820917, 60.364862)"><g><path d="M 7.628906 -0.203125 C 7.238281 -0.273438 6.988281 -0.355469 6.808594 -0.726562 C 6.628906 -1.15625 6.429688 -1.703125 6.203125 -2.332031 L 4.34375 -7.453125 L 3.617188 -7.390625 L 1.617188 -2.25 C 1.332031 -1.511719 1.035156 -0.820312 0.855469 -0.40625 L 0.09375 -0.226562 L 0.144531 0.046875 L 1.179688 0 L 2.40625 0.0351562 L 2.453125 -0.214844 C 1.796875 -0.273438 1.378906 -0.34375 1.464844 -0.691406 C 1.59375 -1.070312 1.785156 -1.617188 2.011719 -2.167969 L 2.390625 -3.15625 L 4.941406 -3.15625 L 5.226562 -2.332031 C 5.5 -1.535156 5.714844 -0.832031 5.832031 -0.40625 L 4.867188 -0.226562 L 4.917969 0.046875 L 6.179688 0 L 6.914062 0 L 7.59375 0.046875 Z M 4.203125 -3.570312 L 2.546875 -3.570312 L 3.726562 -6.628906 L 4.796875 -3.570312 Z M 4.203125 -3.570312 "/></g></g></g><g fill="#ffffff" fill-opacity="1"><g transform="translate(298.542483, 60.364862)"><g><path d="M 5.203125 -1.628906 L 4.582031 -0.417969 C 4.167969 -0.40625 3.441406 -0.367188 2.417969 -0.355469 C 2.390625 -0.761719 2.390625 -1.570312 2.390625 -2.320312 L 2.390625 -4.640625 C 2.390625 -5.464844 2.417969 -6.414062 2.441406 -6.988281 L 3.417969 -7.164062 L 3.367188 -7.441406 L 2.105469 -7.390625 L 1.714844 -7.390625 L 0.523438 -7.441406 L 0.488281 -7.191406 C 0.878906 -7.117188 1.40625 -7.082031 1.453125 -6.675781 C 1.476562 -6.25 1.488281 -5.640625 1.488281 -5.046875 L 1.488281 -2.320312 C 1.488281 -1.617188 1.453125 -0.867188 1.429688 -0.40625 L 0.453125 -0.226562 L 0.5 0.046875 L 1.761719 0 L 3.976562 0 C 4.417969 0.0117188 4.691406 0.0585938 5.023438 0.132812 L 5.546875 -1.523438 Z M 5.203125 -1.628906 "/></g></g></g><g clip-path="url(#8fd0c9b261)"><path fill="#f8b30d" d="M 76.257812 73.257812 C 74.515625 72.828125 72.851562 72.230469 71.273438 71.511719 C 71.25 71.472656 71.230469 71.429688 71.191406 71.390625 L 71.167969 71.367188 C 71.085938 68.535156 68.890625 65.578125 66.902344 63.726562 C 66.632812 63.480469 66.058594 63.625 66.101562 64.058594 C 66.386719 66.355469 67.3125 68.597656 68.871094 70.300781 C 66.203125 68.800781 63.800781 66.910156 61.605469 64.714844 C 61.648438 64.652344 61.667969 64.570312 61.667969 64.488281 C 61.6875 62.578125 61.421875 60.730469 60.765625 58.921875 C 60.292969 57.628906 59.675781 55.921875 58.40625 55.246094 C 58.117188 55.101562 57.769531 55.285156 57.769531 55.613281 C 57.726562 57.851562 58.199219 60.09375 59.226562 62.0625 C 58.855469 61.632812 58.507812 61.179688 58.160156 60.730469 C 55.941406 57.8125 53.953125 54.628906 52.332031 51.300781 C 52.351562 51.261719 52.371094 51.199219 52.351562 51.136719 C 52.332031 51.074219 52.332031 51.011719 52.308594 50.953125 C 52.371094 50.929688 52.453125 50.890625 52.496094 50.808594 C 54.546875 47.769531 54.21875 43.25 53.296875 39.878906 C 53.191406 39.488281 52.679688 39.46875 52.472656 39.777344 C 50.585938 42.53125 50.566406 45.695312 51.179688 48.773438 C 50.09375 46.207031 49.253906 43.535156 48.71875 40.804688 C 48.492188 39.65625 48.328125 38.503906 48.246094 37.375 C 48.308594 37.375 48.390625 37.355469 48.453125 37.3125 C 51.46875 35.484375 53.152344 31.417969 53.625 28.070312 C 53.683594 27.636719 53.214844 27.269531 52.84375 27.617188 C 50.75 29.628906 49.109375 32.035156 48.144531 34.746094 C 48.207031 30.453125 49.210938 26.324219 50.894531 22.402344 C 50.957031 22.460938 51.058594 22.503906 51.160156 22.503906 C 54.691406 22.339844 58.035156 19.238281 59.820312 16.402344 C 60.027344 16.074219 59.675781 15.601562 59.308594 15.726562 C 56.742188 16.585938 54.382812 17.820312 52.289062 19.503906 C 54.21875 15.808594 56.679688 12.335938 59.429688 9.152344 L 59.453125 9.152344 C 61.195312 8.289062 63.226562 7.570312 64.644531 6.195312 C 65.855469 5.003906 66.511719 3.378906 67.148438 1.839844 C 67.351562 1.347656 66.738281 1.078125 66.367188 1.304688 C 66.324219 1.285156 66.304688 1.285156 66.242188 1.285156 C 64.664062 1.46875 63.269531 2.085938 62.121094 3.195312 C 60.867188 4.425781 60.273438 6.089844 59.347656 7.550781 C 57.234375 9.828125 55.304688 12.355469 53.625 15.046875 C 54.117188 11.246094 54.753906 7.179688 53.765625 3.441406 C 53.644531 2.988281 53.089844 2.988281 52.863281 3.316406 C 50.113281 7.179688 49.804688 12.683594 52.699219 16.566406 C 50.875 19.730469 49.4375 23.121094 48.511719 26.570312 C 48.429688 25.089844 48.308594 23.632812 48.144531 22.175781 C 48.042969 21.210938 48.246094 19.277344 47.40625 18.601562 C 47.242188 18.457031 47.015625 18.414062 46.832031 18.519531 C 43.648438 20.449219 45.023438 27.800781 47.773438 29.527344 C 47.796875 29.546875 47.816406 29.546875 47.855469 29.546875 C 47.386719 32.21875 47.222656 34.910156 47.445312 37.621094 L 47.445312 37.640625 C 47.445312 37.683594 47.445312 37.722656 47.46875 37.765625 C 47.550781 38.730469 47.671875 39.675781 47.855469 40.640625 C 47.980469 41.316406 48.144531 41.976562 48.308594 42.632812 C 47.570312 41.378906 46.644531 40.125 45.785156 39.039062 C 44.777344 37.765625 43.589844 36.757812 41.988281 36.328125 C 41.617188 36.222656 41.332031 36.554688 41.394531 36.921875 C 42.171875 40.621094 44.964844 43.84375 48.65625 44.851562 C 48.761719 44.871094 48.84375 44.851562 48.902344 44.808594 C 50.03125 48.488281 51.675781 52.0625 53.644531 55.386719 C 52.84375 54.730469 52.003906 54.136719 51.097656 53.644531 C 49.886719 52.964844 48.183594 51.917969 46.769531 52.367188 C 46.523438 52.453125 46.339844 52.71875 46.421875 52.964844 C 47.632812 56.703125 51.449219 59.105469 55.304688 58.058594 L 55.328125 58.058594 C 56.167969 59.332031 57.070312 60.566406 57.996094 61.734375 C 59.453125 63.605469 61.09375 65.414062 62.898438 67.035156 C 60.640625 65.886719 57.808594 65.617188 55.449219 65.863281 C 55.058594 65.90625 54.8125 66.355469 55.121094 66.664062 C 57.6875 69.210938 61.585938 70.238281 65.011719 68.902344 C 65.054688 68.882812 65.074219 68.863281 65.09375 68.84375 C 68.359375 71.308594 72.070312 73.113281 76.175781 73.691406 C 76.421875 73.773438 76.566406 73.339844 76.257812 73.257812 Z M 62.632812 4.097656 C 62.570312 4.222656 62.53125 4.324219 62.46875 4.449219 C 62.324219 4.570312 62.179688 4.695312 62.039062 4.839844 C 62.222656 4.570312 62.425781 4.324219 62.632812 4.097656 Z M 62.632812 4.097656 " fill-opacity="1" fill-rule="nonzero"/></g><g clip-path="url(#5b2e7ac9de)"><path fill="#f8b30d" d="M 109.195312 73.730469 C 113.300781 73.15625 117.011719 71.347656 120.277344 68.882812 C 120.296875 68.902344 120.335938 68.925781 120.359375 68.945312 C 123.785156 70.28125 127.683594 69.253906 130.25 66.707031 C 130.558594 66.398438 130.3125 65.945312 129.921875 65.90625 C 127.582031 65.679688 124.730469 65.945312 122.472656 67.074219 C 124.277344 65.453125 125.917969 63.667969 127.375 61.777344 C 128.300781 60.585938 129.183594 59.351562 130.042969 58.101562 L 130.066406 58.101562 C 133.921875 59.125 137.738281 56.746094 138.949219 53.007812 C 139.03125 52.738281 138.847656 52.492188 138.601562 52.410156 C 137.1875 51.9375 135.484375 52.984375 134.273438 53.683594 C 133.367188 54.195312 132.527344 54.773438 131.726562 55.429688 C 133.695312 52.082031 135.339844 48.527344 136.46875 44.851562 C 136.527344 44.890625 136.609375 44.914062 136.714844 44.890625 C 140.40625 43.886719 143.199219 40.660156 143.976562 36.964844 C 144.058594 36.613281 143.753906 36.285156 143.382812 36.367188 C 141.78125 36.777344 140.613281 37.785156 139.585938 39.078125 C 138.726562 40.167969 137.800781 41.421875 137.0625 42.675781 C 137.226562 42.015625 137.371094 41.339844 137.515625 40.679688 C 137.699219 39.714844 137.820312 38.769531 137.902344 37.804688 C 137.925781 37.765625 137.925781 37.722656 137.925781 37.683594 L 137.925781 37.660156 C 138.148438 34.972656 137.984375 32.261719 137.515625 29.589844 C 137.535156 29.589844 137.554688 29.570312 137.597656 29.570312 C 140.347656 27.84375 141.722656 20.488281 138.539062 18.558594 C 138.355469 18.4375 138.128906 18.496094 137.964844 18.640625 C 137.125 19.339844 137.328125 21.25 137.226562 22.214844 C 137.0625 23.675781 136.941406 25.152344 136.855469 26.609375 C 135.933594 23.140625 134.476562 19.769531 132.671875 16.609375 C 135.566406 12.726562 135.257812 7.222656 132.507812 3.339844 C 132.28125 3.011719 131.707031 3.011719 131.605469 3.460938 C 130.617188 7.199219 131.253906 11.265625 131.746094 15.066406 C 130.066406 12.375 128.136719 9.851562 126 7.550781 C 125.097656 6.089844 124.503906 4.425781 123.230469 3.195312 C 122.082031 2.085938 120.6875 1.46875 119.105469 1.285156 C 119.066406 1.285156 119.023438 1.285156 118.984375 1.304688 C 118.613281 1.078125 118.019531 1.347656 118.203125 1.839844 C 118.839844 3.378906 119.496094 5.003906 120.707031 6.195312 C 122.125 7.570312 124.15625 8.289062 125.898438 9.152344 L 125.917969 9.152344 C 128.667969 12.335938 131.132812 15.808594 133.0625 19.503906 C 130.96875 17.820312 128.609375 16.585938 126.042969 15.726562 C 125.652344 15.601562 125.324219 16.074219 125.53125 16.402344 C 127.292969 19.214844 130.660156 22.339844 134.191406 22.503906 C 134.292969 22.503906 134.375 22.460938 134.457031 22.402344 C 136.117188 26.324219 137.144531 30.453125 137.207031 34.746094 C 136.242188 32.035156 134.601562 29.628906 132.507812 27.617188 C 132.136719 27.269531 131.664062 27.636719 131.726562 28.070312 C 132.199219 31.417969 133.882812 35.484375 136.898438 37.3125 C 136.980469 37.355469 137.042969 37.375 137.105469 37.375 C 137.023438 38.503906 136.855469 39.65625 136.632812 40.804688 C 136.078125 43.515625 135.234375 46.1875 134.167969 48.773438 C 134.785156 45.671875 134.765625 42.53125 132.875 39.777344 C 132.671875 39.46875 132.15625 39.488281 132.054688 39.878906 C 131.132812 43.25 130.804688 47.789062 132.855469 50.808594 C 132.917969 50.890625 132.980469 50.929688 133.039062 50.953125 C 133.019531 51.011719 133.019531 51.074219 133 51.136719 C 132.980469 51.199219 133 51.261719 133.019531 51.300781 C 131.398438 54.648438 129.386719 57.8125 127.191406 60.730469 C 126.84375 61.179688 126.496094 61.632812 126.125 62.0625 C 127.128906 60.09375 127.601562 57.851562 127.582031 55.613281 C 127.582031 55.285156 127.234375 55.101562 126.945312 55.246094 C 125.695312 55.921875 125.078125 57.628906 124.585938 58.921875 C 123.929688 60.707031 123.664062 62.578125 123.683594 64.488281 C 123.683594 64.570312 123.703125 64.652344 123.746094 64.714844 C 121.570312 66.910156 119.148438 68.800781 116.480469 70.300781 C 118.039062 68.597656 118.984375 66.355469 119.25 64.058594 C 119.3125 63.625 118.714844 63.480469 118.449219 63.726562 C 116.460938 65.578125 114.261719 68.535156 114.179688 71.367188 L 114.160156 71.390625 C 114.121094 71.429688 114.097656 71.472656 114.078125 71.511719 C 112.5 72.230469 110.835938 72.808594 109.09375 73.257812 C 108.742188 73.339844 108.886719 73.773438 109.195312 73.730469 Z M 123.273438 4.816406 C 123.128906 4.695312 122.984375 4.570312 122.839844 4.425781 C 122.78125 4.304688 122.738281 4.203125 122.675781 4.097656 C 122.882812 4.324219 123.085938 4.570312 123.273438 4.816406 Z M 123.273438 4.816406 " fill-opacity="1" fill-rule="nonzero"/></g><g fill="#ffffff" fill-opacity="1"><g transform="translate(58.138853, 48.644712)"><g><path d="M 21.890625 -20.558594 L 21.753906 -21.34375 L 18.679688 -21.207031 L 18.546875 -21.207031 L 15.164062 -21.378906 L 15.027344 -20.628906 C 16.15625 -20.457031 18.03125 -20.320312 18.101562 -19.195312 C 18.136719 -17.964844 18.167969 -16.222656 18.167969 -14.515625 L 18.167969 -9.359375 C 18.167969 -3.722656 16.085938 -0.820312 11.953125 -0.820312 C 7.890625 -0.820312 5.875 -3.722656 5.875 -9.359375 L 5.875 -14.378906 C 5.875 -16.5625 5.910156 -18.578125 5.976562 -20.011719 L 8.914062 -20.558594 L 8.777344 -21.34375 L 5.019531 -21.207031 L 4.097656 -21.207031 L 0.785156 -21.378906 L 0.648438 -20.664062 C 1.777344 -20.457031 3.074219 -20.355469 3.175781 -19.195312 C 3.210938 -17.964844 3.246094 -16.15625 3.246094 -14.378906 L 3.246094 -9.324219 C 3.246094 -2.867188 6.148438 0.476562 11.644531 0.476562 C 16.90625 0.476562 19.226562 -2.867188 19.226562 -9.359375 L 19.226562 -14.515625 C 19.226562 -16.425781 19.296875 -18.578125 19.363281 -20.082031 Z M 21.890625 -20.558594 "/></g></g></g><g fill="#ffffff" fill-opacity="1"><g transform="translate(80.676129, 48.644712)"><g><path d="M 21.003906 -13.898438 C 21.003906 -16.085938 21.039062 -18.339844 21.074219 -20.046875 L 23.90625 -20.558594 L 23.769531 -21.34375 L 20.21875 -21.207031 L 17.007812 -21.378906 L 16.90625 -20.664062 C 18.03125 -20.457031 19.535156 -20.320312 19.671875 -19.195312 C 19.707031 -17.792969 19.773438 -15.503906 19.808594 -12.910156 L 19.910156 -3.824219 C 18.476562 -5.292969 9.289062 -16.496094 5.738281 -21.207031 L 4.851562 -21.207031 L 1.46875 -21.378906 L 1.367188 -20.628906 C 2.460938 -20.421875 4.0625 -20.320312 4.132812 -19.226562 L 4.132812 -19.160156 C 4.167969 -18.066406 4.199219 -16.359375 4.199219 -14.550781 L 4.199219 -7.34375 C 4.199219 -5.191406 4.167969 -2.902344 4.132812 -1.160156 L 1.296875 -0.648438 L 1.433594 0.136719 L 4.746094 0 L 4.917969 0 L 8.195312 0.171875 L 8.300781 -0.582031 C 7.171875 -0.75 5.601562 -0.886719 5.53125 -2.015625 C 5.464844 -3.550781 5.394531 -6.011719 5.363281 -8.300781 L 5.257812 -17.65625 C 6.386719 -16.667969 19.808594 0 19.808594 0 L 21.175781 0 C 21.140625 -0.71875 21.003906 -2.9375 21.003906 -6.386719 Z M 21.003906 -13.898438 "/></g></g></g><g fill="#ffffff" fill-opacity="1"><g transform="translate(105.228091, 48.644712)"><g><path d="M 21.890625 -0.582031 C 20.765625 -0.785156 20.046875 -1.023438 19.535156 -2.082031 C 19.023438 -3.3125 18.441406 -4.882812 17.792969 -6.695312 L 12.464844 -21.378906 L 10.382812 -21.207031 L 4.644531 -6.453125 C 3.824219 -4.335938 2.972656 -2.355469 2.460938 -1.160156 L 0.273438 -0.648438 L 0.410156 0.136719 L 3.382812 0 L 6.898438 0.101562 L 7.035156 -0.613281 C 5.15625 -0.785156 3.960938 -0.992188 4.199219 -1.980469 C 4.578125 -3.074219 5.121094 -4.644531 5.773438 -6.214844 L 6.863281 -9.050781 L 14.171875 -9.050781 L 14.992188 -6.695312 C 15.777344 -4.40625 16.394531 -2.390625 16.734375 -1.160156 L 13.96875 -0.648438 L 14.105469 0.136719 L 17.726562 0 L 19.84375 0 L 21.789062 0.136719 Z M 12.054688 -10.246094 L 7.308594 -10.246094 L 10.691406 -19.023438 L 13.761719 -10.246094 Z M 12.054688 -10.246094 "/></g></g></g></svg>