<svg xmlns="http://www.w3.org/2000/svg" xmlns:xlink="http://www.w3.org/1999/xlink" width="500" zoomAndPan="magnify" viewBox="0 0 375 74.999997" height="100" preserveAspectRatio="xMidYMid meet" version="1.0"><defs><g/><clipPath id="b16214f60a"><path d="M 0.00390625 17.613281 L 98.816406 17.613281 L 98.816406 51.898438 L 0.00390625 51.898438 Z M 0.00390625 17.613281 " clip-rule="nonzero"/></clipPath><clipPath id="c4160654fc"><path d="M 276.183594 24.78125 L 374.824219 24.78125 L 374.824219 59.152344 L 276.183594 59.152344 Z M 276.183594 24.78125 " clip-rule="nonzero"/></clipPath></defs><g fill="#ffffff" fill-opacity="1"><g transform="translate(103.324743, 41.96521)"><g><path d="M 30.132812 -0.992188 C 28.550781 -1.308594 27.605469 -1.671875 26.789062 -3.253906 C 26.113281 -4.789062 25.390625 -6.820312 24.578125 -9.035156 L 17.621094 -28.28125 L 13.734375 -28.011719 L 6.371094 -8.765625 C 5.375 -6.144531 4.246094 -3.613281 3.523438 -1.941406 L 0.316406 -1.085938 L 0.496094 0.179688 L 5.195312 0 L 5.332031 0 L 5.332031 -0.046875 L 9.847656 0.179688 L 10.03125 -1.039062 C 7.816406 -1.308594 6.054688 -1.714844 6.28125 -3.117188 C 6.777344 -4.5625 7.453125 -6.550781 8.222656 -8.539062 L 9.441406 -11.746094 C 9.984375 -11.746094 10.753906 -11.792969 11.925781 -11.792969 L 15.8125 -11.792969 C 17.167969 -11.792969 17.980469 -11.792969 18.566406 -11.746094 L 19.472656 -9.035156 C 20.464844 -6.097656 21.144531 -3.570312 21.59375 -1.941406 L 17.890625 -1.085938 L 18.070312 0.179688 L 23.355469 0 L 26.882812 0 L 30 0.226562 Z M 15.902344 -13.777344 L 10.210938 -13.777344 L 14.230469 -24.351562 L 17.84375 -13.777344 Z M 15.902344 -13.777344 "/></g></g></g><g fill="#ffffff" fill-opacity="1"><g transform="translate(133.774049, 41.96521)"><g><path d="M 14.320312 -26.292969 L 19.515625 -26.15625 L 21.777344 -21.59375 L 23.355469 -22.046875 L 22.5 -28.371094 C 21.324219 -28.191406 19.472656 -28.054688 17.664062 -28.054688 L 6.007812 -28.054688 C 4.203125 -28.054688 2.347656 -28.191406 1.128906 -28.371094 L 0.316406 -22.046875 L 1.898438 -21.59375 L 4.019531 -26.15625 L 9.261719 -26.292969 C 9.308594 -25.886719 9.351562 -24.035156 9.351562 -22.410156 L 9.351562 -8.992188 C 9.351562 -6.597656 9.261719 -3.929688 9.171875 -1.941406 L 5.464844 -1.085938 L 5.648438 0.179688 L 10.933594 0 L 13.054688 0 L 17.84375 0.226562 L 17.980469 -0.992188 C 16.398438 -1.308594 14.457031 -1.582031 14.320312 -3.207031 C 14.277344 -4.789062 14.230469 -6.957031 14.230469 -8.992188 L 14.230469 -22.410156 C 14.230469 -24.035156 14.277344 -25.886719 14.320312 -26.292969 Z M 14.320312 -26.292969 "/></g></g></g><g fill="#ffffff" fill-opacity="1"><g transform="translate(157.446799, 41.96521)"><g><path d="M 22 -6.820312 L 19.605469 -1.808594 L 10.300781 -1.582031 L 10.300781 -13.148438 C 13.644531 -13.054688 15.859375 -12.964844 17.03125 -12.921875 L 17.621094 -10.4375 L 18.976562 -10.617188 L 18.792969 -14.503906 L 18.929688 -17.167969 L 17.527344 -17.347656 C 17.4375 -16.582031 17.257812 -15 16.082031 -14.863281 C 14.953125 -14.773438 13.148438 -14.773438 10.300781 -14.683594 L 10.300781 -26.429688 C 13.960938 -26.429688 17.078125 -26.339844 18.792969 -26.25 L 20.328125 -21.683594 L 21.910156 -22.136719 L 21.054688 -28.507812 C 19.878906 -28.328125 18.027344 -28.054688 16.21875 -28.054688 L 7.136719 -28.054688 L 1.761719 -28.28125 L 1.582031 -27.0625 C 3.164062 -26.746094 5.105469 -26.472656 5.285156 -24.894531 L 5.285156 -24.847656 C 5.375 -23.222656 5.421875 -21.054688 5.421875 -19.019531 L 5.421875 -9.035156 C 5.421875 -6.414062 5.285156 -3.796875 5.148438 -1.898438 L 1.445312 -1.085938 L 1.625 0.179688 L 6.914062 0 L 17.167969 0 C 19.066406 0.046875 20.148438 0.226562 21.867188 0.40625 L 23.761719 -6.28125 Z M 22 -6.820312 "/></g></g></g><g fill="#ffffff" fill-opacity="1"><g transform="translate(182.384507, 41.96521)"><g><path d="M 27.785156 -18.386719 C 27.785156 -21.097656 27.875 -24.035156 27.875 -26.113281 L 31.667969 -26.972656 L 31.488281 -28.234375 L 27.511719 -28.054688 L 25.976562 -28.054688 L 22.136719 -28.371094 L 21.957031 -27.152344 C 23.539062 -26.835938 25.480469 -26.519531 25.660156 -24.894531 C 25.707031 -23.132812 25.796875 -20.421875 25.839844 -17.394531 L 26.023438 -6.957031 C 23.898438 -8.992188 10.976562 -24.125 7.996094 -28.054688 L 6.460938 -28.054688 L 1.671875 -28.28125 L 1.535156 -27.105469 C 3.070312 -26.789062 5.105469 -26.519531 5.195312 -24.9375 L 5.195312 -24.847656 C 5.242188 -23.449219 5.285156 -21.324219 5.285156 -19.066406 L 5.285156 -9.714844 C 5.285156 -6.957031 5.195312 -4.019531 5.195312 -1.941406 L 1.445312 -1.085938 L 1.625 0.179688 L 5.332031 0 L 7.046875 0 L 10.886719 0.269531 L 11.070312 -0.902344 C 9.488281 -1.265625 7.5 -1.535156 7.363281 -3.164062 C 7.273438 -5.015625 7.183594 -7.90625 7.136719 -10.660156 L 6.957031 -21.640625 C 9.351562 -19.5625 25.75 0 25.75 0 L 28.011719 0 C 28.011719 -0.585938 27.785156 -3.253906 27.785156 -8.402344 Z M 27.785156 -18.386719 "/></g></g></g><g fill="#ffffff" fill-opacity="1"><g transform="translate(214.776421, 41.96521)"><g><path d="M 22 -6.820312 L 19.605469 -1.808594 L 10.300781 -1.582031 L 10.300781 -13.148438 C 13.644531 -13.054688 15.859375 -12.964844 17.03125 -12.921875 L 17.621094 -10.4375 L 18.976562 -10.617188 L 18.792969 -14.503906 L 18.929688 -17.167969 L 17.527344 -17.347656 C 17.4375 -16.582031 17.257812 -15 16.082031 -14.863281 C 14.953125 -14.773438 13.148438 -14.773438 10.300781 -14.683594 L 10.300781 -26.429688 C 13.960938 -26.429688 17.078125 -26.339844 18.792969 -26.25 L 20.328125 -21.683594 L 21.910156 -22.136719 L 21.054688 -28.507812 C 19.878906 -28.328125 18.027344 -28.054688 16.21875 -28.054688 L 7.136719 -28.054688 L 1.761719 -28.28125 L 1.582031 -27.0625 C 3.164062 -26.746094 5.105469 -26.472656 5.285156 -24.894531 L 5.285156 -24.847656 C 5.375 -23.222656 5.421875 -21.054688 5.421875 -19.019531 L 5.421875 -9.035156 C 5.421875 -6.414062 5.285156 -3.796875 5.148438 -1.898438 L 1.445312 -1.085938 L 1.625 0.179688 L 6.914062 0 L 17.167969 0 C 19.066406 0.046875 20.148438 0.226562 21.867188 0.40625 L 23.761719 -6.28125 Z M 22 -6.820312 "/></g></g></g><g fill="#ffffff" fill-opacity="1"><g transform="translate(239.714129, 41.96521)"><g><path d="M 30.132812 -0.992188 C 28.550781 -1.308594 27.605469 -1.671875 26.789062 -3.253906 C 26.113281 -4.789062 25.390625 -6.820312 24.578125 -9.035156 L 17.621094 -28.28125 L 13.734375 -28.011719 L 6.371094 -8.765625 C 5.375 -6.144531 4.246094 -3.613281 3.523438 -1.941406 L 0.316406 -1.085938 L 0.496094 0.179688 L 5.195312 0 L 5.332031 0 L 5.332031 -0.046875 L 9.847656 0.179688 L 10.03125 -1.039062 C 7.816406 -1.308594 6.054688 -1.714844 6.28125 -3.117188 C 6.777344 -4.5625 7.453125 -6.550781 8.222656 -8.539062 L 9.441406 -11.746094 C 9.984375 -11.746094 10.753906 -11.792969 11.925781 -11.792969 L 15.8125 -11.792969 C 17.167969 -11.792969 17.980469 -11.792969 18.566406 -11.746094 L 19.472656 -9.035156 C 20.464844 -6.097656 21.144531 -3.570312 21.59375 -1.941406 L 17.890625 -1.085938 L 18.070312 0.179688 L 23.355469 0 L 26.882812 0 L 30 0.226562 Z M 15.902344 -13.777344 L 10.210938 -13.777344 L 14.230469 -24.351562 L 17.84375 -13.777344 Z M 15.902344 -13.777344 "/></g></g></g><g fill="#ffffff" fill-opacity="1"><g transform="translate(115.622794, 60.622417)"><g><path d="M 8.019531 -7.53125 L 7.96875 -7.816406 L 6.84375 -7.769531 L 6.792969 -7.769531 L 5.554688 -7.832031 L 5.503906 -7.554688 C 5.917969 -7.492188 6.605469 -7.441406 6.628906 -7.03125 C 6.640625 -6.578125 6.65625 -5.941406 6.65625 -5.316406 L 6.65625 -3.425781 C 6.65625 -1.363281 5.890625 -0.300781 4.378906 -0.300781 C 2.890625 -0.300781 2.152344 -1.363281 2.152344 -3.425781 L 2.152344 -5.265625 C 2.152344 -6.066406 2.164062 -6.804688 2.1875 -7.332031 L 3.265625 -7.53125 L 3.214844 -7.816406 L 1.839844 -7.769531 L 1.5 -7.769531 L 0.289062 -7.832031 L 0.238281 -7.566406 C 0.652344 -7.492188 1.125 -7.457031 1.164062 -7.03125 C 1.175781 -6.578125 1.1875 -5.917969 1.1875 -5.265625 L 1.1875 -3.414062 C 1.1875 -1.050781 2.25 0.175781 4.265625 0.175781 C 6.191406 0.175781 7.042969 -1.050781 7.042969 -3.425781 L 7.042969 -5.316406 C 7.042969 -6.015625 7.066406 -6.804688 7.09375 -7.355469 Z M 8.019531 -7.53125 "/></g></g></g><g fill="#ffffff" fill-opacity="1"><g transform="translate(123.877938, 60.622417)"><g><path d="M 7.691406 -5.089844 C 7.691406 -5.890625 7.707031 -6.71875 7.71875 -7.34375 L 8.757812 -7.53125 L 8.707031 -7.816406 L 7.40625 -7.769531 L 6.230469 -7.832031 L 6.191406 -7.566406 C 6.605469 -7.492188 7.15625 -7.441406 7.207031 -7.03125 C 7.21875 -6.515625 7.242188 -5.679688 7.253906 -4.726562 L 7.292969 -1.402344 C 6.765625 -1.9375 3.402344 -6.042969 2.101562 -7.769531 L 1.777344 -7.769531 L 0.539062 -7.832031 L 0.5 -7.554688 C 0.902344 -7.480469 1.488281 -7.441406 1.511719 -7.042969 L 1.511719 -7.015625 C 1.527344 -6.617188 1.539062 -5.992188 1.539062 -5.328125 L 1.539062 -2.6875 C 1.539062 -1.902344 1.527344 -1.0625 1.511719 -0.425781 L 0.476562 -0.238281 L 0.523438 0.0507812 L 1.738281 0 L 1.800781 0 L 3.003906 0.0625 L 3.039062 -0.210938 C 2.625 -0.273438 2.050781 -0.324219 2.027344 -0.738281 C 2 -1.300781 1.976562 -2.203125 1.964844 -3.039062 L 1.925781 -6.46875 C 2.339844 -6.105469 7.253906 0 7.253906 0 L 7.753906 0 C 7.742188 -0.261719 7.691406 -1.074219 7.691406 -2.339844 Z M 7.691406 -5.089844 "/></g></g></g><g fill="#ffffff" fill-opacity="1"><g transform="translate(132.871041, 60.622417)"><g><path d="M 2.550781 -0.75 C 2.539062 -1.175781 2.515625 -1.828125 2.515625 -2.4375 L 2.515625 -5.304688 C 2.515625 -6.054688 2.550781 -6.84375 2.5625 -7.34375 L 3.589844 -7.53125 L 3.550781 -7.816406 L 2.214844 -7.769531 L 1.800781 -7.769531 L 0.550781 -7.832031 L 0.511719 -7.554688 C 0.925781 -7.480469 1.488281 -7.441406 1.527344 -7.015625 C 1.539062 -6.578125 1.5625 -5.929688 1.5625 -5.304688 L 1.5625 -2.4375 C 1.5625 -1.652344 1.539062 -0.875 1.511719 -0.425781 L 0.476562 -0.238281 L 0.523438 0.0507812 L 1.875 0 L 2.277344 0 L 3.527344 0.0625 L 3.566406 -0.210938 C 3.152344 -0.289062 2.578125 -0.324219 2.550781 -0.75 Z M 2.550781 -0.75 "/></g></g></g><g fill="#ffffff" fill-opacity="1"><g transform="translate(136.948587, 60.622417)"><g><path d="M 8.167969 -7.53125 L 8.117188 -7.816406 L 7.128906 -7.769531 L 7.078125 -7.769531 L 5.566406 -7.84375 L 5.515625 -7.566406 C 5.929688 -7.492188 6.828125 -7.457031 6.71875 -7.03125 C 6.578125 -6.628906 6.367188 -6.066406 6.140625 -5.492188 L 4.316406 -0.777344 L 2.601562 -5.316406 C 2.339844 -6.027344 2.101562 -6.804688 1.925781 -7.34375 L 3.140625 -7.53125 L 3.089844 -7.816406 L 1.5625 -7.769531 L 1.101562 -7.769531 L 0.136719 -7.816406 L 0.101562 -7.554688 C 0.511719 -7.480469 0.761719 -7.394531 0.9375 -6.980469 C 1.113281 -6.566406 1.339844 -5.992188 1.601562 -5.316406 L 3.664062 0.0390625 L 4.402344 -0.0390625 L 6.554688 -5.417969 C 6.804688 -6.066406 7.128906 -6.804688 7.378906 -7.34375 Z M 8.167969 -7.53125 "/></g></g></g><g fill="#ffffff" fill-opacity="1"><g transform="translate(145.216241, 60.622417)"><g><path d="M 6.003906 -1.703125 L 5.390625 -0.414062 L 2.527344 -0.375 L 2.527344 -3.664062 C 3.601562 -3.652344 4.265625 -3.640625 4.578125 -3.628906 L 4.703125 -2.941406 L 5.015625 -2.988281 L 4.980469 -3.992188 L 5.003906 -4.726562 L 4.691406 -4.777344 C 4.664062 -4.515625 4.640625 -4.101562 4.351562 -4.066406 C 4.039062 -4.054688 3.476562 -4.039062 2.527344 -4.039062 L 2.527344 -7.394531 C 3.703125 -7.394531 4.691406 -7.355469 5.152344 -7.332031 L 5.515625 -6.21875 L 5.839844 -6.316406 L 5.628906 -7.867188 C 5.367188 -7.832031 4.941406 -7.78125 4.515625 -7.769531 L 1.976562 -7.769531 L 0.550781 -7.816406 L 0.511719 -7.554688 C 0.925781 -7.480469 1.488281 -7.441406 1.527344 -7.03125 L 1.527344 -7.015625 C 1.550781 -6.566406 1.5625 -5.929688 1.5625 -5.304688 L 1.5625 -2.453125 C 1.5625 -1.703125 1.539062 -0.976562 1.5 -0.425781 L 0.476562 -0.238281 L 0.523438 0.0507812 L 1.851562 0 L 4.777344 0 C 5.214844 0.0117188 5.480469 0.0507812 5.867188 0.101562 L 6.355469 -1.589844 Z M 6.003906 -1.703125 "/></g></g></g><g fill="#ffffff" fill-opacity="1"><g transform="translate(151.932927, 60.622417)"><g><path d="M 6.703125 -0.886719 C 6.441406 -1.324219 6.242188 -2.101562 5.941406 -2.828125 C 5.566406 -3.703125 4.941406 -4.289062 3.890625 -4.664062 C 4.980469 -4.777344 5.792969 -5.378906 5.792969 -6.265625 C 5.792969 -6.90625 5.503906 -7.316406 4.777344 -7.582031 C 3.914062 -7.929688 3.066406 -7.769531 2.152344 -7.769531 L 1.800781 -7.769531 L 0.539062 -7.816406 L 0.5 -7.554688 C 0.914062 -7.480469 1.476562 -7.441406 1.511719 -7.015625 C 1.539062 -6.578125 1.550781 -5.929688 1.550781 -5.304688 L 1.550781 -2.890625 C 1.550781 -1.964844 1.527344 -0.964844 1.5 -0.414062 L 0.476562 -0.238281 L 0.523438 0.0507812 L 1.851562 0 L 2.265625 0 L 3.515625 0.0507812 L 3.550781 -0.210938 C 3.140625 -0.289062 2.5625 -0.335938 2.539062 -0.761719 C 2.527344 -1.199219 2.5 -1.828125 2.5 -2.4375 L 2.5 -7.40625 C 2.914062 -7.40625 3.128906 -7.429688 3.402344 -7.429688 C 4.226562 -7.429688 4.890625 -7.15625 4.890625 -6.203125 C 4.890625 -5.152344 3.738281 -4.839844 3.191406 -4.839844 L 2.925781 -4.828125 L 3.027344 -4.503906 C 4.039062 -4.402344 4.589844 -3.566406 4.992188 -2.589844 C 5.429688 -1.4375 5.804688 -0.386719 6.53125 -0.0507812 C 6.742188 0.0390625 7.015625 0.0859375 7.242188 0.0742188 C 7.417969 0.0625 7.582031 0.0117188 7.65625 -0.0117188 L 7.679688 -0.136719 C 7.304688 -0.238281 7.03125 -0.363281 6.703125 -0.886719 Z M 6.703125 -0.886719 "/></g></g></g><g fill="#ffffff" fill-opacity="1"><g transform="translate(159.712776, 60.622417)"><g><path d="M 0.460938 -1.726562 L 0.589844 -0.335938 C 1.101562 -0.0390625 1.789062 0.148438 2.488281 0.148438 C 3.828125 0.148438 4.789062 -0.738281 4.789062 -2.050781 C 4.789062 -3.265625 3.929688 -3.914062 3.078125 -4.464844 C 2.328125 -4.964844 1.574219 -5.589844 1.574219 -6.355469 C 1.574219 -6.96875 1.988281 -7.53125 2.75 -7.542969 C 3.238281 -7.554688 3.527344 -7.492188 3.738281 -7.394531 L 4.140625 -6.230469 L 4.464844 -6.316406 L 4.265625 -7.769531 C 3.851562 -7.855469 3.363281 -7.941406 2.878906 -7.941406 C 1.527344 -7.941406 0.738281 -7.140625 0.738281 -6.066406 C 0.738281 -4.789062 1.601562 -4.277344 2.4375 -3.652344 C 3.214844 -3.066406 3.914062 -2.515625 3.914062 -1.675781 C 3.914062 -0.988281 3.378906 -0.25 2.464844 -0.25 C 1.890625 -0.25 1.425781 -0.386719 1.152344 -0.601562 L 0.8125 -1.902344 Z M 0.460938 -1.726562 "/></g></g></g><g fill="#ffffff" fill-opacity="1"><g transform="translate(164.941035, 60.622417)"><g><path d="M 2.550781 -0.75 C 2.539062 -1.175781 2.515625 -1.828125 2.515625 -2.4375 L 2.515625 -5.304688 C 2.515625 -6.054688 2.550781 -6.84375 2.5625 -7.34375 L 3.589844 -7.53125 L 3.550781 -7.816406 L 2.214844 -7.769531 L 1.800781 -7.769531 L 0.550781 -7.832031 L 0.511719 -7.554688 C 0.925781 -7.480469 1.488281 -7.441406 1.527344 -7.015625 C 1.539062 -6.578125 1.5625 -5.929688 1.5625 -5.304688 L 1.5625 -2.4375 C 1.5625 -1.652344 1.539062 -0.875 1.511719 -0.425781 L 0.476562 -0.238281 L 0.523438 0.0507812 L 1.875 0 L 2.277344 0 L 3.527344 0.0625 L 3.566406 -0.210938 C 3.152344 -0.289062 2.578125 -0.324219 2.550781 -0.75 Z M 2.550781 -0.75 "/></g></g></g><g fill="#ffffff" fill-opacity="1"><g transform="translate(169.018581, 60.622417)"><g><path d="M 4.078125 -7.816406 C 3.453125 -7.816406 2.515625 -7.769531 2.027344 -7.769531 L 0.539062 -7.816406 L 0.5 -7.554688 C 0.914062 -7.480469 1.476562 -7.441406 1.511719 -7.015625 C 1.539062 -6.578125 1.550781 -5.917969 1.550781 -5.304688 L 1.550781 -2.4375 C 1.550781 -1.738281 1.527344 -0.976562 1.5 -0.425781 L 0.476562 -0.238281 L 0.523438 0.0507812 L 1.851562 0 L 2.140625 0 C 2.839844 0 3.589844 0.0625 4.039062 0.0625 C 6.53125 0.0625 8.066406 -1.476562 8.066406 -3.953125 C 8.066406 -6.492188 6.34375 -7.816406 4.078125 -7.816406 Z M 3.976562 -0.335938 C 3.414062 -0.335938 3.300781 -0.351562 2.5625 -0.351562 C 2.527344 -0.789062 2.515625 -1.652344 2.515625 -2.4375 L 2.515625 -7.40625 C 2.675781 -7.40625 3.265625 -7.429688 3.953125 -7.429688 C 6.34375 -7.429688 7.042969 -5.515625 7.042969 -3.828125 C 7.042969 -1.4375 5.515625 -0.335938 3.976562 -0.335938 Z M 3.976562 -0.335938 "/></g></g></g><g fill="#ffffff" fill-opacity="1"><g transform="translate(177.448837, 60.622417)"><g><path d="M 8.019531 -0.210938 C 7.605469 -0.289062 7.34375 -0.375 7.15625 -0.761719 C 6.96875 -1.214844 6.753906 -1.789062 6.515625 -2.453125 L 4.566406 -7.832031 L 3.800781 -7.769531 L 1.703125 -2.363281 C 1.402344 -1.589844 1.089844 -0.863281 0.902344 -0.425781 L 0.101562 -0.238281 L 0.148438 0.0507812 L 1.238281 0 L 2.527344 0.0390625 L 2.578125 -0.226562 C 1.890625 -0.289062 1.449219 -0.363281 1.539062 -0.726562 C 1.675781 -1.125 1.875 -1.703125 2.113281 -2.277344 L 2.515625 -3.316406 L 5.191406 -3.316406 L 5.492188 -2.453125 C 5.777344 -1.613281 6.003906 -0.875 6.128906 -0.425781 L 5.117188 -0.238281 L 5.167969 0.0507812 L 6.492188 0 L 7.269531 0 L 7.980469 0.0507812 Z M 4.414062 -3.753906 L 2.675781 -3.753906 L 3.914062 -6.96875 L 5.042969 -3.753906 Z M 4.414062 -3.753906 "/></g></g></g><g fill="#ffffff" fill-opacity="1"><g transform="translate(185.566399, 60.622417)"><g><path d="M 4.078125 -7.816406 C 3.453125 -7.816406 2.515625 -7.769531 2.027344 -7.769531 L 0.539062 -7.816406 L 0.5 -7.554688 C 0.914062 -7.480469 1.476562 -7.441406 1.511719 -7.015625 C 1.539062 -6.578125 1.550781 -5.917969 1.550781 -5.304688 L 1.550781 -2.4375 C 1.550781 -1.738281 1.527344 -0.976562 1.5 -0.425781 L 0.476562 -0.238281 L 0.523438 0.0507812 L 1.851562 0 L 2.140625 0 C 2.839844 0 3.589844 0.0625 4.039062 0.0625 C 6.53125 0.0625 8.066406 -1.476562 8.066406 -3.953125 C 8.066406 -6.492188 6.34375 -7.816406 4.078125 -7.816406 Z M 3.976562 -0.335938 C 3.414062 -0.335938 3.300781 -0.351562 2.5625 -0.351562 C 2.527344 -0.789062 2.515625 -1.652344 2.515625 -2.4375 L 2.515625 -7.40625 C 2.675781 -7.40625 3.265625 -7.429688 3.953125 -7.429688 C 6.34375 -7.429688 7.042969 -5.515625 7.042969 -3.828125 C 7.042969 -1.4375 5.515625 -0.335938 3.976562 -0.335938 Z M 3.976562 -0.335938 "/></g></g></g><g fill="#ffffff" fill-opacity="1"><g transform="translate(193.996655, 60.622417)"><g/></g></g><g fill="#ffffff" fill-opacity="1"><g transform="translate(197.011039, 60.622417)"><g><path d="M 7.691406 -5.089844 C 7.691406 -5.890625 7.707031 -6.71875 7.71875 -7.34375 L 8.757812 -7.53125 L 8.707031 -7.816406 L 7.40625 -7.769531 L 6.230469 -7.832031 L 6.191406 -7.566406 C 6.605469 -7.492188 7.15625 -7.441406 7.207031 -7.03125 C 7.21875 -6.515625 7.242188 -5.679688 7.253906 -4.726562 L 7.292969 -1.402344 C 6.765625 -1.9375 3.402344 -6.042969 2.101562 -7.769531 L 1.777344 -7.769531 L 0.539062 -7.832031 L 0.5 -7.554688 C 0.902344 -7.480469 1.488281 -7.441406 1.511719 -7.042969 L 1.511719 -7.015625 C 1.527344 -6.617188 1.539062 -5.992188 1.539062 -5.328125 L 1.539062 -2.6875 C 1.539062 -1.902344 1.527344 -1.0625 1.511719 -0.425781 L 0.476562 -0.238281 L 0.523438 0.0507812 L 1.738281 0 L 1.800781 0 L 3.003906 0.0625 L 3.039062 -0.210938 C 2.625 -0.273438 2.050781 -0.324219 2.027344 -0.738281 C 2 -1.300781 1.976562 -2.203125 1.964844 -3.039062 L 1.925781 -6.46875 C 2.339844 -6.105469 7.253906 0 7.253906 0 L 7.753906 0 C 7.742188 -0.261719 7.691406 -1.074219 7.691406 -2.339844 Z M 7.691406 -5.089844 "/></g></g></g><g fill="#ffffff" fill-opacity="1"><g transform="translate(206.004141, 60.622417)"><g><path d="M 8.019531 -0.210938 C 7.605469 -0.289062 7.34375 -0.375 7.15625 -0.761719 C 6.96875 -1.214844 6.753906 -1.789062 6.515625 -2.453125 L 4.566406 -7.832031 L 3.800781 -7.769531 L 1.703125 -2.363281 C 1.402344 -1.589844 1.089844 -0.863281 0.902344 -0.425781 L 0.101562 -0.238281 L 0.148438 0.0507812 L 1.238281 0 L 2.527344 0.0390625 L 2.578125 -0.226562 C 1.890625 -0.289062 1.449219 -0.363281 1.539062 -0.726562 C 1.675781 -1.125 1.875 -1.703125 2.113281 -2.277344 L 2.515625 -3.316406 L 5.191406 -3.316406 L 5.492188 -2.453125 C 5.777344 -1.613281 6.003906 -0.875 6.128906 -0.425781 L 5.117188 -0.238281 L 5.167969 0.0507812 L 6.492188 0 L 7.269531 0 L 7.980469 0.0507812 Z M 4.414062 -3.753906 L 2.675781 -3.753906 L 3.914062 -6.96875 L 5.042969 -3.753906 Z M 4.414062 -3.753906 "/></g></g></g><g fill="#ffffff" fill-opacity="1"><g transform="translate(214.121703, 60.622417)"><g><path d="M 5.753906 -0.351562 C 5.480469 -0.289062 5.089844 -0.226562 4.566406 -0.226562 C 2.550781 -0.226562 1.4375 -1.875 1.4375 -3.902344 C 1.4375 -6.515625 3.253906 -7.554688 4.691406 -7.554688 C 5.316406 -7.554688 5.742188 -7.40625 5.964844 -7.269531 L 6.492188 -5.964844 L 6.816406 -6.066406 L 6.492188 -7.832031 C 5.953125 -7.84375 5.242188 -7.929688 4.601562 -7.929688 C 2.363281 -7.929688 0.386719 -6.640625 0.386719 -3.914062 C 0.386719 -1.425781 2.050781 0.164062 4.453125 0.164062 C 4.726562 0.164062 4.980469 0.136719 5.179688 0.101562 C 5.191406 0.101562 5.214844 0.101562 5.230469 0.0859375 L 6.328125 -0.0742188 L 6.804688 -1.464844 L 6.453125 -1.574219 Z M 5.753906 -0.351562 "/></g></g></g><g fill="#ffffff" fill-opacity="1"><g transform="translate(221.601368, 60.622417)"><g><path d="M 2.550781 -0.75 C 2.539062 -1.175781 2.515625 -1.828125 2.515625 -2.4375 L 2.515625 -5.304688 C 2.515625 -6.054688 2.550781 -6.84375 2.5625 -7.34375 L 3.589844 -7.53125 L 3.550781 -7.816406 L 2.214844 -7.769531 L 1.800781 -7.769531 L 0.550781 -7.832031 L 0.511719 -7.554688 C 0.925781 -7.480469 1.488281 -7.441406 1.527344 -7.015625 C 1.539062 -6.578125 1.5625 -5.929688 1.5625 -5.304688 L 1.5625 -2.4375 C 1.5625 -1.652344 1.539062 -0.875 1.511719 -0.425781 L 0.476562 -0.238281 L 0.523438 0.0507812 L 1.875 0 L 2.277344 0 L 3.527344 0.0625 L 3.566406 -0.210938 C 3.152344 -0.289062 2.578125 -0.324219 2.550781 -0.75 Z M 2.550781 -0.75 "/></g></g></g><g fill="#ffffff" fill-opacity="1"><g transform="translate(225.678914, 60.622417)"><g><path d="M 4.578125 0.175781 C 6.78125 0.175781 8.78125 -1.113281 8.78125 -3.863281 C 8.78125 -6.34375 6.992188 -7.941406 4.601562 -7.941406 C 2.390625 -7.941406 0.386719 -6.640625 0.386719 -3.914062 C 0.386719 -1.425781 2.1875 0.175781 4.578125 0.175781 Z M 1.4375 -3.863281 C 1.386719 -6.492188 3.238281 -7.53125 4.601562 -7.554688 C 6.480469 -7.582031 7.707031 -5.867188 7.742188 -3.902344 C 7.78125 -1.289062 5.929688 -0.226562 4.566406 -0.210938 C 2.6875 -0.1875 1.464844 -1.914062 1.4375 -3.863281 Z M 1.4375 -3.863281 "/></g></g></g><g fill="#ffffff" fill-opacity="1"><g transform="translate(234.822118, 60.622417)"><g><path d="M 7.691406 -5.089844 C 7.691406 -5.890625 7.707031 -6.71875 7.71875 -7.34375 L 8.757812 -7.53125 L 8.707031 -7.816406 L 7.40625 -7.769531 L 6.230469 -7.832031 L 6.191406 -7.566406 C 6.605469 -7.492188 7.15625 -7.441406 7.207031 -7.03125 C 7.21875 -6.515625 7.242188 -5.679688 7.253906 -4.726562 L 7.292969 -1.402344 C 6.765625 -1.9375 3.402344 -6.042969 2.101562 -7.769531 L 1.777344 -7.769531 L 0.539062 -7.832031 L 0.5 -7.554688 C 0.902344 -7.480469 1.488281 -7.441406 1.511719 -7.042969 L 1.511719 -7.015625 C 1.527344 -6.617188 1.539062 -5.992188 1.539062 -5.328125 L 1.539062 -2.6875 C 1.539062 -1.902344 1.527344 -1.0625 1.511719 -0.425781 L 0.476562 -0.238281 L 0.523438 0.0507812 L 1.738281 0 L 1.800781 0 L 3.003906 0.0625 L 3.039062 -0.210938 C 2.625 -0.273438 2.050781 -0.324219 2.027344 -0.738281 C 2 -1.300781 1.976562 -2.203125 1.964844 -3.039062 L 1.925781 -6.46875 C 2.339844 -6.105469 7.253906 0 7.253906 0 L 7.753906 0 C 7.742188 -0.261719 7.691406 -1.074219 7.691406 -2.339844 Z M 7.691406 -5.089844 "/></g></g></g><g fill="#ffffff" fill-opacity="1"><g transform="translate(243.81522, 60.622417)"><g><path d="M 8.019531 -0.210938 C 7.605469 -0.289062 7.34375 -0.375 7.15625 -0.761719 C 6.96875 -1.214844 6.753906 -1.789062 6.515625 -2.453125 L 4.566406 -7.832031 L 3.800781 -7.769531 L 1.703125 -2.363281 C 1.402344 -1.589844 1.089844 -0.863281 0.902344 -0.425781 L 0.101562 -0.238281 L 0.148438 0.0507812 L 1.238281 0 L 2.527344 0.0390625 L 2.578125 -0.226562 C 1.890625 -0.289062 1.449219 -0.363281 1.539062 -0.726562 C 1.675781 -1.125 1.875 -1.703125 2.113281 -2.277344 L 2.515625 -3.316406 L 5.191406 -3.316406 L 5.492188 -2.453125 C 5.777344 -1.613281 6.003906 -0.875 6.128906 -0.425781 L 5.117188 -0.238281 L 5.167969 0.0507812 L 6.492188 0 L 7.269531 0 L 7.980469 0.0507812 Z M 4.414062 -3.753906 L 2.675781 -3.753906 L 3.914062 -6.96875 L 5.042969 -3.753906 Z M 4.414062 -3.753906 "/></g></g></g><g fill="#ffffff" fill-opacity="1"><g transform="translate(251.932783, 60.622417)"><g><path d="M 5.464844 -1.714844 L 4.816406 -0.4375 C 4.378906 -0.425781 3.613281 -0.386719 2.539062 -0.375 C 2.515625 -0.800781 2.515625 -1.652344 2.515625 -2.4375 L 2.515625 -4.878906 C 2.515625 -5.742188 2.539062 -6.742188 2.5625 -7.34375 L 3.589844 -7.53125 L 3.539062 -7.816406 L 2.214844 -7.769531 L 1.800781 -7.769531 L 0.550781 -7.816406 L 0.511719 -7.554688 C 0.925781 -7.480469 1.476562 -7.441406 1.527344 -7.015625 C 1.550781 -6.566406 1.5625 -5.929688 1.5625 -5.304688 L 1.5625 -2.4375 C 1.5625 -1.703125 1.527344 -0.914062 1.5 -0.425781 L 0.476562 -0.238281 L 0.523438 0.0507812 L 1.851562 0 L 4.179688 0 C 4.640625 0.0117188 4.929688 0.0625 5.277344 0.136719 L 5.828125 -1.601562 Z M 5.464844 -1.714844 "/></g></g></g><g clip-path="url(#b16214f60a)"><path fill="#f8b30d" d="M 2.113281 42.570312 C 2.128906 42.4375 2.191406 42.292969 2.378906 42.132812 C 2.660156 42.277344 2.746094 42.28125 3.082031 42.21875 C 3.179688 42.140625 3.078125 42.023438 3.257812 41.867188 C 3.691406 41.800781 3.789062 41.800781 4.226562 41.867188 C 4.355469 41.828125 4.191406 41.753906 4.226562 41.605469 C 4.585938 41.535156 4.675781 41.738281 5.015625 41.691406 C 5.132812 41.660156 5.15625 41.535156 5.28125 41.515625 C 5.007812 41.035156 6.296875 41.5625 6.863281 41.253906 C 6.816406 41.183594 6.769531 41.109375 6.773438 40.988281 C 7.570312 40.683594 8.335938 41.207031 8.796875 40.902344 C 8.90625 40.941406 8.976562 41.015625 8.972656 41.164062 C 9.820312 40.804688 10.589844 41.859375 11.433594 41.691406 C 11.835938 42.117188 12.292969 42.121094 12.839844 42.21875 C 12.859375 42.609375 13.300781 42.582031 13.457031 42.832031 C 14.933594 42.113281 16.042969 41.027344 17.851562 40.636719 C 20.046875 39.523438 22.597656 38.296875 24.882812 37.5625 C 25.644531 36.933594 26.644531 36.628906 27.523438 36.246094 C 28.765625 35.699219 30.226562 35.386719 31.386719 34.839844 C 33.070312 34.570312 34.417969 33.960938 35.605469 33.875 C 35.527344 33.71875 35.414062 33.601562 35.257812 33.523438 C 34.4375 34.027344 34.027344 32.882812 33.148438 33.082031 C 32.792969 32.558594 31.117188 32.34375 31.828125 32.027344 C 31.679688 31.945312 31.648438 31.738281 31.476562 31.679688 C 31.257812 31.664062 31.199219 31.8125 31.125 31.941406 C 30.765625 31.804688 30.601562 31.46875 30.15625 31.414062 C 30.128906 31.210938 30.171875 31.078125 30.246094 30.976562 C 30.003906 30.96875 30.070312 31.121094 29.894531 30.976562 C 29.933594 31.054688 29.972656 31.132812 30.070312 31.152344 C 30.003906 31.238281 29.207031 30.953125 29.457031 30.710938 L 29.101562 30.710938 C 29.140625 30.632812 29.179688 30.554688 29.277344 30.535156 C 29.15625 30.4375 28.765625 30.546875 29.015625 30.183594 C 28.746094 30.121094 28.757812 30.335938 28.484375 30.273438 C 28.398438 29.785156 28.285156 29.851562 28.136719 29.480469 C 27.980469 29.5625 27.699219 29.511719 27.609375 29.65625 C 27.402344 29.011719 26.550781 28.988281 26.644531 28.25 C 26.539062 28.324219 26.40625 28.367188 26.199219 28.339844 C 26.226562 28.109375 26.230469 27.898438 25.9375 27.988281 C 26.152344 27.457031 25.328125 27.617188 25.761719 27.375 C 24.539062 26.53125 23.964844 24.722656 23.214844 23.683594 C 23.285156 23.699219 23.300781 23.773438 23.390625 23.773438 C 23.441406 23.425781 23.191406 23.382812 22.949219 23.332031 C 22.867188 22.648438 22.835938 22.109375 22.773438 21.3125 C 23.007812 21.519531 22.984375 20.9375 23.125 20.785156 C 23.371094 20.742188 23.71875 21.089844 23.652344 20.609375 C 24.171875 20.816406 24.269531 21.53125 24.796875 21.488281 C 24.6875 21.859375 24.9375 21.875 24.972656 22.101562 C 25.625 21.644531 26 22.148438 26.554688 22.015625 C 26.707031 22.195312 26.488281 22.1875 26.644531 22.367188 C 26.910156 22.429688 26.960938 22.277344 27.167969 22.277344 C 26.699219 22.554688 27.660156 22.753906 27.960938 22.542969 C 28.042969 23.015625 28.425781 22.964844 28.75 22.804688 C 28.8125 23.28125 29.4375 23.277344 29.71875 23.070312 C 29.863281 23.277344 30.5 23.832031 30.6875 23.417969 C 30.84375 23.726562 31.386719 23.976562 31.566406 23.773438 C 31.589844 24.09375 32.402344 24.164062 32.707031 24.210938 C 32.9375 24.363281 33.058594 24.625 33.234375 24.824219 C 34.039062 24.347656 34.191406 25.714844 35.167969 25.617188 C 35.335938 25.832031 35.445312 26.101562 35.605469 26.320312 C 35.789062 25.792969 36.019531 26.519531 36.574219 26.933594 C 37.023438 27.269531 37.671875 27.421875 37.894531 27.726562 C 38.011719 27.886719 37.929688 28.128906 38.070312 28.25 C 38.351562 28.503906 38.886719 28.261719 38.773438 28.777344 C 39.199219 28.753906 39.773438 29.285156 39.828125 29.921875 L 40.53125 29.921875 C 40.683594 30.355469 40.882812 30.742188 41.320312 30.886719 C 41.15625 31.054688 41.3125 31.109375 41.320312 31.328125 C 41.839844 31.113281 41.925781 31.902344 41.9375 32.46875 C 42.773438 32.3125 43.398438 32.460938 43.785156 32.027344 C 46.421875 31.90625 49.949219 31.179688 52.75 31.0625 C 52.972656 31.101562 53.152344 31.1875 53.277344 31.328125 C 53.464844 30.800781 54.910156 31.367188 55.210938 30.976562 C 56.480469 31.179688 58.261719 30.914062 59.34375 30.976562 C 58.691406 30.570312 58.183594 30.027344 57.410156 29.746094 C 57.101562 29.292969 56.730469 28.535156 56.089844 28.691406 C 56.246094 28.117188 55.484375 28.320312 55.738281 27.902344 C 55.582031 27.890625 55.554688 28.007812 55.386719 27.988281 C 55.695312 27.695312 55.261719 27.527344 54.949219 27.375 C 54.910156 27.191406 55.007812 27.140625 55.035156 27.023438 C 54.265625 27.117188 54.519531 26.046875 53.71875 25.878906 C 53.789062 25.632812 53.59375 25.652344 53.628906 25.441406 C 52.8125 24.765625 52.585938 23.496094 51.871094 22.71875 C 51.886719 22.347656 51.972656 21.929688 51.519531 21.839844 C 51.785156 21.71875 51.261719 21.308594 51.695312 21.3125 C 51.347656 21.109375 50.992188 20.789062 51.34375 20.347656 C 51.257812 20.226562 51.109375 20.167969 50.992188 20.085938 C 50.875 19.199219 51.316406 18.441406 51.605469 17.710938 C 51.925781 17.628906 51.730469 18.058594 51.785156 18.238281 C 51.976562 18.136719 51.789062 17.65625 52.046875 17.625 C 52.328125 17.605469 52.1875 18.003906 52.484375 17.972656 C 53.257812 17.519531 54.15625 17.4375 54.773438 18.0625 C 54.902344 17.9375 54.960938 17.78125 54.949219 18.152344 C 55.183594 18.050781 55.371094 18.097656 55.210938 18.324219 C 55.386719 18.324219 55.324219 18.085938 55.5625 18.152344 C 55.554688 18.308594 55.671875 18.335938 55.652344 18.5 C 55.789062 18.492188 55.988281 18.542969 56.003906 18.414062 C 57.113281 19.121094 58.152344 19.894531 59.433594 20.433594 C 59.496094 20.632812 59.511719 20.882812 59.605469 21.046875 C 59.882812 20.863281 59.921875 20.886719 59.957031 21.3125 C 60.039062 21.246094 60.15625 21.21875 60.3125 21.222656 C 60.738281 22.332031 61.765625 22.515625 62.070312 23.597656 C 62.859375 23.878906 63.300781 24.917969 63.476562 25.703125 C 63.785156 25.835938 64.242188 26.28125 64.089844 26.582031 C 64.875 27.25 65.527344 28.917969 65.761719 29.570312 C 65.804688 29.691406 65.59375 29.925781 65.9375 29.832031 C 65.820312 30.316406 65.949219 30.503906 65.9375 31.0625 C 66.40625 31 66.6875 31.132812 66.988281 31.238281 C 67.199219 30.621094 68.34375 31.695312 68.574219 31.0625 C 68.695312 31.320312 69.191406 31.207031 69.363281 31.414062 C 69.507812 30.992188 70.40625 31.011719 70.683594 31.328125 C 71.5 30.894531 72.425781 31.59375 73.234375 31.238281 C 73.15625 31.414062 73.808594 31.480469 73.9375 31.238281 C 74.515625 31.53125 75.003906 31.664062 75.78125 31.503906 C 75.820312 32.117188 76.875 31.226562 77.273438 31.855469 C 78.183594 31.640625 80.367188 31.820312 80.792969 32.46875 C 81.09375 32.101562 81.261719 32.871094 81.582031 32.378906 C 81.902344 32.382812 81.867188 32.742188 82.109375 32.820312 C 82.417969 32.605469 83.140625 32.558594 83.253906 32.996094 C 83.820312 32.667969 84.117188 33.566406 84.574219 33.082031 C 84.636719 33.539062 85.5 33.207031 85.273438 33.523438 C 85.480469 33.550781 85.613281 33.507812 85.71875 33.433594 C 84.746094 32.835938 84.089844 31.804688 83.167969 31.0625 C 83.238281 30.402344 82.371094 30.007812 82.289062 29.21875 C 82.039062 29.144531 82.058594 29.339844 81.847656 29.304688 C 82.144531 29.019531 81.957031 28.53125 81.496094 28.515625 C 81.738281 28.207031 81.46875 27.828125 81.144531 27.8125 C 81.253906 27.371094 80.867188 26.847656 80.617188 26.496094 C 80.773438 25.882812 80.664062 25.390625 80.441406 24.824219 C 80.5 24.109375 80.769531 22.699219 80.441406 22.367188 C 80.8125 21.304688 80.570312 19.835938 81.144531 18.679688 C 81.417969 18.636719 81.535156 18.753906 81.496094 19.027344 C 81.675781 18.972656 81.519531 18.585938 81.847656 18.679688 C 81.78125 18.976562 82.203125 18.789062 82.109375 19.117188 C 82.242188 18.789062 82.449219 19.011719 82.726562 18.589844 C 83.097656 18.667969 82.984375 19.035156 83.429688 18.851562 C 84.863281 20.03125 86.742188 21.214844 87.5625 22.71875 C 88.492188 22.980469 88.625 24.007812 88.96875 24.5625 C 89.199219 24.933594 89.839844 25.269531 89.761719 25.792969 C 90.476562 26.21875 90.832031 27.371094 90.902344 28.164062 C 91.585938 28.492188 91.632812 29.589844 91.695312 30.535156 C 91.707031 30.640625 91.855469 30.609375 91.957031 30.625 C 91.96875 31.546875 91.949219 32.511719 92.308594 33.082031 C 91.992188 33.246094 92.183594 33.464844 91.957031 33.609375 C 91.898438 33.847656 92.140625 33.78125 92.222656 33.875 C 92.199219 34 91.960938 33.902344 91.957031 34.050781 C 92.042969 34.296875 92.191406 33.921875 92.308594 34.136719 C 92.085938 34.414062 91.832031 34.65625 91.78125 35.105469 C 91.902344 35.394531 92.488281 35.21875 92.484375 35.632812 C 92.902344 35.757812 93.285156 35.554688 93.273438 35.894531 C 93.882812 35.855469 95.050781 36.117188 95.472656 36.773438 C 95.746094 36.839844 95.644531 36.53125 95.914062 36.597656 C 96.984375 37.285156 98.296875 37.730469 98.816406 38.96875 C 97.472656 39.484375 96.453125 38.703125 95.472656 38.882812 C 95.425781 38.75 95.34375 38.660156 95.296875 38.53125 C 94.285156 38.648438 93.664062 37.800781 92.660156 37.914062 C 92.476562 37.5 92.015625 37.453125 91.515625 37.5625 C 91.472656 37.292969 90.425781 37.324219 90.289062 36.859375 C 90.03125 36.835938 90.015625 37.058594 89.761719 37.035156 C 89.804688 36.964844 89.851562 36.894531 89.847656 36.773438 C 89.050781 36.949219 88.175781 36.476562 87.472656 36.070312 C 87.097656 36.273438 86.179688 36.035156 85.71875 35.632812 C 85.527344 36.003906 85.390625 35.5625 85.1875 35.457031 C 85.109375 35.492188 85.03125 35.53125 85.011719 35.632812 C 84.355469 35.054688 83.328125 35.496094 82.550781 34.753906 C 82.382812 34.789062 82.328125 34.941406 82.109375 34.929688 C 82.136719 34.785156 82.027344 34.777344 82.023438 34.664062 C 81.75 34.738281 81.589844 34.976562 81.496094 34.578125 C 81.21875 34.53125 81.261719 34.878906 81.054688 34.664062 C 81.199219 36.167969 80.664062 37.855469 80.441406 38.53125 C 80.402344 38.644531 80.453125 38.765625 80.441406 38.882812 C 80.3125 38.925781 80.222656 39.011719 80.089844 39.054688 C 80.261719 39.847656 79.417969 40.214844 79.210938 40.902344 C 79.125 40.898438 79.140625 40.792969 79.121094 40.726562 C 78.945312 40.75 78.949219 40.964844 78.769531 40.988281 C 78.996094 41.753906 77.6875 42.269531 77.101562 42.921875 C 76.828125 43.222656 76.679688 43.515625 76.3125 43.800781 C 76.152344 43.8125 76.125 43.691406 75.957031 43.710938 C 75.808594 44.519531 74.28125 45.484375 73.761719 45.382812 C 73.09375 46.515625 71.644531 46.511719 71.210938 47.226562 C 71.089844 47.53125 70.902344 46.832031 70.945312 47.402344 C 70.183594 47.109375 70.261719 48.121094 69.71875 47.753906 C 69.652344 48.476562 68.148438 47.765625 67.957031 48.191406 C 67.710938 48.058594 67.5 47.890625 67.253906 47.753906 C 67.234375 47.097656 67.195312 45.96875 67.695312 45.382812 C 67.371094 45.222656 67.644531 44.507812 67.871094 44.679688 C 67.882812 43.453125 68.375 42.050781 69.101562 41.253906 C 69.0625 41.085938 68.910156 41.03125 68.925781 40.8125 C 69.261719 40.828125 68.957031 40.742188 69.011719 40.550781 C 69.269531 40.453125 69.382812 40.214844 69.71875 40.199219 C 69.679688 40.089844 69.601562 40.019531 69.453125 40.023438 C 69.546875 39.691406 69.675781 39.726562 69.890625 39.671875 C 69.652344 39.546875 69.789062 39.449219 69.890625 39.230469 C 69.988281 39.253906 69.953125 39.40625 70.070312 39.40625 C 70.328125 39.332031 69.863281 39.277344 69.980469 39.054688 C 70.183594 38.820312 70.527344 38.722656 70.507812 38.265625 C 70.703125 38.21875 70.632812 38.433594 70.769531 38.441406 C 70.828125 38.070312 70.988281 37.53125 71.5625 37.476562 C 71.523438 37.34375 71.449219 37.511719 71.296875 37.476562 C 71.335938 37.308594 71.550781 37.316406 71.476562 37.035156 C 71.65625 37 71.707031 37.097656 71.824219 37.125 C 71.46875 36.652344 72.386719 36.585938 72.089844 36.15625 C 72.351562 36.175781 72.386719 35.832031 72.617188 36.070312 L 72.617188 35.457031 C 73 35.457031 73.308594 35.324219 73.144531 35.015625 C 73.652344 35.121094 73.871094 34.84375 73.671875 34.488281 C 74.0625 34.792969 73.796875 34.039062 74.199219 34.3125 C 74.226562 34.191406 74.375 33.90625 74.640625 33.785156 C 74.457031 33.675781 74.265625 33.570312 74.109375 33.433594 C 74.03125 33.5 73.980469 33.59375 73.9375 33.699219 C 73.820312 33.609375 73.671875 33.554688 73.582031 33.433594 C 73.503906 33.5 73.449219 33.59375 73.410156 33.699219 C 72.6875 33.121094 72.226562 33.925781 71.5625 33.347656 C 71.394531 33.382812 71.34375 33.535156 71.125 33.523438 C 71.171875 33.453125 71.214844 33.378906 71.210938 33.257812 C 70.105469 33.632812 69.324219 33.429688 68.222656 33.171875 C 68.113281 33.210938 68.039062 33.285156 68.046875 33.433594 C 66.453125 33.417969 65.050781 33.027344 63.125 33.257812 C 63.148438 33.117188 63.042969 33.109375 63.035156 32.996094 C 62.722656 32.949219 62.820312 33.304688 62.507812 33.257812 C 62.328125 32.894531 61.875 33.433594 61.804688 33.082031 C 61.578125 33.398438 61.234375 33.105469 60.839844 33.082031 C 59.828125 33.027344 58.402344 33.539062 57.761719 32.90625 C 57.515625 32.894531 57.539062 33.15625 57.410156 33.257812 C 56.378906 33.101562 55.121094 33.203125 53.804688 33.257812 C 53.941406 34.394531 53.660156 35.347656 53.277344 36.421875 C 53.613281 37.226562 52.714844 38.453125 52.925781 39.054688 C 52.535156 39.390625 52.421875 40.15625 52.3125 40.636719 C 52.214844 40.617188 52.25 40.460938 52.132812 40.460938 C 51.894531 40.542969 52.367188 40.625 52.222656 40.902344 C 51.863281 40.875 52.175781 41.085938 52.132812 41.253906 C 51.292969 41.972656 51.496094 43.296875 50.289062 43.886719 C 50.574219 44.894531 49.054688 45.566406 48.882812 46.699219 C 48.605469 46.796875 48.683594 46.707031 48.355469 46.699219 C 48.289062 46.96875 48.597656 46.867188 48.53125 47.136719 C 48.09375 47.332031 47.839844 48.125 47.300781 47.929688 C 47.304688 48.429688 46.957031 48.578125 46.859375 48.984375 C 46.488281 48.992188 46.277344 49.160156 46.246094 49.511719 C 45.757812 49.464844 45.210938 49.820312 45.367188 50.125 C 45.246094 50.511719 44.996094 49.878906 44.929688 50.386719 C 44.773438 50.308594 44.765625 50.082031 44.664062 49.949219 C 44.382812 49.90625 44.628906 50.386719 44.3125 50.300781 C 44.164062 49.796875 43.996094 49.742188 43.605469 49.597656 C 44.070312 49.25 43.113281 48.707031 43.605469 48.28125 C 43.304688 46.554688 43.425781 43.214844 44.664062 41.691406 C 44.671875 41.535156 44.554688 41.507812 44.574219 41.339844 C 45.273438 40.691406 45.03125 39.769531 45.804688 39.230469 C 45.714844 38.59375 46.105469 38.140625 46.507812 38.179688 C 46.257812 37.539062 46.765625 37.230469 47.214844 37.035156 C 47.210938 36.863281 46.972656 36.925781 47.035156 36.683594 C 47.449219 36.542969 47.351562 35.886719 47.914062 35.894531 C 47.675781 35.511719 48.144531 35.691406 48.09375 35.277344 C 48.246094 35.269531 48.277344 35.386719 48.441406 35.367188 C 48.507812 35.097656 48.140625 35.261719 48.265625 34.929688 C 49.1875 34.792969 49.34375 33.894531 50.113281 33.609375 C 50.136719 33.292969 49.726562 33.410156 49.585938 33.257812 C 48.535156 33.75 47.234375 33.460938 46.070312 33.875 C 45.289062 33.679688 43.996094 34.472656 43.078125 34.050781 C 42.898438 34.074219 42.90625 34.285156 42.816406 34.402344 C 38.917969 34.78125 34.054688 36.226562 30.332031 37.210938 C 30.125 37.832031 30.476562 38.242188 30.421875 38.882812 C 29.851562 38.742188 30.265625 40.152344 30.246094 40.285156 C 30.195312 40.585938 29.777344 40.882812 29.71875 41.253906 C 29.671875 41.535156 29.847656 42.5625 29.191406 42.921875 C 29.558594 43.152344 29.113281 43.859375 29.015625 43.710938 C 29.0625 43.78125 29.109375 43.855469 29.101562 43.976562 L 28.75 43.976562 C 28.789062 44.082031 28.863281 44.15625 29.015625 44.152344 C 28.90625 44.484375 28.65625 44.671875 28.3125 44.765625 C 28.3125 44.941406 28.550781 44.878906 28.484375 45.117188 C 27.886719 45.433594 27.785156 46.6875 27.078125 46.609375 C 27.210938 46.878906 27.105469 47.070312 26.992188 47.3125 C 26.441406 47.378906 26.117188 47.832031 26.199219 48.28125 C 25.960938 48.375 25.742188 48.808594 25.5 48.632812 C 25.417969 48.707031 25.203125 49.085938 25.410156 49.160156 C 25.085938 49.257812 24.394531 50.015625 24.09375 50.300781 C 23.191406 50.480469 21.839844 52.867188 20.398438 51.882812 C 20.066406 50.933594 20.011719 49.75 20.664062 49.246094 C 20.605469 49.070312 20.394531 49.046875 20.3125 48.894531 C 20.351562 48.765625 20.390625 48.902344 20.488281 48.894531 C 20.914062 46.035156 21.910156 42.773438 23.566406 40.375 L 23.917969 40.375 C 23.542969 40.1875 23.921875 39.988281 24.003906 39.757812 C 23.808594 39.886719 23.542969 39.941406 23.476562 40.199219 C 22.214844 40.316406 21.375 41.3125 20.3125 41.339844 C 20.203125 41.378906 20.132812 41.453125 20.136719 41.605469 C 19.433594 41.664062 18.554688 41.984375 18.113281 42.394531 C 16.769531 42.839844 15.105469 43.71875 13.894531 44.589844 C 14.054688 45.171875 13.371094 45.101562 13.367188 45.734375 C 13.09375 45.746094 12.734375 46.511719 12.136719 46.171875 C 12.175781 46.28125 12.25 46.351562 12.402344 46.347656 C 12.046875 46.773438 10.945312 46.417969 10.378906 46.960938 C 9.144531 46.964844 7.835938 47.191406 6.773438 46.960938 C 6.570312 47.300781 6.242188 46.972656 5.894531 47.136719 C 5.90625 46.980469 5.789062 46.953125 5.808594 46.785156 C 5.726562 46.933594 5.449219 47.0625 5.632812 46.785156 C 5.359375 46.722656 5.460938 47.027344 5.191406 46.960938 C 4.71875 46.511719 4.152344 46.308594 3.609375 46.523438 C 3.21875 46.132812 2.492188 46.222656 2.203125 46.082031 C 2.085938 46.027344 2.132812 45.816406 2.113281 45.820312 C 2.03125 45.835938 1.632812 46.125 1.585938 45.644531 C 0.894531 45.835938 0.703125 45.355469 0.09375 45.117188 C 0.183594 44.761719 0.167969 44.382812 0.00390625 44.0625 C -0.0078125 43.871094 0.316406 44.023438 0.445312 43.976562 C 0.367188 43.847656 0.3125 43.695312 0.09375 43.710938 C 0.476562 43.21875 1.574219 43.4375 1.585938 42.570312 C 1.691406 42.554688 1.742188 42.589844 1.761719 42.660156 C 1.871094 42.472656 1.699219 42.53125 2.113281 42.570312 " fill-opacity="1" fill-rule="evenodd"/></g><g clip-path="url(#c4160654fc)"><path fill="#f8b30d" d="M 372.882812 34.328125 C 372.867188 34.460938 372.804688 34.605469 372.621094 34.769531 C 372.339844 34.621094 372.25 34.617188 371.914062 34.679688 C 371.816406 34.761719 371.921875 34.878906 371.742188 35.03125 C 371.304688 35.097656 371.207031 35.097656 370.773438 35.03125 C 370.644531 35.070312 370.808594 35.144531 370.773438 35.296875 C 370.410156 35.363281 370.320312 35.160156 369.984375 35.207031 C 369.867188 35.238281 369.84375 35.363281 369.71875 35.382812 C 369.988281 35.863281 368.703125 35.335938 368.136719 35.648438 C 368.183594 35.71875 368.226562 35.789062 368.222656 35.910156 C 367.425781 36.214844 366.664062 35.691406 366.203125 36 C 366.09375 35.960938 366.023438 35.886719 366.027344 35.734375 C 365.175781 36.09375 364.40625 35.042969 363.566406 35.207031 C 363.164062 34.78125 362.707031 34.78125 362.160156 34.679688 C 362.140625 34.289062 361.699219 34.320312 361.542969 34.066406 C 360.066406 34.785156 358.953125 35.871094 357.148438 36.261719 C 354.949219 37.375 352.398438 38.601562 350.113281 39.335938 C 349.355469 39.964844 348.351562 40.269531 347.476562 40.652344 C 346.234375 41.203125 344.773438 41.511719 343.609375 42.058594 C 341.929688 42.328125 340.582031 42.9375 339.390625 43.027344 C 339.46875 43.179688 339.585938 43.296875 339.742188 43.378906 C 340.5625 42.875 340.972656 44.019531 341.851562 43.816406 C 342.207031 44.339844 343.882812 44.554688 343.171875 44.871094 C 343.320312 44.953125 343.347656 45.160156 343.523438 45.222656 C 343.742188 45.238281 343.796875 45.085938 343.875 44.957031 C 344.234375 45.09375 344.394531 45.433594 344.839844 45.484375 C 344.867188 45.6875 344.828125 45.824219 344.75 45.925781 C 344.992188 45.933594 344.929688 45.777344 345.105469 45.925781 C 345.066406 45.847656 345.027344 45.765625 344.929688 45.75 C 344.996094 45.664062 345.792969 45.945312 345.542969 46.1875 L 345.894531 46.1875 C 345.855469 46.265625 345.816406 46.34375 345.71875 46.363281 C 345.84375 46.464844 346.230469 46.355469 345.984375 46.714844 C 346.253906 46.777344 346.242188 46.5625 346.511719 46.628906 C 346.601562 47.113281 346.714844 47.046875 346.863281 47.417969 C 347.015625 47.335938 347.300781 47.386719 347.390625 47.242188 C 347.597656 47.886719 348.445312 47.910156 348.355469 48.648438 C 348.460938 48.574219 348.59375 48.53125 348.796875 48.558594 C 348.769531 48.789062 348.765625 49 349.058594 48.910156 C 348.847656 49.445312 349.671875 49.28125 349.234375 49.527344 C 350.457031 50.367188 351.03125 52.179688 351.785156 53.214844 C 351.714844 53.199219 351.699219 53.125 351.609375 53.125 C 351.554688 53.476562 351.804688 53.515625 352.046875 53.570312 C 352.128906 54.25 352.164062 54.792969 352.226562 55.585938 C 351.992188 55.382812 352.015625 55.960938 351.871094 56.113281 C 351.628906 56.15625 351.277344 55.808594 351.347656 56.292969 C 350.828125 56.082031 350.726562 55.367188 350.203125 55.414062 C 350.308594 55.042969 350.0625 55.027344 350.027344 54.796875 C 349.371094 55.253906 349 54.75 348.445312 54.886719 C 348.289062 54.707031 348.511719 54.710938 348.355469 54.53125 C 348.085938 54.46875 348.035156 54.625 347.832031 54.621094 C 348.300781 54.34375 347.335938 54.144531 347.039062 54.359375 C 346.957031 53.882812 346.574219 53.933594 346.246094 54.09375 C 346.183594 53.621094 345.558594 53.621094 345.28125 53.832031 C 345.132812 53.621094 344.5 53.070312 344.3125 53.480469 C 344.152344 53.171875 343.613281 52.921875 343.433594 53.125 C 343.40625 52.804688 342.597656 52.734375 342.289062 52.6875 C 342.0625 52.535156 341.941406 52.273438 341.765625 52.074219 C 340.957031 52.550781 340.804688 51.1875 339.832031 51.28125 C 339.664062 51.066406 339.554688 50.796875 339.390625 50.582031 C 339.210938 51.109375 338.976562 50.378906 338.425781 49.964844 C 337.972656 49.632812 337.328125 49.480469 337.101562 49.175781 C 336.984375 49.011719 337.070312 48.773438 336.929688 48.648438 C 336.644531 48.394531 336.113281 48.636719 336.222656 48.121094 C 335.800781 48.144531 335.222656 47.613281 335.171875 46.980469 L 334.46875 46.980469 C 334.316406 46.542969 334.117188 46.160156 333.675781 46.011719 C 333.839844 45.84375 333.6875 45.792969 333.675781 45.574219 C 333.15625 45.785156 333.074219 45 333.058594 44.429688 C 332.222656 44.589844 331.597656 44.4375 331.214844 44.871094 C 328.574219 44.996094 325.046875 45.722656 322.246094 45.835938 C 322.023438 45.796875 321.84375 45.714844 321.71875 45.574219 C 321.535156 46.097656 320.089844 45.53125 319.789062 45.925781 C 318.519531 45.722656 316.734375 45.988281 315.652344 45.925781 C 316.308594 46.328125 316.816406 46.871094 317.589844 47.15625 C 317.898438 47.609375 318.265625 48.363281 318.90625 48.207031 C 318.75 48.785156 319.511719 48.578125 319.261719 49 C 319.417969 49.011719 319.445312 48.890625 319.609375 48.910156 C 319.304688 49.207031 319.734375 49.375 320.050781 49.527344 C 320.085938 49.710938 319.992188 49.757812 319.960938 49.878906 C 320.730469 49.785156 320.476562 50.851562 321.28125 51.019531 C 321.207031 51.265625 321.40625 51.246094 321.367188 51.457031 C 322.183594 52.132812 322.410156 53.40625 323.125 54.179688 C 323.113281 54.554688 323.023438 54.96875 323.480469 55.058594 C 323.210938 55.183594 323.738281 55.589844 323.304688 55.585938 C 323.648438 55.792969 324.007812 56.109375 323.652344 56.554688 C 323.738281 56.671875 323.886719 56.730469 324.003906 56.816406 C 324.125 57.699219 323.683594 58.460938 323.390625 59.1875 C 323.070312 59.269531 323.269531 58.84375 323.214844 58.664062 C 323.023438 58.761719 323.210938 59.242188 322.953125 59.277344 C 322.667969 59.292969 322.808594 58.894531 322.511719 58.925781 C 321.742188 59.378906 320.84375 59.464844 320.226562 58.835938 C 320.09375 58.960938 320.039062 59.117188 320.050781 58.75 C 319.8125 58.851562 319.625 58.800781 319.789062 58.574219 C 319.609375 58.574219 319.671875 58.8125 319.433594 58.75 C 319.445312 58.59375 319.328125 58.5625 319.347656 58.398438 C 319.207031 58.40625 319.011719 58.355469 318.996094 58.484375 C 317.886719 57.78125 316.84375 57.003906 315.566406 56.464844 C 315.503906 56.265625 315.488281 56.015625 315.390625 55.851562 C 315.117188 56.035156 315.074219 56.011719 315.039062 55.585938 C 314.960938 55.65625 314.839844 55.679688 314.6875 55.675781 C 314.257812 54.570312 313.230469 54.382812 312.929688 53.304688 C 312.140625 53.019531 311.695312 51.980469 311.523438 51.195312 C 311.214844 51.0625 310.757812 50.617188 310.90625 50.316406 C 310.125 49.648438 309.46875 47.980469 309.238281 47.332031 C 309.195312 47.210938 309.402344 46.972656 309.0625 47.066406 C 309.179688 46.582031 309.046875 46.398438 309.0625 45.835938 C 308.589844 45.898438 308.308594 45.765625 308.007812 45.660156 C 307.796875 46.277344 306.652344 45.207031 306.425781 45.835938 C 306.300781 45.578125 305.808594 45.691406 305.632812 45.484375 C 305.492188 45.90625 304.59375 45.886719 304.3125 45.574219 C 303.496094 46.003906 302.570312 45.304688 301.765625 45.660156 C 301.84375 45.488281 301.1875 45.417969 301.0625 45.660156 C 300.480469 45.367188 299.996094 45.238281 299.214844 45.398438 C 299.175781 44.785156 298.125 45.671875 297.722656 45.046875 C 296.816406 45.261719 294.628906 45.078125 294.207031 44.429688 C 293.90625 44.800781 293.734375 44.03125 293.414062 44.519531 C 293.09375 44.515625 293.132812 44.15625 292.886719 44.078125 C 292.582031 44.292969 291.859375 44.339844 291.742188 43.902344 C 291.175781 44.234375 290.882812 43.335938 290.425781 43.816406 C 290.359375 43.363281 289.496094 43.691406 289.722656 43.378906 C 289.519531 43.347656 289.386719 43.390625 289.28125 43.464844 C 290.25 44.0625 290.910156 45.097656 291.832031 45.835938 C 291.761719 46.496094 292.628906 46.890625 292.710938 47.679688 C 292.960938 47.753906 292.9375 47.558594 293.148438 47.59375 C 292.851562 47.878906 293.039062 48.371094 293.503906 48.382812 C 293.257812 48.691406 293.53125 49.070312 293.855469 49.085938 C 293.742188 49.527344 294.128906 50.050781 294.382812 50.40625 C 294.226562 51.015625 294.335938 51.511719 294.554688 52.074219 C 294.496094 52.792969 294.230469 54.199219 294.554688 54.53125 C 294.183594 55.59375 294.429688 57.066406 293.855469 58.222656 C 293.578125 58.261719 293.460938 58.144531 293.503906 57.871094 C 293.324219 57.925781 293.476562 58.316406 293.148438 58.222656 C 293.21875 57.921875 292.792969 58.113281 292.886719 57.78125 C 292.757812 58.113281 292.550781 57.890625 292.269531 58.308594 C 291.898438 58.230469 292.015625 57.863281 291.570312 58.046875 C 290.132812 56.867188 288.257812 55.6875 287.433594 54.179688 C 286.507812 53.917969 286.375 52.890625 286.03125 52.335938 C 285.796875 51.964844 285.15625 51.628906 285.238281 51.109375 C 284.523438 50.679688 284.164062 49.527344 284.097656 48.734375 C 283.414062 48.40625 283.367188 47.3125 283.304688 46.363281 C 283.292969 46.261719 283.144531 46.289062 283.042969 46.277344 C 283.027344 45.351562 283.050781 44.390625 282.691406 43.816406 C 283.007812 43.652344 282.816406 43.4375 283.042969 43.289062 C 283.101562 43.054688 282.859375 43.121094 282.777344 43.027344 C 282.796875 42.898438 283.039062 42.996094 283.042969 42.851562 C 282.957031 42.605469 282.808594 42.976562 282.691406 42.761719 C 282.910156 42.488281 283.167969 42.242188 283.214844 41.796875 C 283.097656 41.507812 282.511719 41.679688 282.515625 41.269531 C 282.097656 41.144531 281.714844 41.34375 281.722656 41.003906 C 281.113281 41.042969 279.949219 40.785156 279.523438 40.128906 C 279.253906 40.0625 279.355469 40.367188 279.085938 40.304688 C 278.011719 39.617188 276.703125 39.167969 276.183594 37.929688 C 277.527344 37.414062 278.542969 38.195312 279.523438 38.019531 C 279.570312 38.148438 279.652344 38.238281 279.699219 38.371094 C 280.710938 38.25 281.332031 39.097656 282.335938 38.984375 C 282.523438 39.402344 282.980469 39.445312 283.480469 39.335938 C 283.523438 39.609375 284.574219 39.574219 284.710938 40.039062 C 284.96875 40.0625 284.980469 39.839844 285.238281 39.863281 C 285.191406 39.933594 285.148438 40.007812 285.148438 40.128906 C 285.949219 39.953125 286.820312 40.425781 287.523438 40.828125 C 287.902344 40.628906 288.820312 40.867188 289.28125 41.269531 C 289.472656 40.894531 289.605469 41.335938 289.8125 41.445312 C 289.890625 41.40625 289.96875 41.367188 289.984375 41.269531 C 290.644531 41.84375 291.671875 41.40625 292.449219 42.148438 C 292.613281 42.109375 292.667969 41.957031 292.886719 41.972656 C 292.859375 42.113281 292.96875 42.121094 292.976562 42.234375 C 293.25 42.160156 293.410156 41.921875 293.503906 42.324219 C 293.777344 42.367188 293.734375 42.019531 293.941406 42.234375 C 293.796875 40.734375 294.335938 39.046875 294.554688 38.371094 C 294.59375 38.253906 294.542969 38.132812 294.554688 38.019531 C 294.6875 37.972656 294.777344 37.890625 294.90625 37.84375 C 294.738281 37.050781 295.582031 36.6875 295.789062 36 C 295.875 36 295.855469 36.105469 295.878906 36.175781 C 296.054688 36.148438 296.046875 35.9375 296.226562 35.910156 C 296 35.144531 297.308594 34.632812 297.898438 33.976562 C 298.171875 33.675781 298.316406 33.386719 298.6875 33.101562 C 298.847656 33.089844 298.875 33.207031 299.042969 33.1875 C 299.1875 32.378906 300.714844 31.414062 301.238281 31.519531 C 301.902344 30.386719 303.355469 30.386719 303.789062 29.671875 C 303.90625 29.367188 304.097656 30.070312 304.050781 29.5 C 304.816406 29.789062 304.734375 28.78125 305.28125 29.148438 C 305.347656 28.421875 306.847656 29.132812 307.039062 28.707031 C 307.289062 28.839844 307.5 29.011719 307.742188 29.148438 C 307.761719 29.800781 307.800781 30.929688 307.304688 31.519531 C 307.628906 31.679688 307.351562 32.390625 307.125 32.222656 C 307.113281 33.449219 306.621094 34.847656 305.898438 35.648438 C 305.9375 35.816406 306.085938 35.867188 306.074219 36.085938 C 305.734375 36.070312 306.039062 36.160156 305.984375 36.351562 C 305.730469 36.449219 305.617188 36.683594 305.28125 36.703125 C 305.320312 36.808594 305.394531 36.882812 305.546875 36.875 C 305.449219 37.207031 305.324219 37.171875 305.105469 37.230469 C 305.347656 37.355469 305.207031 37.449219 305.105469 37.667969 C 305.011719 37.644531 305.046875 37.492188 304.929688 37.492188 C 304.667969 37.570312 305.136719 37.625 305.019531 37.84375 C 304.816406 38.078125 304.472656 38.175781 304.492188 38.632812 C 304.296875 38.683594 304.367188 38.464844 304.226562 38.457031 C 304.171875 38.828125 304.007812 39.367188 303.433594 39.425781 C 303.472656 39.554688 303.550781 39.390625 303.699219 39.425781 C 303.660156 39.59375 303.449219 39.582031 303.523438 39.863281 C 303.339844 39.902344 303.292969 39.804688 303.171875 39.777344 C 303.53125 40.25 302.613281 40.316406 302.90625 40.742188 C 302.648438 40.722656 302.609375 41.066406 302.378906 40.828125 L 302.378906 41.445312 C 301.996094 41.445312 301.691406 41.574219 301.855469 41.882812 C 301.347656 41.777344 301.128906 42.058594 301.328125 42.410156 C 300.9375 42.105469 301.203125 42.859375 300.796875 42.585938 C 300.773438 42.707031 300.621094 42.992188 300.359375 43.113281 C 300.542969 43.222656 300.730469 43.328125 300.886719 43.464844 C 300.96875 43.402344 301.019531 43.304688 301.0625 43.203125 C 301.179688 43.289062 301.328125 43.347656 301.414062 43.464844 C 301.496094 43.402344 301.546875 43.304688 301.589844 43.203125 C 302.308594 43.777344 302.773438 42.972656 303.433594 43.554688 C 303.605469 43.515625 303.65625 43.363281 303.875 43.378906 C 303.828125 43.449219 303.785156 43.519531 303.789062 43.640625 C 304.894531 43.265625 305.675781 43.46875 306.777344 43.730469 C 306.886719 43.691406 306.957031 43.617188 306.953125 43.464844 C 308.542969 43.480469 309.949219 43.875 311.875 43.640625 C 311.851562 43.78125 311.957031 43.792969 311.960938 43.902344 C 312.273438 43.953125 312.179688 43.59375 312.488281 43.640625 C 312.667969 44.003906 313.125 43.46875 313.191406 43.816406 C 313.417969 43.5 313.765625 43.792969 314.160156 43.816406 C 315.171875 43.871094 316.59375 43.359375 317.238281 43.992188 C 317.484375 44.003906 317.457031 43.742188 317.589844 43.640625 C 318.617188 43.796875 319.875 43.699219 321.191406 43.640625 C 321.058594 42.503906 321.335938 41.550781 321.71875 40.480469 C 321.386719 39.675781 322.285156 38.445312 322.074219 37.84375 C 322.464844 37.507812 322.578125 36.742188 322.6875 36.261719 C 322.78125 36.285156 322.746094 36.4375 322.863281 36.4375 C 323.101562 36.359375 322.628906 36.273438 322.773438 36 C 323.132812 36.027344 322.820312 35.816406 322.863281 35.648438 C 323.707031 34.929688 323.5 33.601562 324.710938 33.011719 C 324.421875 32.003906 325.945312 31.332031 326.117188 30.203125 C 326.390625 30.101562 326.3125 30.191406 326.644531 30.203125 C 326.707031 29.929688 326.402344 30.03125 326.46875 29.761719 C 326.90625 29.570312 327.160156 28.777344 327.699219 28.972656 C 327.695312 28.46875 328.042969 28.320312 328.140625 27.917969 C 328.511719 27.910156 328.722656 27.738281 328.753906 27.390625 C 329.242188 27.433594 329.785156 27.078125 329.632812 26.773438 C 329.753906 26.386719 330.003906 27.023438 330.070312 26.511719 C 330.226562 26.589844 330.230469 26.820312 330.335938 26.949219 C 330.613281 26.996094 330.371094 26.515625 330.6875 26.597656 C 330.835938 27.105469 331.003906 27.15625 331.390625 27.300781 C 330.929688 27.648438 331.886719 28.191406 331.390625 28.621094 C 331.695312 30.34375 331.570312 33.683594 330.335938 35.207031 C 330.324219 35.367188 330.441406 35.394531 330.425781 35.558594 C 329.726562 36.207031 329.964844 37.128906 329.191406 37.667969 C 329.285156 38.304688 328.894531 38.757812 328.488281 38.722656 C 328.742188 39.359375 328.230469 39.667969 327.785156 39.863281 C 327.789062 40.039062 328.027344 39.976562 327.960938 40.214844 C 327.546875 40.359375 327.648438 41.015625 327.082031 41.003906 C 327.324219 41.386719 326.851562 41.207031 326.90625 41.621094 C 326.75 41.632812 326.722656 41.511719 326.554688 41.53125 C 326.492188 41.804688 326.855469 41.640625 326.730469 41.972656 C 325.8125 42.105469 325.65625 43.003906 324.886719 43.289062 C 324.859375 43.605469 325.269531 43.492188 325.410156 43.640625 C 326.464844 43.148438 327.765625 43.4375 328.929688 43.027344 C 329.710938 43.222656 331 42.429688 331.917969 42.851562 C 332.097656 42.824219 332.09375 42.617188 332.179688 42.5 C 336.082031 42.121094 340.941406 40.671875 344.667969 39.6875 C 344.871094 39.066406 344.519531 38.65625 344.578125 38.019531 C 345.148438 38.15625 344.730469 36.746094 344.75 36.613281 C 344.800781 36.3125 345.222656 36.019531 345.28125 35.648438 C 345.328125 35.363281 345.148438 34.339844 345.808594 33.976562 C 345.4375 33.75 345.886719 33.042969 345.984375 33.1875 C 345.9375 33.117188 345.890625 33.042969 345.894531 32.925781 L 346.246094 32.925781 C 346.207031 32.816406 346.136719 32.742188 345.984375 32.75 C 346.089844 32.417969 346.339844 32.226562 346.6875 32.132812 C 346.6875 31.957031 346.445312 32.023438 346.511719 31.78125 C 347.109375 31.464844 347.210938 30.210938 347.917969 30.289062 C 347.789062 30.019531 347.890625 29.832031 348.003906 29.585938 C 348.558594 29.519531 348.878906 29.066406 348.796875 28.621094 C 349.039062 28.523438 349.257812 28.089844 349.5 28.269531 C 349.582031 28.195312 349.792969 27.816406 349.589844 27.742188 C 349.914062 27.640625 350.601562 26.886719 350.90625 26.597656 C 351.808594 26.417969 353.160156 24.035156 354.597656 25.019531 C 354.929688 25.96875 354.988281 27.148438 354.335938 27.652344 C 354.394531 27.828125 354.601562 27.855469 354.6875 28.003906 C 354.648438 28.132812 354.609375 27.996094 354.511719 28.003906 C 354.085938 30.863281 353.085938 34.125 351.433594 36.527344 L 351.082031 36.527344 C 351.453125 36.714844 351.078125 36.910156 350.992188 37.140625 C 351.191406 37.015625 351.457031 36.960938 351.519531 36.703125 C 352.785156 36.582031 353.625 35.589844 354.6875 35.558594 C 354.792969 35.519531 354.867188 35.445312 354.863281 35.296875 C 355.566406 35.234375 356.445312 34.914062 356.882812 34.503906 C 358.230469 34.0625 359.894531 33.179688 361.101562 32.308594 C 360.945312 31.726562 361.628906 31.800781 361.632812 31.167969 C 361.902344 31.152344 362.265625 30.386719 362.863281 30.726562 C 362.824219 30.621094 362.75 30.546875 362.597656 30.550781 C 362.949219 30.128906 364.054688 30.484375 364.621094 29.9375 C 365.851562 29.933594 367.164062 29.707031 368.222656 29.9375 C 368.429688 29.597656 368.757812 29.925781 369.101562 29.761719 C 369.09375 29.917969 369.210938 29.945312 369.191406 30.113281 C 369.273438 29.964844 369.550781 29.839844 369.367188 30.113281 C 369.636719 30.179688 369.535156 29.871094 369.808594 29.9375 C 370.28125 30.386719 370.847656 30.589844 371.386719 30.375 C 371.78125 30.769531 372.503906 30.675781 372.796875 30.816406 C 372.914062 30.875 372.863281 31.082031 372.882812 31.078125 C 372.964844 31.0625 373.363281 30.777344 373.410156 31.253906 C 374.105469 31.066406 374.296875 31.546875 374.90625 31.78125 C 374.8125 32.140625 374.832031 32.519531 374.992188 32.835938 C 375.007812 33.027344 374.679688 32.875 374.554688 32.925781 C 374.628906 33.054688 374.683594 33.203125 374.90625 33.1875 C 374.519531 33.683594 373.421875 33.464844 373.410156 34.328125 C 373.308594 34.34375 373.253906 34.308594 373.234375 34.242188 C 373.125 34.425781 373.300781 34.367188 372.882812 34.328125 " fill-opacity="1" fill-rule="evenodd"/></g></svg>