<svg xmlns="http://www.w3.org/2000/svg" xmlns:xlink="http://www.w3.org/1999/xlink" width="500" zoomAndPan="magnify" viewBox="0 0 375 374.999991" height="500" preserveAspectRatio="xMidYMid meet" version="1.0"><defs><g/><clipPath id="39cc0798da"><path d="M 8.183594 168.480469 L 102.683594 168.480469 L 102.683594 201.269531 L 8.183594 201.269531 Z M 8.183594 168.480469 " clip-rule="nonzero"/></clipPath><clipPath id="60813f7b73"><path d="M 272.3125 175.335938 L 366.648438 175.335938 L 366.648438 208.207031 L 272.3125 208.207031 Z M 272.3125 175.335938 " clip-rule="nonzero"/></clipPath></defs><g fill="#ffffff" fill-opacity="1"><g transform="translate(106.998066, 191.770371)"><g><path d="M 28.820312 -0.949219 C 27.304688 -1.253906 26.398438 -1.597656 25.621094 -3.109375 C 24.972656 -4.578125 24.28125 -6.523438 23.503906 -8.640625 L 16.851562 -27.046875 L 13.132812 -26.789062 L 6.09375 -8.382812 C 5.140625 -5.875 4.0625 -3.457031 3.371094 -1.859375 L 0.300781 -1.035156 L 0.476562 0.171875 L 4.96875 0 L 5.097656 0 L 5.097656 -0.0429688 L 9.417969 0.171875 L 9.59375 -0.992188 C 7.476562 -1.253906 5.789062 -1.640625 6.003906 -2.980469 C 6.480469 -4.363281 7.128906 -6.265625 7.863281 -8.164062 L 9.03125 -11.234375 C 9.546875 -11.234375 10.28125 -11.277344 11.40625 -11.277344 L 15.121094 -11.277344 C 16.417969 -11.277344 17.195312 -11.277344 17.757812 -11.234375 L 18.621094 -8.640625 C 19.574219 -5.832031 20.21875 -3.414062 20.652344 -1.859375 L 17.109375 -1.035156 L 17.28125 0.171875 L 22.335938 0 L 25.707031 0 L 28.6875 0.214844 Z M 15.207031 -13.179688 L 9.765625 -13.179688 L 13.609375 -23.289062 L 17.066406 -13.179688 Z M 15.207031 -13.179688 "/></g></g></g><g fill="#ffffff" fill-opacity="1"><g transform="translate(136.118593, 191.770371)"><g><path d="M 13.695312 -25.144531 L 18.664062 -25.015625 L 20.824219 -20.652344 L 22.335938 -21.085938 L 21.515625 -27.132812 C 20.394531 -26.960938 18.621094 -26.832031 16.894531 -26.832031 L 5.746094 -26.832031 C 4.019531 -26.832031 2.246094 -26.960938 1.082031 -27.132812 L 0.300781 -21.085938 L 1.816406 -20.652344 L 3.84375 -25.015625 L 8.855469 -25.144531 C 8.902344 -24.757812 8.945312 -22.984375 8.945312 -21.429688 L 8.945312 -8.597656 C 8.945312 -6.308594 8.855469 -3.757812 8.769531 -1.859375 L 5.226562 -1.035156 L 5.402344 0.171875 L 10.457031 0 L 12.488281 0 L 17.066406 0.214844 L 17.195312 -0.949219 C 15.683594 -1.253906 13.824219 -1.511719 13.695312 -3.066406 C 13.652344 -4.578125 13.609375 -6.652344 13.609375 -8.597656 L 13.609375 -21.429688 C 13.609375 -22.984375 13.652344 -24.757812 13.695312 -25.144531 Z M 13.695312 -25.144531 "/></g></g></g><g fill="#ffffff" fill-opacity="1"><g transform="translate(158.758287, 191.770371)"><g><path d="M 21.042969 -6.523438 L 18.75 -1.726562 L 9.851562 -1.511719 L 9.851562 -12.574219 C 13.046875 -12.488281 15.164062 -12.398438 16.289062 -12.355469 L 16.851562 -9.980469 L 18.148438 -10.152344 L 17.972656 -13.871094 L 18.101562 -16.417969 L 16.765625 -16.589844 C 16.675781 -15.855469 16.503906 -14.34375 15.382812 -14.214844 C 14.300781 -14.128906 12.574219 -14.128906 9.851562 -14.042969 L 9.851562 -25.277344 C 13.351562 -25.277344 16.332031 -25.1875 17.972656 -25.101562 L 19.441406 -20.738281 L 20.957031 -21.171875 L 20.132812 -27.261719 C 19.011719 -27.089844 17.238281 -26.832031 15.511719 -26.832031 L 6.828125 -26.832031 L 1.683594 -27.046875 L 1.511719 -25.878906 C 3.023438 -25.578125 4.882812 -25.320312 5.054688 -23.808594 L 5.054688 -23.761719 C 5.140625 -22.207031 5.183594 -20.132812 5.183594 -18.191406 L 5.183594 -8.640625 C 5.183594 -6.136719 5.054688 -3.628906 4.925781 -1.816406 L 1.382812 -1.035156 L 1.554688 0.171875 L 6.609375 0 L 16.417969 0 C 18.234375 0.0429688 19.269531 0.214844 20.910156 0.390625 L 22.726562 -6.003906 Z M 21.042969 -6.523438 "/></g></g></g><g fill="#ffffff" fill-opacity="1"><g transform="translate(182.607737, 191.770371)"><g><path d="M 26.570312 -17.585938 C 26.570312 -20.175781 26.660156 -22.984375 26.660156 -24.972656 L 30.289062 -25.792969 L 30.113281 -27.003906 L 26.3125 -26.832031 L 24.84375 -26.832031 L 21.171875 -27.132812 L 21 -25.96875 C 22.511719 -25.664062 24.367188 -25.363281 24.542969 -23.808594 C 24.585938 -22.121094 24.671875 -19.53125 24.714844 -16.632812 L 24.886719 -6.652344 C 22.855469 -8.597656 10.5 -23.070312 7.648438 -26.832031 L 6.179688 -26.832031 L 1.597656 -27.046875 L 1.46875 -25.925781 C 2.9375 -25.621094 4.882812 -25.363281 4.96875 -23.851562 L 4.96875 -23.761719 C 5.011719 -22.425781 5.054688 -20.394531 5.054688 -18.234375 L 5.054688 -9.289062 C 5.054688 -6.652344 4.96875 -3.84375 4.96875 -1.859375 L 1.382812 -1.035156 L 1.554688 0.171875 L 5.097656 0 L 6.738281 0 L 10.414062 0.257812 L 10.585938 -0.863281 C 9.074219 -1.210938 7.171875 -1.46875 7.042969 -3.023438 C 6.957031 -4.796875 6.871094 -7.5625 6.828125 -10.195312 L 6.652344 -20.695312 C 8.945312 -18.707031 24.628906 0 24.628906 0 L 26.789062 0 C 26.789062 -0.5625 26.570312 -3.109375 26.570312 -8.035156 Z M 26.570312 -17.585938 "/></g></g></g><g fill="#ffffff" fill-opacity="1"><g transform="translate(213.586097, 191.770371)"><g><path d="M 21.042969 -6.523438 L 18.75 -1.726562 L 9.851562 -1.511719 L 9.851562 -12.574219 C 13.046875 -12.488281 15.164062 -12.398438 16.289062 -12.355469 L 16.851562 -9.980469 L 18.148438 -10.152344 L 17.972656 -13.871094 L 18.101562 -16.417969 L 16.765625 -16.589844 C 16.675781 -15.855469 16.503906 -14.34375 15.382812 -14.214844 C 14.300781 -14.128906 12.574219 -14.128906 9.851562 -14.042969 L 9.851562 -25.277344 C 13.351562 -25.277344 16.332031 -25.1875 17.972656 -25.101562 L 19.441406 -20.738281 L 20.957031 -21.171875 L 20.132812 -27.261719 C 19.011719 -27.089844 17.238281 -26.832031 15.511719 -26.832031 L 6.828125 -26.832031 L 1.683594 -27.046875 L 1.511719 -25.878906 C 3.023438 -25.578125 4.882812 -25.320312 5.054688 -23.808594 L 5.054688 -23.761719 C 5.140625 -22.207031 5.183594 -20.132812 5.183594 -18.191406 L 5.183594 -8.640625 C 5.183594 -6.136719 5.054688 -3.628906 4.925781 -1.816406 L 1.382812 -1.035156 L 1.554688 0.171875 L 6.609375 0 L 16.417969 0 C 18.234375 0.0429688 19.269531 0.214844 20.910156 0.390625 L 22.726562 -6.003906 Z M 21.042969 -6.523438 "/></g></g></g><g fill="#ffffff" fill-opacity="1"><g transform="translate(237.435548, 191.770371)"><g><path d="M 28.820312 -0.949219 C 27.304688 -1.253906 26.398438 -1.597656 25.621094 -3.109375 C 24.972656 -4.578125 24.28125 -6.523438 23.503906 -8.640625 L 16.851562 -27.046875 L 13.132812 -26.789062 L 6.09375 -8.382812 C 5.140625 -5.875 4.0625 -3.457031 3.371094 -1.859375 L 0.300781 -1.035156 L 0.476562 0.171875 L 4.96875 0 L 5.097656 0 L 5.097656 -0.0429688 L 9.417969 0.171875 L 9.59375 -0.992188 C 7.476562 -1.253906 5.789062 -1.640625 6.003906 -2.980469 C 6.480469 -4.363281 7.128906 -6.265625 7.863281 -8.164062 L 9.03125 -11.234375 C 9.546875 -11.234375 10.28125 -11.277344 11.40625 -11.277344 L 15.121094 -11.277344 C 16.417969 -11.277344 17.195312 -11.277344 17.757812 -11.234375 L 18.621094 -8.640625 C 19.574219 -5.832031 20.21875 -3.414062 20.652344 -1.859375 L 17.109375 -1.035156 L 17.28125 0.171875 L 22.335938 0 L 25.707031 0 L 28.6875 0.214844 Z M 15.207031 -13.179688 L 9.765625 -13.179688 L 13.609375 -23.289062 L 17.066406 -13.179688 Z M 15.207031 -13.179688 "/></g></g></g><g fill="#ffffff" fill-opacity="1"><g transform="translate(118.759452, 209.613376)"><g><path d="M 7.667969 -7.203125 L 7.621094 -7.476562 L 6.542969 -7.429688 L 6.496094 -7.429688 L 5.3125 -7.488281 L 5.265625 -7.226562 C 5.660156 -7.164062 6.316406 -7.117188 6.339844 -6.722656 C 6.351562 -6.292969 6.363281 -5.683594 6.363281 -5.085938 L 6.363281 -3.277344 C 6.363281 -1.304688 5.632812 -0.289062 4.1875 -0.289062 C 2.761719 -0.289062 2.058594 -1.304688 2.058594 -3.277344 L 2.058594 -5.035156 C 2.058594 -5.800781 2.070312 -6.507812 2.09375 -7.011719 L 3.121094 -7.203125 L 3.074219 -7.476562 L 1.757812 -7.429688 L 1.4375 -7.429688 L 0.273438 -7.488281 L 0.226562 -7.238281 C 0.621094 -7.164062 1.078125 -7.128906 1.113281 -6.722656 C 1.125 -6.292969 1.136719 -5.660156 1.136719 -5.035156 L 1.136719 -3.265625 C 1.136719 -1.003906 2.152344 0.167969 4.078125 0.167969 C 5.921875 0.167969 6.734375 -1.003906 6.734375 -3.277344 L 6.734375 -5.085938 C 6.734375 -5.753906 6.757812 -6.507812 6.78125 -7.035156 Z M 7.667969 -7.203125 "/></g></g></g><g fill="#ffffff" fill-opacity="1"><g transform="translate(126.654348, 209.613376)"><g><path d="M 7.355469 -4.867188 C 7.355469 -5.632812 7.371094 -6.425781 7.382812 -7.023438 L 8.375 -7.203125 L 8.328125 -7.476562 L 7.082031 -7.429688 L 5.957031 -7.488281 L 5.921875 -7.238281 C 6.316406 -7.164062 6.84375 -7.117188 6.890625 -6.722656 C 6.902344 -6.234375 6.925781 -5.429688 6.9375 -4.523438 L 6.972656 -1.339844 C 6.472656 -1.855469 3.253906 -5.777344 2.011719 -7.429688 L 1.699219 -7.429688 L 0.515625 -7.488281 L 0.480469 -7.226562 C 0.863281 -7.152344 1.421875 -7.117188 1.449219 -6.734375 L 1.449219 -6.710938 C 1.460938 -6.328125 1.472656 -5.730469 1.472656 -5.097656 L 1.472656 -2.570312 C 1.472656 -1.820312 1.460938 -1.015625 1.449219 -0.40625 L 0.453125 -0.226562 L 0.503906 0.046875 L 1.664062 0 L 1.722656 0 L 2.871094 0.0585938 L 2.90625 -0.203125 C 2.511719 -0.261719 1.960938 -0.3125 1.9375 -0.707031 C 1.914062 -1.246094 1.890625 -2.105469 1.878906 -2.90625 L 1.84375 -6.183594 C 2.238281 -5.839844 6.9375 0 6.9375 0 L 7.417969 0 C 7.40625 -0.25 7.355469 -1.027344 7.355469 -2.238281 Z M 7.355469 -4.867188 "/></g></g></g><g fill="#ffffff" fill-opacity="1"><g transform="translate(135.255, 209.613376)"><g><path d="M 2.441406 -0.71875 C 2.429688 -1.125 2.40625 -1.746094 2.40625 -2.332031 L 2.40625 -5.074219 C 2.40625 -5.789062 2.441406 -6.542969 2.453125 -7.023438 L 3.433594 -7.203125 L 3.398438 -7.476562 L 2.117188 -7.429688 L 1.722656 -7.429688 L 0.527344 -7.488281 L 0.492188 -7.226562 C 0.886719 -7.152344 1.421875 -7.117188 1.460938 -6.710938 C 1.472656 -6.292969 1.496094 -5.671875 1.496094 -5.074219 L 1.496094 -2.332031 C 1.496094 -1.578125 1.472656 -0.835938 1.449219 -0.40625 L 0.453125 -0.226562 L 0.503906 0.046875 L 1.792969 0 L 2.175781 0 L 3.375 0.0585938 L 3.410156 -0.203125 C 3.015625 -0.273438 2.464844 -0.3125 2.441406 -0.71875 Z M 2.441406 -0.71875 "/></g></g></g><g fill="#ffffff" fill-opacity="1"><g transform="translate(139.154605, 209.613376)"><g><path d="M 7.8125 -7.203125 L 7.765625 -7.476562 L 6.820312 -7.429688 L 6.769531 -7.429688 L 5.324219 -7.5 L 5.277344 -7.238281 C 5.671875 -7.164062 6.53125 -7.128906 6.425781 -6.722656 C 6.292969 -6.339844 6.089844 -5.800781 5.875 -5.25 L 4.128906 -0.742188 L 2.488281 -5.085938 C 2.238281 -5.765625 2.011719 -6.507812 1.84375 -7.023438 L 3.003906 -7.203125 L 2.953125 -7.476562 L 1.496094 -7.429688 L 1.054688 -7.429688 L 0.132812 -7.476562 L 0.0976562 -7.226562 C 0.492188 -7.152344 0.730469 -7.070312 0.898438 -6.675781 C 1.066406 -6.28125 1.28125 -5.730469 1.53125 -5.085938 L 3.503906 0.0351562 L 4.210938 -0.0351562 L 6.269531 -5.179688 C 6.507812 -5.800781 6.820312 -6.507812 7.058594 -7.023438 Z M 7.8125 -7.203125 "/></g></g></g><g fill="#ffffff" fill-opacity="1"><g transform="translate(147.061466, 209.613376)"><g><path d="M 5.742188 -1.628906 L 5.15625 -0.394531 L 2.417969 -0.359375 L 2.417969 -3.503906 C 3.445312 -3.492188 4.078125 -3.480469 4.378906 -3.46875 L 4.5 -2.8125 L 4.796875 -2.859375 L 4.761719 -3.816406 L 4.785156 -4.523438 L 4.484375 -4.570312 C 4.460938 -4.320312 4.4375 -3.925781 4.164062 -3.886719 C 3.863281 -3.875 3.324219 -3.863281 2.417969 -3.863281 L 2.417969 -7.070312 C 3.542969 -7.070312 4.484375 -7.035156 4.929688 -7.011719 L 5.277344 -5.945312 L 5.585938 -6.042969 L 5.382812 -7.523438 C 5.132812 -7.488281 4.726562 -7.441406 4.320312 -7.429688 L 1.890625 -7.429688 L 0.527344 -7.476562 L 0.492188 -7.226562 C 0.886719 -7.152344 1.421875 -7.117188 1.460938 -6.722656 L 1.460938 -6.710938 C 1.484375 -6.28125 1.496094 -5.671875 1.496094 -5.074219 L 1.496094 -2.34375 C 1.496094 -1.628906 1.472656 -0.933594 1.4375 -0.40625 L 0.453125 -0.226562 L 0.503906 0.046875 L 1.769531 0 L 4.570312 0 C 4.988281 0.0117188 5.238281 0.046875 5.609375 0.0976562 L 6.078125 -1.519531 Z M 5.742188 -1.628906 "/></g></g></g><g fill="#ffffff" fill-opacity="1"><g transform="translate(153.485042, 209.613376)"><g><path d="M 6.414062 -0.847656 C 6.160156 -1.269531 5.96875 -2.011719 5.683594 -2.703125 C 5.324219 -3.542969 4.726562 -4.101562 3.71875 -4.460938 C 4.761719 -4.570312 5.539062 -5.144531 5.539062 -5.992188 C 5.539062 -6.605469 5.265625 -7 4.570312 -7.25 C 3.746094 -7.585938 2.929688 -7.429688 2.058594 -7.429688 L 1.722656 -7.429688 L 0.515625 -7.476562 L 0.480469 -7.226562 C 0.875 -7.152344 1.410156 -7.117188 1.449219 -6.710938 C 1.472656 -6.292969 1.484375 -5.671875 1.484375 -5.074219 L 1.484375 -2.761719 C 1.484375 -1.878906 1.460938 -0.921875 1.4375 -0.394531 L 0.453125 -0.226562 L 0.503906 0.046875 L 1.769531 0 L 2.164062 0 L 3.363281 0.046875 L 3.398438 -0.203125 C 3.003906 -0.273438 2.453125 -0.324219 2.429688 -0.730469 C 2.417969 -1.148438 2.394531 -1.746094 2.394531 -2.332031 L 2.394531 -7.082031 C 2.789062 -7.082031 2.992188 -7.105469 3.253906 -7.105469 C 4.042969 -7.105469 4.675781 -6.84375 4.675781 -5.933594 C 4.675781 -4.929688 3.578125 -4.628906 3.050781 -4.628906 L 2.800781 -4.617188 L 2.894531 -4.308594 C 3.863281 -4.210938 4.390625 -3.410156 4.773438 -2.476562 C 5.191406 -1.375 5.550781 -0.371094 6.246094 -0.046875 C 6.449219 0.0351562 6.710938 0.0820312 6.925781 0.0703125 C 7.09375 0.0585938 7.25 0.0117188 7.320312 -0.0117188 L 7.34375 -0.132812 C 6.988281 -0.226562 6.722656 -0.347656 6.414062 -0.847656 Z M 6.414062 -0.847656 "/></g></g></g><g fill="#ffffff" fill-opacity="1"><g transform="translate(160.925384, 209.613376)"><g><path d="M 0.441406 -1.652344 L 0.5625 -0.324219 C 1.054688 -0.0351562 1.710938 0.144531 2.378906 0.144531 C 3.660156 0.144531 4.582031 -0.707031 4.582031 -1.960938 C 4.582031 -3.121094 3.757812 -3.746094 2.941406 -4.269531 C 2.226562 -4.75 1.507812 -5.347656 1.507812 -6.078125 C 1.507812 -6.664062 1.902344 -7.203125 2.632812 -7.214844 C 3.097656 -7.226562 3.375 -7.164062 3.578125 -7.070312 L 3.960938 -5.957031 L 4.269531 -6.042969 L 4.078125 -7.429688 C 3.683594 -7.511719 3.21875 -7.597656 2.75 -7.597656 C 1.460938 -7.597656 0.707031 -6.832031 0.707031 -5.800781 C 0.707031 -4.582031 1.53125 -4.089844 2.332031 -3.492188 C 3.074219 -2.929688 3.746094 -2.40625 3.746094 -1.601562 C 3.746094 -0.945312 3.230469 -0.238281 2.355469 -0.238281 C 1.804688 -0.238281 1.363281 -0.371094 1.101562 -0.574219 L 0.777344 -1.820312 Z M 0.441406 -1.652344 "/></g></g></g><g fill="#ffffff" fill-opacity="1"><g transform="translate(165.925487, 209.613376)"><g><path d="M 2.441406 -0.71875 C 2.429688 -1.125 2.40625 -1.746094 2.40625 -2.332031 L 2.40625 -5.074219 C 2.40625 -5.789062 2.441406 -6.542969 2.453125 -7.023438 L 3.433594 -7.203125 L 3.398438 -7.476562 L 2.117188 -7.429688 L 1.722656 -7.429688 L 0.527344 -7.488281 L 0.492188 -7.226562 C 0.886719 -7.152344 1.421875 -7.117188 1.460938 -6.710938 C 1.472656 -6.292969 1.496094 -5.671875 1.496094 -5.074219 L 1.496094 -2.332031 C 1.496094 -1.578125 1.472656 -0.835938 1.449219 -0.40625 L 0.453125 -0.226562 L 0.503906 0.046875 L 1.792969 0 L 2.175781 0 L 3.375 0.0585938 L 3.410156 -0.203125 C 3.015625 -0.273438 2.464844 -0.3125 2.441406 -0.71875 Z M 2.441406 -0.71875 "/></g></g></g><g fill="#ffffff" fill-opacity="1"><g transform="translate(169.825092, 209.613376)"><g><path d="M 3.898438 -7.476562 C 3.300781 -7.476562 2.40625 -7.429688 1.9375 -7.429688 L 0.515625 -7.476562 L 0.480469 -7.226562 C 0.875 -7.152344 1.410156 -7.117188 1.449219 -6.710938 C 1.472656 -6.292969 1.484375 -5.660156 1.484375 -5.074219 L 1.484375 -2.332031 C 1.484375 -1.664062 1.460938 -0.933594 1.4375 -0.40625 L 0.453125 -0.226562 L 0.503906 0.046875 L 1.769531 0 L 2.046875 0 C 2.714844 0 3.433594 0.0585938 3.863281 0.0585938 C 6.246094 0.0585938 7.714844 -1.410156 7.714844 -3.78125 C 7.714844 -6.207031 6.066406 -7.476562 3.898438 -7.476562 Z M 3.804688 -0.324219 C 3.265625 -0.324219 3.160156 -0.335938 2.453125 -0.335938 C 2.417969 -0.753906 2.40625 -1.578125 2.40625 -2.332031 L 2.40625 -7.082031 C 2.558594 -7.082031 3.121094 -7.105469 3.78125 -7.105469 C 6.066406 -7.105469 6.734375 -5.277344 6.734375 -3.660156 C 6.734375 -1.375 5.277344 -0.324219 3.804688 -0.324219 Z M 3.804688 -0.324219 "/></g></g></g><g fill="#ffffff" fill-opacity="1"><g transform="translate(177.887459, 209.613376)"><g><path d="M 7.667969 -0.203125 C 7.273438 -0.273438 7.023438 -0.359375 6.84375 -0.730469 C 6.664062 -1.160156 6.460938 -1.710938 6.234375 -2.34375 L 4.367188 -7.488281 L 3.636719 -7.429688 L 1.628906 -2.261719 C 1.339844 -1.519531 1.039062 -0.824219 0.863281 -0.40625 L 0.0976562 -0.226562 L 0.144531 0.046875 L 1.183594 0 L 2.417969 0.0351562 L 2.464844 -0.214844 C 1.804688 -0.273438 1.386719 -0.347656 1.472656 -0.695312 C 1.601562 -1.078125 1.792969 -1.628906 2.023438 -2.175781 L 2.40625 -3.171875 L 4.964844 -3.171875 L 5.25 -2.34375 C 5.527344 -1.542969 5.742188 -0.835938 5.863281 -0.40625 L 4.894531 -0.226562 L 4.941406 0.046875 L 6.207031 0 L 6.949219 0 L 7.632812 0.046875 Z M 4.222656 -3.589844 L 2.558594 -3.589844 L 3.746094 -6.664062 L 4.820312 -3.589844 Z M 4.222656 -3.589844 "/></g></g></g><g fill="#ffffff" fill-opacity="1"><g transform="translate(185.650778, 209.613376)"><g><path d="M 3.898438 -7.476562 C 3.300781 -7.476562 2.40625 -7.429688 1.9375 -7.429688 L 0.515625 -7.476562 L 0.480469 -7.226562 C 0.875 -7.152344 1.410156 -7.117188 1.449219 -6.710938 C 1.472656 -6.292969 1.484375 -5.660156 1.484375 -5.074219 L 1.484375 -2.332031 C 1.484375 -1.664062 1.460938 -0.933594 1.4375 -0.40625 L 0.453125 -0.226562 L 0.503906 0.046875 L 1.769531 0 L 2.046875 0 C 2.714844 0 3.433594 0.0585938 3.863281 0.0585938 C 6.246094 0.0585938 7.714844 -1.410156 7.714844 -3.78125 C 7.714844 -6.207031 6.066406 -7.476562 3.898438 -7.476562 Z M 3.804688 -0.324219 C 3.265625 -0.324219 3.160156 -0.335938 2.453125 -0.335938 C 2.417969 -0.753906 2.40625 -1.578125 2.40625 -2.332031 L 2.40625 -7.082031 C 2.558594 -7.082031 3.121094 -7.105469 3.78125 -7.105469 C 6.066406 -7.105469 6.734375 -5.277344 6.734375 -3.660156 C 6.734375 -1.375 5.277344 -0.324219 3.804688 -0.324219 Z M 3.804688 -0.324219 "/></g></g></g><g fill="#ffffff" fill-opacity="1"><g transform="translate(193.713144, 209.613376)"><g/></g></g><g fill="#ffffff" fill-opacity="1"><g transform="translate(196.595983, 209.613376)"><g><path d="M 7.355469 -4.867188 C 7.355469 -5.632812 7.371094 -6.425781 7.382812 -7.023438 L 8.375 -7.203125 L 8.328125 -7.476562 L 7.082031 -7.429688 L 5.957031 -7.488281 L 5.921875 -7.238281 C 6.316406 -7.164062 6.84375 -7.117188 6.890625 -6.722656 C 6.902344 -6.234375 6.925781 -5.429688 6.9375 -4.523438 L 6.972656 -1.339844 C 6.472656 -1.855469 3.253906 -5.777344 2.011719 -7.429688 L 1.699219 -7.429688 L 0.515625 -7.488281 L 0.480469 -7.226562 C 0.863281 -7.152344 1.421875 -7.117188 1.449219 -6.734375 L 1.449219 -6.710938 C 1.460938 -6.328125 1.472656 -5.730469 1.472656 -5.097656 L 1.472656 -2.570312 C 1.472656 -1.820312 1.460938 -1.015625 1.449219 -0.40625 L 0.453125 -0.226562 L 0.503906 0.046875 L 1.664062 0 L 1.722656 0 L 2.871094 0.0585938 L 2.90625 -0.203125 C 2.511719 -0.261719 1.960938 -0.3125 1.9375 -0.707031 C 1.914062 -1.246094 1.890625 -2.105469 1.878906 -2.90625 L 1.84375 -6.183594 C 2.238281 -5.839844 6.9375 0 6.9375 0 L 7.417969 0 C 7.40625 -0.25 7.355469 -1.027344 7.355469 -2.238281 Z M 7.355469 -4.867188 "/></g></g></g><g fill="#ffffff" fill-opacity="1"><g transform="translate(205.196634, 209.613376)"><g><path d="M 7.667969 -0.203125 C 7.273438 -0.273438 7.023438 -0.359375 6.84375 -0.730469 C 6.664062 -1.160156 6.460938 -1.710938 6.234375 -2.34375 L 4.367188 -7.488281 L 3.636719 -7.429688 L 1.628906 -2.261719 C 1.339844 -1.519531 1.039062 -0.824219 0.863281 -0.40625 L 0.0976562 -0.226562 L 0.144531 0.046875 L 1.183594 0 L 2.417969 0.0351562 L 2.464844 -0.214844 C 1.804688 -0.273438 1.386719 -0.347656 1.472656 -0.695312 C 1.601562 -1.078125 1.792969 -1.628906 2.023438 -2.175781 L 2.40625 -3.171875 L 4.964844 -3.171875 L 5.25 -2.34375 C 5.527344 -1.542969 5.742188 -0.835938 5.863281 -0.40625 L 4.894531 -0.226562 L 4.941406 0.046875 L 6.207031 0 L 6.949219 0 L 7.632812 0.046875 Z M 4.222656 -3.589844 L 2.558594 -3.589844 L 3.746094 -6.664062 L 4.820312 -3.589844 Z M 4.222656 -3.589844 "/></g></g></g><g fill="#ffffff" fill-opacity="1"><g transform="translate(212.959953, 209.613376)"><g><path d="M 5.503906 -0.335938 C 5.238281 -0.273438 4.867188 -0.214844 4.367188 -0.214844 C 2.441406 -0.214844 1.375 -1.792969 1.375 -3.734375 C 1.375 -6.234375 3.109375 -7.226562 4.484375 -7.226562 C 5.085938 -7.226562 5.492188 -7.082031 5.707031 -6.949219 L 6.207031 -5.707031 L 6.519531 -5.800781 L 6.207031 -7.488281 C 5.695312 -7.5 5.011719 -7.585938 4.402344 -7.585938 C 2.261719 -7.585938 0.371094 -6.351562 0.371094 -3.746094 C 0.371094 -1.363281 1.960938 0.15625 4.257812 0.15625 C 4.523438 0.15625 4.761719 0.132812 4.953125 0.0976562 C 4.964844 0.0976562 4.988281 0.0976562 5 0.0820312 L 6.054688 -0.0703125 L 6.507812 -1.398438 L 6.171875 -1.507812 Z M 5.503906 -0.335938 "/></g></g></g><g fill="#ffffff" fill-opacity="1"><g transform="translate(220.113212, 209.613376)"><g><path d="M 2.441406 -0.71875 C 2.429688 -1.125 2.40625 -1.746094 2.40625 -2.332031 L 2.40625 -5.074219 C 2.40625 -5.789062 2.441406 -6.542969 2.453125 -7.023438 L 3.433594 -7.203125 L 3.398438 -7.476562 L 2.117188 -7.429688 L 1.722656 -7.429688 L 0.527344 -7.488281 L 0.492188 -7.226562 C 0.886719 -7.152344 1.421875 -7.117188 1.460938 -6.710938 C 1.472656 -6.292969 1.496094 -5.671875 1.496094 -5.074219 L 1.496094 -2.332031 C 1.496094 -1.578125 1.472656 -0.835938 1.449219 -0.40625 L 0.453125 -0.226562 L 0.503906 0.046875 L 1.792969 0 L 2.175781 0 L 3.375 0.0585938 L 3.410156 -0.203125 C 3.015625 -0.273438 2.464844 -0.3125 2.441406 -0.71875 Z M 2.441406 -0.71875 "/></g></g></g><g fill="#ffffff" fill-opacity="1"><g transform="translate(224.012817, 209.613376)"><g><path d="M 4.378906 0.167969 C 6.484375 0.167969 8.398438 -1.066406 8.398438 -3.695312 C 8.398438 -6.066406 6.6875 -7.597656 4.402344 -7.597656 C 2.285156 -7.597656 0.371094 -6.351562 0.371094 -3.746094 C 0.371094 -1.363281 2.09375 0.167969 4.378906 0.167969 Z M 1.375 -3.695312 C 1.328125 -6.207031 3.097656 -7.203125 4.402344 -7.226562 C 6.195312 -7.25 7.371094 -5.609375 7.40625 -3.734375 C 7.441406 -1.230469 5.671875 -0.214844 4.367188 -0.203125 C 2.570312 -0.179688 1.398438 -1.832031 1.375 -3.695312 Z M 1.375 -3.695312 "/></g></g></g><g fill="#ffffff" fill-opacity="1"><g transform="translate(232.757019, 209.613376)"><g><path d="M 7.355469 -4.867188 C 7.355469 -5.632812 7.371094 -6.425781 7.382812 -7.023438 L 8.375 -7.203125 L 8.328125 -7.476562 L 7.082031 -7.429688 L 5.957031 -7.488281 L 5.921875 -7.238281 C 6.316406 -7.164062 6.84375 -7.117188 6.890625 -6.722656 C 6.902344 -6.234375 6.925781 -5.429688 6.9375 -4.523438 L 6.972656 -1.339844 C 6.472656 -1.855469 3.253906 -5.777344 2.011719 -7.429688 L 1.699219 -7.429688 L 0.515625 -7.488281 L 0.480469 -7.226562 C 0.863281 -7.152344 1.421875 -7.117188 1.449219 -6.734375 L 1.449219 -6.710938 C 1.460938 -6.328125 1.472656 -5.730469 1.472656 -5.097656 L 1.472656 -2.570312 C 1.472656 -1.820312 1.460938 -1.015625 1.449219 -0.40625 L 0.453125 -0.226562 L 0.503906 0.046875 L 1.664062 0 L 1.722656 0 L 2.871094 0.0585938 L 2.90625 -0.203125 C 2.511719 -0.261719 1.960938 -0.3125 1.9375 -0.707031 C 1.914062 -1.246094 1.890625 -2.105469 1.878906 -2.90625 L 1.84375 -6.183594 C 2.238281 -5.839844 6.9375 0 6.9375 0 L 7.417969 0 C 7.40625 -0.25 7.355469 -1.027344 7.355469 -2.238281 Z M 7.355469 -4.867188 "/></g></g></g><g fill="#ffffff" fill-opacity="1"><g transform="translate(241.35767, 209.613376)"><g><path d="M 7.667969 -0.203125 C 7.273438 -0.273438 7.023438 -0.359375 6.84375 -0.730469 C 6.664062 -1.160156 6.460938 -1.710938 6.234375 -2.34375 L 4.367188 -7.488281 L 3.636719 -7.429688 L 1.628906 -2.261719 C 1.339844 -1.519531 1.039062 -0.824219 0.863281 -0.40625 L 0.0976562 -0.226562 L 0.144531 0.046875 L 1.183594 0 L 2.417969 0.0351562 L 2.464844 -0.214844 C 1.804688 -0.273438 1.386719 -0.347656 1.472656 -0.695312 C 1.601562 -1.078125 1.792969 -1.628906 2.023438 -2.175781 L 2.40625 -3.171875 L 4.964844 -3.171875 L 5.25 -2.34375 C 5.527344 -1.542969 5.742188 -0.835938 5.863281 -0.40625 L 4.894531 -0.226562 L 4.941406 0.046875 L 6.207031 0 L 6.949219 0 L 7.632812 0.046875 Z M 4.222656 -3.589844 L 2.558594 -3.589844 L 3.746094 -6.664062 L 4.820312 -3.589844 Z M 4.222656 -3.589844 "/></g></g></g><g fill="#ffffff" fill-opacity="1"><g transform="translate(249.120989, 209.613376)"><g><path d="M 5.226562 -1.640625 L 4.605469 -0.417969 C 4.1875 -0.40625 3.457031 -0.371094 2.429688 -0.359375 C 2.40625 -0.765625 2.40625 -1.578125 2.40625 -2.332031 L 2.40625 -4.664062 C 2.40625 -5.492188 2.429688 -6.449219 2.453125 -7.023438 L 3.433594 -7.203125 L 3.386719 -7.476562 L 2.117188 -7.429688 L 1.722656 -7.429688 L 0.527344 -7.476562 L 0.492188 -7.226562 C 0.886719 -7.152344 1.410156 -7.117188 1.460938 -6.710938 C 1.484375 -6.28125 1.496094 -5.671875 1.496094 -5.074219 L 1.496094 -2.332031 C 1.496094 -1.628906 1.460938 -0.875 1.4375 -0.40625 L 0.453125 -0.226562 L 0.503906 0.046875 L 1.769531 0 L 3.996094 0 C 4.4375 0.0117188 4.714844 0.0585938 5.046875 0.132812 L 5.574219 -1.53125 Z M 5.226562 -1.640625 "/></g></g></g><g clip-path="url(#39cc0798da)"><path fill="#f8b30d" d="M 10.203125 192.347656 C 10.21875 192.222656 10.28125 192.082031 10.457031 191.929688 C 10.726562 192.070312 10.808594 192.074219 11.128906 192.011719 C 11.226562 191.9375 11.125 191.824219 11.296875 191.675781 C 11.714844 191.613281 11.808594 191.613281 12.222656 191.675781 C 12.347656 191.640625 12.191406 191.570312 12.222656 191.425781 C 12.570312 191.359375 12.65625 191.554688 12.980469 191.507812 C 13.089844 191.480469 13.113281 191.359375 13.230469 191.339844 C 12.972656 190.882812 14.203125 191.386719 14.746094 191.089844 C 14.699219 191.019531 14.65625 190.953125 14.660156 190.835938 C 15.425781 190.542969 16.15625 191.046875 16.59375 190.753906 C 16.699219 190.789062 16.765625 190.859375 16.761719 191.003906 C 17.574219 190.660156 18.3125 191.667969 19.117188 191.507812 C 19.5 191.917969 19.9375 191.917969 20.460938 192.011719 C 20.480469 192.386719 20.902344 192.359375 21.050781 192.601562 C 22.464844 191.914062 23.527344 190.875 25.253906 190.5 C 27.355469 189.433594 29.792969 188.261719 31.980469 187.558594 C 32.707031 186.957031 33.664062 186.667969 34.503906 186.300781 C 35.691406 185.777344 37.089844 185.480469 38.199219 184.957031 C 39.808594 184.699219 41.097656 184.117188 42.234375 184.03125 C 42.160156 183.882812 42.050781 183.773438 41.898438 183.695312 C 41.117188 184.175781 40.722656 183.082031 39.882812 183.277344 C 39.542969 182.773438 37.941406 182.570312 38.621094 182.269531 C 38.480469 182.1875 38.453125 181.988281 38.285156 181.933594 C 38.074219 181.917969 38.019531 182.0625 37.949219 182.183594 C 37.605469 182.054688 37.449219 181.730469 37.023438 181.679688 C 36.996094 181.484375 37.035156 181.355469 37.109375 181.257812 C 36.878906 181.253906 36.941406 181.398438 36.769531 181.257812 C 36.808594 181.335938 36.84375 181.410156 36.941406 181.425781 C 36.875 181.511719 36.113281 181.238281 36.351562 181.007812 L 36.015625 181.007812 C 36.050781 180.933594 36.089844 180.859375 36.183594 180.839844 C 36.066406 180.742188 35.695312 180.847656 35.929688 180.503906 C 35.675781 180.441406 35.683594 180.648438 35.425781 180.585938 C 35.339844 180.121094 35.230469 180.1875 35.089844 179.832031 C 34.941406 179.910156 34.671875 179.859375 34.585938 180 C 34.386719 179.382812 33.574219 179.359375 33.664062 178.65625 C 33.5625 178.726562 33.4375 178.765625 33.238281 178.738281 C 33.265625 178.519531 33.269531 178.320312 32.988281 178.402344 C 33.191406 177.894531 32.40625 178.050781 32.820312 177.816406 C 31.652344 177.011719 31.101562 175.277344 30.382812 174.289062 C 30.449219 174.300781 30.464844 174.371094 30.550781 174.371094 C 30.601562 174.039062 30.363281 174 30.128906 173.949219 C 30.054688 173.296875 30.019531 172.78125 29.960938 172.019531 C 30.183594 172.214844 30.164062 171.660156 30.296875 171.515625 C 30.53125 171.476562 30.867188 171.804688 30.800781 171.347656 C 31.296875 171.542969 31.394531 172.226562 31.894531 172.1875 C 31.792969 172.539062 32.03125 172.554688 32.0625 172.773438 C 32.691406 172.335938 33.046875 172.820312 33.578125 172.691406 C 33.726562 172.863281 33.511719 172.855469 33.664062 173.027344 C 33.917969 173.085938 33.96875 172.941406 34.164062 172.945312 C 33.714844 173.207031 34.636719 173.398438 34.921875 173.195312 C 35 173.648438 35.367188 173.597656 35.679688 173.449219 C 35.738281 173.898438 36.335938 173.898438 36.605469 173.699219 C 36.742188 173.898438 37.351562 174.425781 37.527344 174.035156 C 37.679688 174.328125 38.199219 174.566406 38.371094 174.371094 C 38.394531 174.679688 39.171875 174.746094 39.464844 174.792969 C 39.683594 174.9375 39.796875 175.1875 39.964844 175.378906 C 40.738281 174.921875 40.882812 176.226562 41.816406 176.136719 C 41.976562 176.34375 42.078125 176.601562 42.234375 176.808594 C 42.410156 176.300781 42.632812 177 43.160156 177.394531 C 43.589844 177.714844 44.210938 177.859375 44.421875 178.152344 C 44.535156 178.308594 44.457031 178.535156 44.589844 178.65625 C 44.863281 178.898438 45.371094 178.667969 45.265625 179.160156 C 45.667969 179.136719 46.222656 179.644531 46.269531 180.25 L 46.945312 180.25 C 47.089844 180.667969 47.28125 181.035156 47.699219 181.175781 C 47.542969 181.335938 47.691406 181.386719 47.699219 181.59375 C 48.199219 181.390625 48.277344 182.144531 48.289062 182.6875 C 49.089844 182.539062 49.6875 182.679688 50.054688 182.269531 C 52.578125 182.148438 55.953125 181.453125 58.632812 181.34375 C 58.84375 181.382812 59.015625 181.460938 59.136719 181.59375 C 59.3125 181.09375 60.695312 181.632812 60.984375 181.257812 C 62.195312 181.453125 63.902344 181.199219 64.9375 181.257812 C 64.3125 180.875 63.824219 180.355469 63.085938 180.082031 C 62.789062 179.648438 62.4375 178.925781 61.824219 179.074219 C 61.976562 178.527344 61.246094 178.722656 61.488281 178.320312 C 61.339844 178.308594 61.3125 178.421875 61.152344 178.402344 C 61.445312 178.121094 61.03125 177.960938 60.730469 177.816406 C 60.699219 177.640625 60.789062 177.59375 60.816406 177.480469 C 60.082031 177.570312 60.324219 176.546875 59.554688 176.386719 C 59.625 176.152344 59.4375 176.171875 59.472656 175.96875 C 58.691406 175.320312 58.472656 174.105469 57.789062 173.363281 C 57.804688 173.007812 57.886719 172.609375 57.453125 172.523438 C 57.707031 172.40625 57.207031 172.015625 57.621094 172.019531 C 57.289062 171.824219 56.949219 171.519531 57.285156 171.09375 C 57.203125 170.980469 57.0625 170.925781 56.949219 170.84375 C 56.835938 170 57.257812 169.269531 57.535156 168.574219 C 57.84375 168.496094 57.652344 168.90625 57.707031 169.078125 C 57.890625 168.984375 57.710938 168.523438 57.957031 168.492188 C 58.226562 168.472656 58.09375 168.855469 58.378906 168.828125 C 59.117188 168.390625 59.972656 168.3125 60.566406 168.910156 C 60.691406 168.792969 60.746094 168.644531 60.730469 168.996094 C 60.957031 168.898438 61.136719 168.945312 60.984375 169.160156 C 61.152344 169.160156 61.09375 168.933594 61.320312 168.996094 C 61.3125 169.144531 61.421875 169.171875 61.40625 169.332031 C 61.539062 169.324219 61.726562 169.371094 61.742188 169.246094 C 62.804688 169.921875 63.796875 170.664062 65.019531 171.179688 C 65.082031 171.371094 65.097656 171.609375 65.1875 171.765625 C 65.453125 171.589844 65.492188 171.613281 65.523438 172.019531 C 65.601562 171.953125 65.714844 171.929688 65.863281 171.933594 C 66.273438 172.992188 67.253906 173.167969 67.542969 174.203125 C 68.296875 174.472656 68.722656 175.46875 68.886719 176.21875 C 69.183594 176.34375 69.621094 176.769531 69.476562 177.058594 C 70.226562 177.699219 70.851562 179.292969 71.074219 179.914062 C 71.117188 180.03125 70.914062 180.257812 71.242188 180.167969 C 71.128906 180.628906 71.253906 180.808594 71.242188 181.34375 C 71.691406 181.285156 71.960938 181.410156 72.25 181.511719 C 72.449219 180.921875 73.542969 181.949219 73.761719 181.34375 C 73.878906 181.589844 74.351562 181.484375 74.519531 181.679688 C 74.65625 181.277344 75.515625 181.296875 75.78125 181.59375 C 76.5625 181.183594 77.449219 181.851562 78.21875 181.511719 C 78.144531 181.679688 78.769531 181.742188 78.894531 181.511719 C 79.449219 181.792969 79.914062 181.917969 80.65625 181.765625 C 80.695312 182.351562 81.703125 181.5 82.085938 182.101562 C 82.953125 181.894531 85.042969 182.070312 85.449219 182.6875 C 85.734375 182.335938 85.898438 183.070312 86.207031 182.605469 C 86.511719 182.605469 86.476562 182.949219 86.710938 183.023438 C 87.003906 182.820312 87.695312 182.773438 87.804688 183.191406 C 88.347656 182.878906 88.628906 183.738281 89.066406 183.277344 C 89.125 183.710938 89.953125 183.394531 89.734375 183.695312 C 89.933594 183.722656 90.058594 183.683594 90.160156 183.613281 C 89.230469 183.039062 88.601562 182.050781 87.71875 181.34375 C 87.785156 180.710938 86.957031 180.335938 86.878906 179.578125 C 86.640625 179.511719 86.660156 179.699219 86.457031 179.664062 C 86.742188 179.390625 86.5625 178.921875 86.121094 178.90625 C 86.355469 178.613281 86.097656 178.25 85.785156 178.234375 C 85.890625 177.816406 85.523438 177.3125 85.28125 176.976562 C 85.429688 176.390625 85.324219 175.917969 85.113281 175.378906 C 85.171875 174.691406 85.425781 173.347656 85.113281 173.027344 C 85.46875 172.011719 85.234375 170.605469 85.785156 169.5 C 86.046875 169.460938 86.160156 169.570312 86.121094 169.835938 C 86.292969 169.78125 86.144531 169.410156 86.457031 169.5 C 86.394531 169.785156 86.800781 169.605469 86.710938 169.917969 C 86.835938 169.605469 87.035156 169.816406 87.300781 169.414062 C 87.65625 169.488281 87.546875 169.84375 87.96875 169.667969 C 89.34375 170.792969 91.136719 171.925781 91.925781 173.363281 C 92.8125 173.613281 92.9375 174.597656 93.265625 175.128906 C 93.492188 175.484375 94.101562 175.804688 94.023438 176.300781 C 94.707031 176.710938 95.050781 177.8125 95.117188 178.570312 C 95.769531 178.886719 95.816406 179.933594 95.875 180.839844 C 95.886719 180.9375 96.027344 180.910156 96.125 180.925781 C 96.136719 181.804688 96.117188 182.730469 96.460938 183.277344 C 96.160156 183.433594 96.34375 183.640625 96.125 183.78125 C 96.070312 184.007812 96.300781 183.941406 96.378906 184.03125 C 96.359375 184.152344 96.128906 184.0625 96.125 184.199219 C 96.207031 184.4375 96.351562 184.078125 96.460938 184.285156 C 96.25 184.546875 96.007812 184.78125 95.960938 185.207031 C 96.074219 185.484375 96.632812 185.320312 96.628906 185.710938 C 97.027344 185.832031 97.398438 185.640625 97.386719 185.964844 C 97.96875 185.925781 99.085938 186.175781 99.488281 186.804688 C 99.75 186.867188 99.652344 186.574219 99.910156 186.636719 C 100.933594 187.292969 102.1875 187.722656 102.683594 188.90625 C 101.398438 189.398438 100.425781 188.652344 99.488281 188.820312 C 99.445312 188.695312 99.367188 188.609375 99.320312 188.484375 C 98.355469 188.597656 97.757812 187.785156 96.800781 187.894531 C 96.625 187.5 96.183594 187.453125 95.707031 187.558594 C 95.664062 187.300781 94.660156 187.332031 94.53125 186.886719 C 94.285156 186.867188 94.269531 187.078125 94.023438 187.054688 C 94.070312 186.988281 94.113281 186.921875 94.109375 186.804688 C 93.347656 186.972656 92.511719 186.519531 91.839844 186.132812 C 91.480469 186.324219 90.601562 186.097656 90.160156 185.710938 C 89.976562 186.070312 89.847656 185.648438 89.652344 185.542969 C 89.578125 185.582031 89.503906 185.617188 89.484375 185.710938 C 88.855469 185.164062 87.875 185.582031 87.128906 184.871094 C 86.972656 184.90625 86.917969 185.054688 86.710938 185.039062 C 86.734375 184.902344 86.628906 184.894531 86.625 184.789062 C 86.363281 184.859375 86.210938 185.089844 86.121094 184.703125 C 85.855469 184.664062 85.898438 184.992188 85.699219 184.789062 C 85.839844 186.226562 85.324219 187.839844 85.113281 188.484375 C 85.078125 188.597656 85.125 188.710938 85.113281 188.820312 C 84.988281 188.863281 84.902344 188.945312 84.777344 188.988281 C 84.941406 189.746094 84.132812 190.09375 83.933594 190.753906 C 83.851562 190.75 83.871094 190.648438 83.851562 190.585938 C 83.683594 190.609375 83.6875 190.8125 83.515625 190.835938 C 83.730469 191.566406 82.480469 192.058594 81.917969 192.683594 C 81.65625 192.972656 81.515625 193.25 81.164062 193.523438 C 81.011719 193.535156 80.984375 193.421875 80.824219 193.441406 C 80.683594 194.214844 79.222656 195.136719 78.722656 195.035156 C 78.085938 196.121094 76.699219 196.121094 76.285156 196.800781 C 76.171875 197.09375 75.988281 196.425781 76.035156 196.96875 C 75.300781 196.691406 75.378906 197.65625 74.855469 197.304688 C 74.796875 198 73.359375 197.320312 73.175781 197.726562 C 72.9375 197.597656 72.738281 197.4375 72.503906 197.304688 C 72.484375 196.679688 72.445312 195.601562 72.921875 195.035156 C 72.613281 194.886719 72.875 194.203125 73.09375 194.367188 C 73.105469 193.191406 73.574219 191.851562 74.269531 191.089844 C 74.230469 190.929688 74.085938 190.878906 74.097656 190.667969 C 74.421875 190.683594 74.132812 190.601562 74.183594 190.417969 C 74.425781 190.324219 74.535156 190.097656 74.855469 190.082031 C 74.820312 189.976562 74.746094 189.90625 74.605469 189.914062 C 74.695312 189.597656 74.816406 189.628906 75.023438 189.578125 C 74.796875 189.457031 74.925781 189.363281 75.023438 189.15625 C 75.117188 189.175781 75.082031 189.324219 75.191406 189.324219 C 75.441406 189.25 74.996094 189.199219 75.109375 188.988281 C 75.300781 188.761719 75.628906 188.671875 75.613281 188.234375 C 75.800781 188.1875 75.734375 188.394531 75.863281 188.402344 C 75.917969 188.046875 76.074219 187.53125 76.621094 187.476562 C 76.585938 187.351562 76.511719 187.507812 76.367188 187.476562 C 76.40625 187.316406 76.609375 187.324219 76.539062 187.054688 C 76.710938 187.019531 76.757812 187.113281 76.875 187.140625 C 76.53125 186.6875 77.410156 186.625 77.128906 186.214844 C 77.375 186.234375 77.410156 185.90625 77.632812 186.132812 L 77.632812 185.542969 C 77.996094 185.546875 78.292969 185.421875 78.132812 185.125 C 78.621094 185.226562 78.828125 184.957031 78.640625 184.621094 C 79.011719 184.914062 78.757812 184.191406 79.144531 184.453125 C 79.167969 184.335938 79.3125 184.0625 79.5625 183.949219 C 79.390625 183.84375 79.207031 183.742188 79.058594 183.613281 C 78.980469 183.671875 78.933594 183.765625 78.894531 183.863281 C 78.78125 183.78125 78.640625 183.726562 78.554688 183.613281 C 78.476562 183.671875 78.429688 183.765625 78.386719 183.863281 C 77.699219 183.3125 77.257812 184.082031 76.621094 183.527344 C 76.460938 183.5625 76.410156 183.707031 76.203125 183.695312 C 76.246094 183.628906 76.289062 183.558594 76.285156 183.445312 C 75.226562 183.800781 74.480469 183.609375 73.425781 183.359375 C 73.324219 183.398438 73.253906 183.46875 73.257812 183.613281 C 71.738281 183.597656 70.394531 183.222656 68.550781 183.445312 C 68.574219 183.308594 68.472656 183.300781 68.46875 183.191406 C 68.167969 183.148438 68.261719 183.488281 67.960938 183.445312 C 67.792969 183.097656 67.355469 183.609375 67.292969 183.277344 C 67.074219 183.578125 66.746094 183.296875 66.367188 183.277344 C 65.398438 183.222656 64.035156 183.710938 63.421875 183.109375 C 63.1875 183.09375 63.210938 183.34375 63.085938 183.445312 C 62.101562 183.292969 60.898438 183.390625 59.640625 183.445312 C 59.769531 184.53125 59.5 185.441406 59.136719 186.46875 C 59.453125 187.238281 58.597656 188.410156 58.796875 188.988281 C 58.425781 189.308594 58.316406 190.039062 58.210938 190.5 C 58.117188 190.480469 58.152344 190.332031 58.042969 190.332031 C 57.8125 190.410156 58.265625 190.488281 58.125 190.753906 C 57.785156 190.726562 58.082031 190.929688 58.042969 191.089844 C 57.234375 191.777344 57.433594 193.042969 56.277344 193.609375 C 56.550781 194.574219 55.09375 195.214844 54.929688 196.296875 C 54.667969 196.390625 54.742188 196.304688 54.425781 196.296875 C 54.363281 196.554688 54.65625 196.457031 54.59375 196.71875 C 54.175781 196.902344 53.933594 197.660156 53.417969 197.472656 C 53.421875 197.953125 53.089844 198.097656 52.996094 198.480469 C 52.640625 198.488281 52.441406 198.652344 52.410156 198.984375 C 51.941406 198.941406 51.421875 199.28125 51.570312 199.574219 C 51.453125 199.945312 51.214844 199.335938 51.148438 199.824219 C 51 199.75 50.996094 199.53125 50.894531 199.40625 C 50.628906 199.363281 50.863281 199.824219 50.558594 199.742188 C 50.417969 199.257812 50.257812 199.207031 49.886719 199.070312 C 50.328125 198.738281 49.414062 198.21875 49.886719 197.808594 C 49.59375 196.160156 49.714844 192.964844 50.894531 191.507812 C 50.90625 191.359375 50.792969 191.332031 50.8125 191.171875 C 51.480469 190.550781 51.25 189.671875 51.988281 189.15625 C 51.902344 188.546875 52.277344 188.113281 52.660156 188.148438 C 52.421875 187.539062 52.90625 187.242188 53.335938 187.054688 C 53.332031 186.890625 53.105469 186.949219 53.164062 186.71875 C 53.5625 186.582031 53.46875 185.957031 54.007812 185.964844 C 53.777344 185.601562 54.226562 185.769531 54.175781 185.375 C 54.324219 185.367188 54.351562 185.480469 54.511719 185.460938 C 54.574219 185.203125 54.222656 185.359375 54.34375 185.039062 C 55.222656 184.910156 55.371094 184.050781 56.105469 183.78125 C 56.132812 183.476562 55.738281 183.585938 55.605469 183.445312 C 54.597656 183.914062 53.355469 183.640625 52.242188 184.03125 C 51.496094 183.84375 50.257812 184.605469 49.382812 184.199219 C 49.210938 184.222656 49.214844 184.425781 49.128906 184.535156 C 45.402344 184.898438 40.75 186.28125 37.191406 187.222656 C 36.996094 187.820312 37.328125 188.210938 37.273438 188.820312 C 36.730469 188.6875 37.128906 190.039062 37.109375 190.164062 C 37.0625 190.453125 36.660156 190.734375 36.605469 191.089844 C 36.558594 191.359375 36.726562 192.339844 36.097656 192.683594 C 36.453125 192.902344 36.023438 193.578125 35.929688 193.441406 C 35.976562 193.507812 36.019531 193.578125 36.015625 193.691406 L 35.679688 193.691406 C 35.714844 193.796875 35.785156 193.867188 35.929688 193.859375 C 35.828125 194.179688 35.589844 194.359375 35.257812 194.449219 C 35.257812 194.617188 35.488281 194.554688 35.425781 194.785156 C 34.855469 195.089844 34.757812 196.289062 34.082031 196.214844 C 34.203125 196.46875 34.105469 196.652344 34 196.886719 C 33.46875 196.949219 33.160156 197.382812 33.238281 197.808594 C 33.007812 197.902344 32.800781 198.316406 32.566406 198.144531 C 32.488281 198.214844 32.285156 198.578125 32.484375 198.648438 C 32.171875 198.746094 31.511719 199.46875 31.222656 199.742188 C 30.359375 199.914062 29.066406 202.195312 27.691406 201.253906 C 27.375 200.347656 27.320312 199.214844 27.945312 198.734375 C 27.886719 198.566406 27.6875 198.542969 27.609375 198.398438 C 27.644531 198.273438 27.679688 198.40625 27.777344 198.398438 C 28.183594 195.664062 29.136719 192.542969 30.71875 190.25 L 31.054688 190.25 C 30.699219 190.070312 31.058594 189.878906 31.140625 189.660156 C 30.953125 189.78125 30.695312 189.835938 30.636719 190.082031 C 29.425781 190.195312 28.621094 191.144531 27.609375 191.171875 C 27.503906 191.210938 27.4375 191.28125 27.4375 191.425781 C 26.765625 191.484375 25.925781 191.789062 25.507812 192.179688 C 24.21875 192.605469 22.628906 193.445312 21.472656 194.28125 C 21.621094 194.839844 20.96875 194.769531 20.964844 195.375 C 20.707031 195.386719 20.359375 196.121094 19.789062 195.792969 C 19.824219 195.898438 19.898438 195.964844 20.042969 195.960938 C 19.703125 196.367188 18.648438 196.027344 18.109375 196.550781 C 16.929688 196.550781 15.675781 196.769531 14.660156 196.550781 C 14.464844 196.875 14.152344 196.558594 13.820312 196.71875 C 13.832031 196.566406 13.71875 196.539062 13.734375 196.382812 C 13.65625 196.523438 13.394531 196.644531 13.566406 196.382812 C 13.308594 196.320312 13.40625 196.613281 13.148438 196.550781 C 12.695312 196.117188 12.152344 195.925781 11.632812 196.128906 C 11.261719 195.753906 10.566406 195.84375 10.289062 195.710938 C 10.175781 195.65625 10.222656 195.453125 10.203125 195.457031 C 10.125 195.472656 9.746094 195.746094 9.699219 195.289062 C 9.039062 195.472656 8.855469 195.011719 8.273438 194.785156 C 8.359375 194.445312 8.339844 194.082031 8.1875 193.777344 C 8.171875 193.59375 8.484375 193.738281 8.609375 193.691406 C 8.535156 193.570312 8.480469 193.425781 8.273438 193.441406 C 8.640625 192.96875 9.6875 193.175781 9.699219 192.347656 C 9.796875 192.335938 9.851562 192.367188 9.867188 192.433594 C 9.972656 192.257812 9.804688 192.3125 10.203125 192.347656 " fill-opacity="1" fill-rule="evenodd"/></g><g clip-path="url(#60813f7b73)"><path fill="#f8b30d" d="M 364.792969 184.46875 C 364.78125 184.59375 364.71875 184.734375 364.542969 184.886719 C 364.273438 184.75 364.1875 184.742188 363.867188 184.804688 C 363.773438 184.878906 363.875 184.992188 363.699219 185.140625 C 363.285156 185.203125 363.191406 185.203125 362.777344 185.140625 C 362.652344 185.175781 362.808594 185.246094 362.777344 185.390625 C 362.429688 185.457031 362.34375 185.261719 362.019531 185.308594 C 361.910156 185.335938 361.886719 185.457031 361.765625 185.476562 C 362.027344 185.933594 360.796875 185.429688 360.253906 185.726562 C 360.296875 185.796875 360.339844 185.863281 360.335938 185.980469 C 359.574219 186.273438 358.84375 185.769531 358.402344 186.0625 C 358.300781 186.027344 358.230469 185.957031 358.234375 185.8125 C 357.421875 186.15625 356.6875 185.148438 355.882812 185.308594 C 355.496094 184.898438 355.058594 184.898438 354.535156 184.804688 C 354.519531 184.429688 354.097656 184.457031 353.949219 184.214844 C 352.535156 184.90625 351.472656 185.941406 349.742188 186.316406 C 347.644531 187.382812 345.203125 188.554688 343.019531 189.257812 C 342.292969 189.859375 341.332031 190.148438 340.496094 190.515625 C 339.308594 191.039062 337.910156 191.335938 336.796875 191.859375 C 335.1875 192.117188 333.902344 192.699219 332.761719 192.785156 C 332.835938 192.933594 332.949219 193.046875 333.097656 193.121094 C 333.882812 192.640625 334.273438 193.734375 335.113281 193.539062 C 335.457031 194.042969 337.054688 194.246094 336.378906 194.550781 C 336.519531 194.628906 336.546875 194.828125 336.714844 194.886719 C 336.921875 194.898438 336.976562 194.757812 337.050781 194.632812 C 337.394531 194.761719 337.550781 195.085938 337.972656 195.136719 C 338 195.332031 337.960938 195.460938 337.890625 195.558594 C 338.121094 195.566406 338.058594 195.417969 338.226562 195.558594 C 338.191406 195.480469 338.152344 195.40625 338.058594 195.390625 C 338.125 195.308594 338.882812 195.578125 338.644531 195.808594 L 338.984375 195.808594 C 338.945312 195.882812 338.910156 195.960938 338.816406 195.976562 C 338.933594 196.074219 339.304688 195.96875 339.066406 196.3125 C 339.324219 196.375 339.3125 196.167969 339.574219 196.230469 C 339.65625 196.695312 339.765625 196.632812 339.910156 196.984375 C 340.054688 196.910156 340.328125 196.957031 340.414062 196.816406 C 340.609375 197.433594 341.421875 197.457031 341.335938 198.160156 C 341.433594 198.089844 341.5625 198.050781 341.757812 198.078125 C 341.734375 198.296875 341.730469 198.496094 342.007812 198.414062 C 341.804688 198.921875 342.59375 198.769531 342.175781 199 C 343.347656 199.804688 343.894531 201.539062 344.617188 202.53125 C 344.546875 202.515625 344.53125 202.445312 344.449219 202.445312 C 344.394531 202.777344 344.636719 202.816406 344.867188 202.867188 C 344.945312 203.519531 344.976562 204.039062 345.035156 204.796875 C 344.8125 204.601562 344.835938 205.15625 344.699219 205.300781 C 344.464844 205.34375 344.132812 205.011719 344.195312 205.472656 C 343.699219 205.273438 343.605469 204.589844 343.101562 204.632812 C 343.203125 204.277344 342.96875 204.261719 342.933594 204.042969 C 342.308594 204.480469 341.953125 203.996094 341.421875 204.125 C 341.273438 203.957031 341.484375 203.960938 341.335938 203.789062 C 341.078125 203.730469 341.03125 203.875 340.832031 203.875 C 341.285156 203.609375 340.359375 203.417969 340.074219 203.621094 C 339.996094 203.167969 339.632812 203.21875 339.320312 203.367188 C 339.257812 202.917969 338.664062 202.917969 338.394531 203.117188 C 338.253906 202.917969 337.648438 202.390625 337.46875 202.78125 C 337.316406 202.488281 336.800781 202.25 336.628906 202.445312 C 336.605469 202.136719 335.828125 202.070312 335.535156 202.023438 C 335.316406 201.878906 335.203125 201.628906 335.03125 201.4375 C 334.261719 201.894531 334.113281 200.589844 333.183594 200.679688 C 333.023438 200.472656 332.917969 200.214844 332.761719 200.007812 C 332.589844 200.515625 332.367188 199.816406 331.835938 199.421875 C 331.40625 199.101562 330.789062 198.957031 330.574219 198.664062 C 330.460938 198.507812 330.542969 198.28125 330.40625 198.160156 C 330.136719 197.921875 329.628906 198.148438 329.734375 197.65625 C 329.328125 197.679688 328.777344 197.171875 328.726562 196.566406 L 328.054688 196.566406 C 327.910156 196.148438 327.71875 195.78125 327.296875 195.640625 C 327.453125 195.480469 327.308594 195.429688 327.296875 195.222656 C 326.800781 195.425781 326.71875 194.671875 326.707031 194.128906 C 325.90625 194.277344 325.3125 194.136719 324.941406 194.550781 C 322.417969 194.667969 319.046875 195.363281 316.367188 195.472656 C 316.152344 195.4375 315.980469 195.355469 315.863281 195.222656 C 315.6875 195.722656 314.304688 195.183594 314.015625 195.558594 C 312.800781 195.363281 311.097656 195.617188 310.0625 195.558594 C 310.6875 195.941406 311.171875 196.460938 311.910156 196.734375 C 312.207031 197.167969 312.558594 197.890625 313.171875 197.742188 C 313.023438 198.292969 313.75 198.09375 313.511719 198.496094 C 313.660156 198.507812 313.6875 198.394531 313.847656 198.414062 C 313.550781 198.695312 313.964844 198.855469 314.265625 199 C 314.300781 199.175781 314.210938 199.222656 314.183594 199.335938 C 314.917969 199.25 314.675781 200.269531 315.441406 200.429688 C 315.371094 200.664062 315.5625 200.644531 315.527344 200.851562 C 316.308594 201.496094 316.523438 202.710938 317.207031 203.453125 C 317.195312 203.808594 317.109375 204.207031 317.546875 204.292969 C 317.289062 204.410156 317.792969 204.800781 317.375 204.796875 C 317.707031 204.992188 318.050781 205.296875 317.710938 205.722656 C 317.792969 205.835938 317.9375 205.890625 318.046875 205.972656 C 318.164062 206.816406 317.738281 207.546875 317.460938 208.242188 C 317.15625 208.320312 317.34375 207.910156 317.292969 207.738281 C 317.109375 207.832031 317.289062 208.292969 317.042969 208.324219 C 316.769531 208.34375 316.902344 207.960938 316.621094 207.992188 C 315.882812 208.425781 315.023438 208.503906 314.433594 207.90625 C 314.308594 208.023438 314.253906 208.175781 314.265625 207.820312 C 314.039062 207.917969 313.859375 207.871094 314.015625 207.65625 C 313.847656 207.65625 313.90625 207.882812 313.675781 207.820312 C 313.6875 207.671875 313.574219 207.644531 313.59375 207.484375 C 313.460938 207.492188 313.273438 207.445312 313.257812 207.570312 C 312.195312 206.894531 311.199219 206.152344 309.976562 205.636719 C 309.917969 205.445312 309.902344 205.207031 309.8125 205.050781 C 309.546875 205.226562 309.507812 205.207031 309.476562 204.796875 C 309.398438 204.863281 309.285156 204.886719 309.136719 204.882812 C 308.726562 203.824219 307.746094 203.648438 307.457031 202.613281 C 306.699219 202.34375 306.277344 201.347656 306.109375 200.597656 C 305.816406 200.472656 305.378906 200.046875 305.523438 199.757812 C 304.773438 199.117188 304.148438 197.523438 303.925781 196.902344 C 303.882812 196.785156 304.085938 196.558594 303.757812 196.648438 C 303.867188 196.1875 303.742188 196.007812 303.757812 195.472656 C 303.304688 195.53125 303.039062 195.40625 302.75 195.304688 C 302.546875 195.894531 301.453125 194.871094 301.234375 195.472656 C 301.117188 195.226562 300.644531 195.332031 300.480469 195.136719 C 300.34375 195.539062 299.480469 195.519531 299.214844 195.222656 C 298.433594 195.632812 297.550781 194.964844 296.78125 195.304688 C 296.855469 195.136719 296.226562 195.074219 296.105469 195.304688 C 295.550781 195.023438 295.085938 194.898438 294.339844 195.054688 C 294.304688 194.464844 293.296875 195.316406 292.914062 194.71875 C 292.046875 194.921875 289.953125 194.75 289.550781 194.128906 C 289.261719 194.480469 289.097656 193.746094 288.792969 194.210938 C 288.488281 194.210938 288.523438 193.867188 288.289062 193.792969 C 287.996094 194 287.304688 194.042969 287.195312 193.625 C 286.652344 193.941406 286.371094 193.082031 285.933594 193.539062 C 285.871094 193.105469 285.046875 193.421875 285.261719 193.121094 C 285.066406 193.09375 284.9375 193.132812 284.839844 193.203125 C 285.765625 193.777344 286.394531 194.765625 287.277344 195.472656 C 287.210938 196.105469 288.039062 196.480469 288.121094 197.238281 C 288.359375 197.308594 288.339844 197.121094 288.539062 197.152344 C 288.257812 197.425781 288.433594 197.894531 288.878906 197.910156 C 288.644531 198.203125 288.902344 198.566406 289.214844 198.582031 C 289.105469 199.003906 289.476562 199.503906 289.71875 199.84375 C 289.570312 200.425781 289.671875 200.898438 289.882812 201.4375 C 289.828125 202.125 289.570312 203.472656 289.882812 203.789062 C 289.527344 204.804688 289.761719 206.210938 289.214844 207.316406 C 288.949219 207.355469 288.835938 207.246094 288.878906 206.980469 C 288.707031 207.035156 288.851562 207.40625 288.539062 207.316406 C 288.605469 207.03125 288.199219 207.210938 288.289062 206.898438 C 288.164062 207.210938 287.964844 207 287.699219 207.402344 C 287.34375 207.328125 287.453125 206.972656 287.027344 207.152344 C 285.65625 206.023438 283.859375 204.890625 283.074219 203.453125 C 282.1875 203.203125 282.058594 202.21875 281.730469 201.691406 C 281.507812 201.335938 280.894531 201.015625 280.972656 200.515625 C 280.289062 200.105469 279.945312 199.003906 279.882812 198.246094 C 279.226562 197.929688 279.183594 196.882812 279.125 195.976562 C 279.109375 195.878906 278.96875 195.90625 278.871094 195.894531 C 278.859375 195.011719 278.878906 194.089844 278.535156 193.539062 C 278.839844 193.386719 278.65625 193.175781 278.871094 193.035156 C 278.929688 192.8125 278.699219 192.875 278.617188 192.785156 C 278.636719 192.664062 278.871094 192.757812 278.871094 192.617188 C 278.789062 192.382812 278.648438 192.738281 278.535156 192.53125 C 278.746094 192.269531 278.992188 192.035156 279.039062 191.609375 C 278.925781 191.332031 278.363281 191.496094 278.367188 191.105469 C 277.96875 190.984375 277.601562 191.175781 277.613281 190.851562 C 277.03125 190.890625 275.914062 190.640625 275.507812 190.011719 C 275.25 189.949219 275.347656 190.242188 275.089844 190.179688 C 274.0625 189.523438 272.808594 189.097656 272.3125 187.914062 C 273.597656 187.417969 274.570312 188.167969 275.507812 187.996094 C 275.554688 188.121094 275.632812 188.207031 275.675781 188.332031 C 276.644531 188.21875 277.238281 189.03125 278.199219 188.921875 C 278.375 189.316406 278.816406 189.363281 279.292969 189.257812 C 279.335938 189.515625 280.335938 189.484375 280.46875 189.929688 C 280.714844 189.949219 280.726562 189.738281 280.972656 189.761719 C 280.929688 189.828125 280.886719 189.898438 280.890625 190.011719 C 281.652344 189.84375 282.488281 190.296875 283.160156 190.683594 C 283.519531 190.492188 284.398438 190.71875 284.839844 191.105469 C 285.019531 190.75 285.152344 191.171875 285.347656 191.273438 C 285.421875 191.234375 285.496094 191.199219 285.511719 191.105469 C 286.140625 191.65625 287.125 191.234375 287.867188 191.945312 C 288.027344 191.910156 288.078125 191.761719 288.289062 191.777344 C 288.261719 191.914062 288.367188 191.921875 288.371094 192.027344 C 288.632812 191.957031 288.789062 191.726562 288.878906 192.113281 C 289.140625 192.15625 289.097656 191.824219 289.296875 192.027344 C 289.160156 190.589844 289.671875 188.976562 289.882812 188.332031 C 289.921875 188.222656 289.871094 188.105469 289.882812 187.996094 C 290.007812 187.953125 290.097656 187.871094 290.21875 187.828125 C 290.058594 187.070312 290.863281 186.722656 291.0625 186.0625 C 291.144531 186.066406 291.128906 186.167969 291.148438 186.230469 C 291.316406 186.207031 291.3125 186.003906 291.484375 185.980469 C 291.265625 185.25 292.519531 184.757812 293.078125 184.132812 C 293.339844 183.84375 293.480469 183.566406 293.835938 183.292969 C 293.988281 183.28125 294.015625 183.394531 294.171875 183.375 C 294.316406 182.601562 295.773438 181.679688 296.273438 181.78125 C 296.910156 180.695312 298.296875 180.695312 298.714844 180.015625 C 298.828125 179.722656 299.007812 180.394531 298.964844 179.847656 C 299.695312 180.128906 299.617188 179.160156 300.140625 179.511719 C 300.203125 178.816406 301.640625 179.5 301.824219 179.089844 C 302.058594 179.21875 302.261719 179.378906 302.496094 179.511719 C 302.515625 180.136719 302.554688 181.21875 302.074219 181.78125 C 302.386719 181.933594 302.121094 182.613281 301.90625 182.453125 C 301.894531 183.625 301.425781 184.964844 300.730469 185.726562 C 300.765625 185.886719 300.910156 185.9375 300.898438 186.148438 C 300.574219 186.132812 300.867188 186.21875 300.816406 186.398438 C 300.570312 186.492188 300.460938 186.71875 300.140625 186.734375 C 300.179688 186.839844 300.25 186.910156 300.394531 186.902344 C 300.300781 187.21875 300.179688 187.1875 299.972656 187.242188 C 300.203125 187.359375 300.070312 187.453125 299.972656 187.660156 C 299.882812 187.640625 299.917969 187.492188 299.804688 187.492188 C 299.554688 187.566406 300 187.617188 299.890625 187.828125 C 299.695312 188.054688 299.367188 188.148438 299.386719 188.585938 C 299.199219 188.628906 299.265625 188.425781 299.132812 188.417969 C 299.078125 188.773438 298.925781 189.285156 298.375 189.339844 C 298.414062 189.464844 298.484375 189.308594 298.628906 189.339844 C 298.59375 189.5 298.386719 189.492188 298.460938 189.761719 C 298.285156 189.796875 298.238281 189.703125 298.125 189.675781 C 298.46875 190.128906 297.589844 190.191406 297.871094 190.601562 C 297.621094 190.582031 297.585938 190.910156 297.367188 190.683594 L 297.367188 191.273438 C 297 191.273438 296.707031 191.398438 296.863281 191.691406 C 296.378906 191.589844 296.171875 191.859375 296.359375 192.195312 C 295.984375 191.90625 296.238281 192.625 295.855469 192.363281 C 295.828125 192.480469 295.683594 192.753906 295.433594 192.867188 C 295.609375 192.972656 295.789062 193.074219 295.9375 193.203125 C 296.015625 193.144531 296.066406 193.050781 296.105469 192.953125 C 296.21875 193.035156 296.359375 193.089844 296.445312 193.203125 C 296.519531 193.144531 296.570312 193.050781 296.609375 192.953125 C 297.300781 193.503906 297.742188 192.734375 298.375 193.289062 C 298.539062 193.253906 298.585938 193.109375 298.796875 193.121094 C 298.75 193.1875 298.707031 193.257812 298.714844 193.371094 C 299.769531 193.015625 300.519531 193.207031 301.570312 193.457031 C 301.675781 193.421875 301.746094 193.347656 301.738281 193.203125 C 303.261719 193.21875 304.605469 193.59375 306.445312 193.371094 C 306.425781 193.507812 306.527344 193.519531 306.53125 193.625 C 306.828125 193.671875 306.738281 193.328125 307.035156 193.371094 C 307.207031 193.71875 307.640625 193.207031 307.707031 193.539062 C 307.921875 193.238281 308.253906 193.519531 308.632812 193.539062 C 309.597656 193.59375 310.960938 193.105469 311.574219 193.707031 C 311.8125 193.722656 311.789062 193.472656 311.910156 193.371094 C 312.894531 193.523438 314.097656 193.425781 315.359375 193.371094 C 315.226562 192.285156 315.496094 191.375 315.863281 190.347656 C 315.542969 189.578125 316.402344 188.40625 316.199219 187.828125 C 316.574219 187.507812 316.683594 186.777344 316.789062 186.316406 C 316.878906 186.335938 316.84375 186.484375 316.957031 186.484375 C 317.183594 186.40625 316.734375 186.328125 316.871094 186.0625 C 317.214844 186.089844 316.917969 185.886719 316.957031 185.726562 C 317.761719 185.039062 317.566406 183.773438 318.722656 183.207031 C 318.449219 182.242188 319.902344 181.601562 320.066406 180.519531 C 320.332031 180.425781 320.257812 180.511719 320.570312 180.519531 C 320.632812 180.261719 320.339844 180.359375 320.402344 180.097656 C 320.824219 179.914062 321.0625 179.15625 321.582031 179.34375 C 321.578125 178.863281 321.910156 178.71875 322 178.335938 C 322.355469 178.328125 322.558594 178.164062 322.589844 177.832031 C 323.054688 177.875 323.578125 177.535156 323.429688 177.242188 C 323.546875 176.871094 323.785156 177.480469 323.847656 176.992188 C 323.996094 177.066406 324.003906 177.285156 324.101562 177.410156 C 324.367188 177.453125 324.132812 176.992188 324.4375 177.074219 C 324.578125 177.558594 324.742188 177.609375 325.113281 177.746094 C 324.667969 178.078125 325.585938 178.597656 325.113281 179.007812 C 325.402344 180.65625 325.285156 183.851562 324.101562 185.308594 C 324.09375 185.457031 324.203125 185.484375 324.1875 185.644531 C 323.519531 186.265625 323.75 187.148438 323.007812 187.660156 C 323.097656 188.269531 322.722656 188.703125 322.335938 188.667969 C 322.578125 189.277344 322.089844 189.574219 321.664062 189.761719 C 321.664062 189.925781 321.894531 189.867188 321.832031 190.097656 C 321.4375 190.234375 321.53125 190.859375 320.992188 190.851562 C 321.21875 191.21875 320.769531 191.046875 320.824219 191.441406 C 320.671875 191.453125 320.644531 191.339844 320.488281 191.355469 C 320.425781 191.617188 320.777344 191.457031 320.65625 191.777344 C 319.777344 191.90625 319.625 192.765625 318.890625 193.035156 C 318.867188 193.339844 319.257812 193.230469 319.394531 193.371094 C 320.398438 192.902344 321.644531 193.179688 322.757812 192.785156 C 323.503906 192.972656 324.738281 192.214844 325.617188 192.617188 C 325.789062 192.59375 325.785156 192.390625 325.867188 192.28125 C 329.597656 191.917969 334.246094 190.535156 337.808594 189.59375 C 338.003906 189 337.667969 188.605469 337.722656 187.996094 C 338.265625 188.128906 337.871094 186.777344 337.890625 186.652344 C 337.9375 186.363281 338.339844 186.082031 338.394531 185.726562 C 338.4375 185.457031 338.269531 184.476562 338.898438 184.132812 C 338.546875 183.914062 338.972656 183.238281 339.066406 183.375 C 339.023438 183.308594 338.980469 183.238281 338.984375 183.125 L 339.320312 183.125 C 339.28125 183.019531 339.210938 182.949219 339.066406 182.957031 C 339.171875 182.636719 339.410156 182.457031 339.738281 182.367188 C 339.738281 182.199219 339.511719 182.261719 339.574219 182.03125 C 340.144531 181.726562 340.242188 180.527344 340.917969 180.601562 C 340.792969 180.347656 340.894531 180.164062 341 179.929688 C 341.53125 179.871094 341.839844 179.433594 341.757812 179.007812 C 341.988281 178.914062 342.199219 178.5 342.429688 178.671875 C 342.507812 178.601562 342.710938 178.238281 342.515625 178.167969 C 342.824219 178.070312 343.484375 177.347656 343.773438 177.074219 C 344.636719 176.902344 345.929688 174.621094 347.304688 175.5625 C 347.625 176.46875 347.679688 177.601562 347.054688 178.082031 C 347.109375 178.25 347.308594 178.277344 347.390625 178.417969 C 347.351562 178.542969 347.316406 178.410156 347.222656 178.417969 C 346.816406 181.152344 345.859375 184.273438 344.28125 186.570312 L 343.945312 186.570312 C 344.300781 186.746094 343.9375 186.9375 343.859375 187.15625 C 344.046875 187.035156 344.300781 186.984375 344.363281 186.734375 C 345.570312 186.625 346.375 185.671875 347.390625 185.644531 C 347.492188 185.605469 347.5625 185.535156 347.558594 185.390625 C 348.230469 185.335938 349.070312 185.027344 349.492188 184.636719 C 350.777344 184.210938 352.371094 183.371094 353.527344 182.535156 C 353.375 181.976562 354.027344 182.046875 354.03125 181.445312 C 354.292969 181.429688 354.636719 180.699219 355.210938 181.023438 C 355.171875 180.921875 355.101562 180.851562 354.957031 180.855469 C 355.292969 180.449219 356.347656 180.789062 356.890625 180.269531 C 358.070312 180.265625 359.324219 180.046875 360.335938 180.269531 C 360.53125 179.941406 360.847656 180.257812 361.179688 180.101562 C 361.167969 180.25 361.28125 180.277344 361.261719 180.4375 C 361.339844 180.292969 361.605469 180.171875 361.429688 180.4375 C 361.6875 180.5 361.59375 180.203125 361.851562 180.269531 C 362.304688 180.699219 362.847656 180.890625 363.363281 180.6875 C 363.738281 181.0625 364.433594 180.972656 364.707031 181.109375 C 364.824219 181.164062 364.777344 181.363281 364.792969 181.359375 C 364.871094 181.34375 365.253906 181.070312 365.296875 181.527344 C 365.960938 181.347656 366.144531 181.804688 366.726562 182.03125 C 366.640625 182.375 366.65625 182.734375 366.8125 183.039062 C 366.824219 183.222656 366.511719 183.078125 366.390625 183.125 C 366.464844 183.246094 366.515625 183.390625 366.726562 183.375 C 366.359375 183.847656 365.308594 183.640625 365.296875 184.46875 C 365.199219 184.480469 365.148438 184.449219 365.128906 184.382812 C 365.027344 184.558594 365.191406 184.503906 364.792969 184.46875 " fill-opacity="1" fill-rule="evenodd"/></g></svg>