<svg xmlns="http://www.w3.org/2000/svg" xmlns:xlink="http://www.w3.org/1999/xlink" width="500" zoomAndPan="magnify" viewBox="0 0 375 374.999991" height="500" preserveAspectRatio="xMidYMid meet" version="1.0"><defs><g/><clipPath id="f7a088098d"><path d="M 21.324219 145.109375 L 63 145.109375 L 63 229.824219 L 21.324219 229.824219 Z M 21.324219 145.109375 " clip-rule="nonzero"/></clipPath><clipPath id="de0cd9280a"><path d="M 100 145.109375 L 141.324219 145.109375 L 141.324219 229.824219 L 100 229.824219 Z M 100 145.109375 " clip-rule="nonzero"/></clipPath></defs><g fill="#ffffff" fill-opacity="1"><g transform="translate(149.47419, 194.963733)"><g><path d="M 36.097656 -1.191406 C 34.203125 -1.570312 33.066406 -2.003906 32.09375 -3.898438 C 31.28125 -5.738281 30.414062 -8.171875 29.441406 -10.824219 L 21.105469 -33.878906 L 16.453125 -33.554688 L 7.632812 -10.5 C 6.441406 -7.359375 5.085938 -4.328125 4.222656 -2.328125 L 0.378906 -1.300781 L 0.59375 0.214844 L 6.222656 0 L 6.386719 0 L 6.386719 -0.0546875 L 11.796875 0.214844 L 12.015625 -1.246094 C 9.363281 -1.570312 7.253906 -2.054688 7.523438 -3.734375 C 8.117188 -5.464844 8.929688 -7.847656 9.851562 -10.230469 L 11.3125 -14.070312 C 11.960938 -14.070312 12.878906 -14.125 14.289062 -14.125 L 18.941406 -14.125 C 20.566406 -14.125 21.539062 -14.125 22.242188 -14.070312 L 23.324219 -10.824219 C 24.515625 -7.304688 25.328125 -4.277344 25.871094 -2.328125 L 21.429688 -1.300781 L 21.648438 0.214844 L 27.980469 0 L 32.203125 0 L 35.9375 0.269531 Z M 19.050781 -16.507812 L 12.230469 -16.507812 L 17.046875 -29.171875 L 21.378906 -16.507812 Z M 19.050781 -16.507812 "/></g></g></g><g fill="#ffffff" fill-opacity="1"><g transform="translate(185.94914, 194.963733)"><g><path d="M 17.15625 -31.496094 L 23.378906 -31.335938 L 26.085938 -25.871094 L 27.980469 -26.410156 L 26.953125 -33.988281 C 25.542969 -33.769531 23.324219 -33.609375 21.160156 -33.609375 L 7.199219 -33.609375 C 5.03125 -33.609375 2.8125 -33.769531 1.351562 -33.988281 L 0.378906 -26.410156 L 2.273438 -25.871094 L 4.816406 -31.335938 L 11.09375 -31.496094 C 11.148438 -31.011719 11.203125 -28.792969 11.203125 -26.84375 L 11.203125 -10.769531 C 11.203125 -7.902344 11.09375 -4.707031 10.988281 -2.328125 L 6.546875 -1.300781 L 6.765625 0.214844 L 13.097656 0 L 15.640625 0 L 21.378906 0.269531 L 21.539062 -1.191406 C 19.644531 -1.570312 17.320312 -1.894531 17.15625 -3.84375 C 17.101562 -5.738281 17.046875 -8.335938 17.046875 -10.769531 L 17.046875 -26.84375 C 17.046875 -28.792969 17.101562 -31.011719 17.15625 -31.496094 Z M 17.15625 -31.496094 "/></g></g></g><g fill="#ffffff" fill-opacity="1"><g transform="translate(214.306522, 194.963733)"><g><path d="M 26.355469 -8.171875 L 23.488281 -2.164062 L 12.339844 -1.894531 L 12.339844 -15.75 C 16.34375 -15.640625 18.996094 -15.53125 20.402344 -15.476562 L 21.105469 -12.5 L 22.730469 -12.71875 L 22.515625 -17.371094 L 22.675781 -20.566406 L 21 -20.78125 C 20.890625 -19.863281 20.675781 -17.96875 19.265625 -17.804688 C 17.914062 -17.695312 15.75 -17.695312 12.339844 -17.589844 L 12.339844 -31.660156 C 16.722656 -31.660156 20.457031 -31.550781 22.515625 -31.445312 L 24.355469 -25.976562 L 26.25 -26.519531 L 25.21875 -34.148438 C 23.8125 -33.933594 21.59375 -33.609375 19.429688 -33.609375 L 8.550781 -33.609375 L 2.109375 -33.878906 L 1.894531 -32.417969 C 3.789062 -32.039062 6.117188 -31.714844 6.332031 -29.820312 L 6.332031 -29.765625 C 6.441406 -27.816406 6.496094 -25.21875 6.496094 -22.785156 L 6.496094 -10.824219 C 6.496094 -7.683594 6.332031 -4.546875 6.167969 -2.273438 L 1.730469 -1.300781 L 1.949219 0.214844 L 8.28125 0 L 20.566406 0 C 22.839844 0.0546875 24.136719 0.269531 26.195312 0.488281 L 28.46875 -7.523438 Z M 26.355469 -8.171875 "/></g></g></g><g fill="#ffffff" fill-opacity="1"><g transform="translate(244.179181, 194.963733)"><g><path d="M 33.285156 -22.027344 C 33.285156 -25.273438 33.390625 -28.792969 33.390625 -31.28125 L 37.9375 -32.308594 L 37.722656 -33.824219 L 32.960938 -33.609375 L 31.117188 -33.609375 L 26.519531 -33.988281 L 26.300781 -32.527344 C 28.195312 -32.148438 30.523438 -31.769531 30.738281 -29.820312 C 30.792969 -27.710938 30.902344 -24.460938 30.957031 -20.835938 L 31.171875 -8.335938 C 28.628906 -10.769531 13.152344 -28.898438 9.578125 -33.609375 L 7.738281 -33.609375 L 2.003906 -33.878906 L 1.839844 -32.472656 C 3.679688 -32.09375 6.117188 -31.769531 6.222656 -29.875 L 6.222656 -29.765625 C 6.277344 -28.089844 6.332031 -25.542969 6.332031 -22.839844 L 6.332031 -11.636719 C 6.332031 -8.335938 6.222656 -4.816406 6.222656 -2.328125 L 1.730469 -1.300781 L 1.949219 0.214844 L 6.386719 0 L 8.441406 0 L 13.042969 0.324219 L 13.257812 -1.082031 C 11.363281 -1.515625 8.984375 -1.839844 8.820312 -3.789062 C 8.714844 -6.007812 8.605469 -9.472656 8.550781 -12.773438 L 8.335938 -25.921875 C 11.203125 -23.433594 30.847656 0 30.847656 0 L 33.554688 0 C 33.554688 -0.703125 33.285156 -3.898438 33.285156 -10.066406 Z M 33.285156 -22.027344 "/></g></g></g><g fill="#ffffff" fill-opacity="1"><g transform="translate(282.981173, 194.963733)"><g><path d="M 26.355469 -8.171875 L 23.488281 -2.164062 L 12.339844 -1.894531 L 12.339844 -15.75 C 16.34375 -15.640625 18.996094 -15.53125 20.402344 -15.476562 L 21.105469 -12.5 L 22.730469 -12.71875 L 22.515625 -17.371094 L 22.675781 -20.566406 L 21 -20.78125 C 20.890625 -19.863281 20.675781 -17.96875 19.265625 -17.804688 C 17.914062 -17.695312 15.75 -17.695312 12.339844 -17.589844 L 12.339844 -31.660156 C 16.722656 -31.660156 20.457031 -31.550781 22.515625 -31.445312 L 24.355469 -25.976562 L 26.25 -26.519531 L 25.21875 -34.148438 C 23.8125 -33.933594 21.59375 -33.609375 19.429688 -33.609375 L 8.550781 -33.609375 L 2.109375 -33.878906 L 1.894531 -32.417969 C 3.789062 -32.039062 6.117188 -31.714844 6.332031 -29.820312 L 6.332031 -29.765625 C 6.441406 -27.816406 6.496094 -25.21875 6.496094 -22.785156 L 6.496094 -10.824219 C 6.496094 -7.683594 6.332031 -4.546875 6.167969 -2.273438 L 1.730469 -1.300781 L 1.949219 0.214844 L 8.28125 0 L 20.566406 0 C 22.839844 0.0546875 24.136719 0.269531 26.195312 0.488281 L 28.46875 -7.523438 Z M 26.355469 -8.171875 "/></g></g></g><g fill="#ffffff" fill-opacity="1"><g transform="translate(312.853832, 194.963733)"><g><path d="M 36.097656 -1.191406 C 34.203125 -1.570312 33.066406 -2.003906 32.09375 -3.898438 C 31.28125 -5.738281 30.414062 -8.171875 29.441406 -10.824219 L 21.105469 -33.878906 L 16.453125 -33.554688 L 7.632812 -10.5 C 6.441406 -7.359375 5.085938 -4.328125 4.222656 -2.328125 L 0.378906 -1.300781 L 0.59375 0.214844 L 6.222656 0 L 6.386719 0 L 6.386719 -0.0546875 L 11.796875 0.214844 L 12.015625 -1.246094 C 9.363281 -1.570312 7.253906 -2.054688 7.523438 -3.734375 C 8.117188 -5.464844 8.929688 -7.847656 9.851562 -10.230469 L 11.3125 -14.070312 C 11.960938 -14.070312 12.878906 -14.125 14.289062 -14.125 L 18.941406 -14.125 C 20.566406 -14.125 21.539062 -14.125 22.242188 -14.070312 L 23.324219 -10.824219 C 24.515625 -7.304688 25.328125 -4.277344 25.871094 -2.328125 L 21.429688 -1.300781 L 21.648438 0.214844 L 27.980469 0 L 32.203125 0 L 35.9375 0.269531 Z M 19.050781 -16.507812 L 12.230469 -16.507812 L 17.046875 -29.171875 L 21.378906 -16.507812 Z M 19.050781 -16.507812 "/></g></g></g><g fill="#ffffff" fill-opacity="1"><g transform="translate(170.369466, 214.210078)"><g><path d="M 8.914062 -8.371094 L 8.859375 -8.691406 L 7.605469 -8.636719 L 7.550781 -8.636719 L 6.171875 -8.703125 L 6.117188 -8.398438 C 6.578125 -8.328125 7.34375 -8.273438 7.371094 -7.816406 C 7.382812 -7.3125 7.398438 -6.605469 7.398438 -5.910156 L 7.398438 -3.808594 C 7.398438 -1.515625 6.550781 -0.332031 4.867188 -0.332031 C 3.210938 -0.332031 2.390625 -1.515625 2.390625 -3.808594 L 2.390625 -5.855469 C 2.390625 -6.742188 2.40625 -7.5625 2.433594 -8.148438 L 3.628906 -8.371094 L 3.574219 -8.691406 L 2.042969 -8.636719 L 1.667969 -8.636719 L 0.320312 -8.703125 L 0.265625 -8.414062 C 0.722656 -8.328125 1.25 -8.289062 1.292969 -7.816406 C 1.308594 -7.3125 1.320312 -6.578125 1.320312 -5.855469 L 1.320312 -3.796875 C 1.320312 -1.167969 2.503906 0.195312 4.742188 0.195312 C 6.882812 0.195312 7.828125 -1.167969 7.828125 -3.808594 L 7.828125 -5.910156 C 7.828125 -6.6875 7.855469 -7.5625 7.882812 -8.175781 Z M 8.914062 -8.371094 "/></g></g></g><g fill="#ffffff" fill-opacity="1"><g transform="translate(179.542466, 214.210078)"><g><path d="M 8.550781 -5.660156 C 8.550781 -6.550781 8.566406 -7.46875 8.578125 -8.164062 L 9.734375 -8.371094 L 9.679688 -8.691406 L 8.230469 -8.636719 L 6.925781 -8.703125 L 6.882812 -8.414062 C 7.34375 -8.328125 7.953125 -8.273438 8.007812 -7.816406 C 8.023438 -7.246094 8.050781 -6.3125 8.066406 -5.257812 L 8.105469 -1.558594 C 7.523438 -2.15625 3.78125 -6.714844 2.335938 -8.636719 L 1.972656 -8.636719 L 0.597656 -8.703125 L 0.554688 -8.398438 C 1 -8.316406 1.65625 -8.273438 1.683594 -7.828125 L 1.683594 -7.800781 C 1.695312 -7.355469 1.710938 -6.660156 1.710938 -5.921875 L 1.710938 -2.988281 C 1.710938 -2.113281 1.695312 -1.183594 1.683594 -0.472656 L 0.527344 -0.265625 L 0.585938 0.0546875 L 1.933594 0 L 2.003906 0 L 3.335938 0.0703125 L 3.378906 -0.238281 C 2.921875 -0.304688 2.28125 -0.363281 2.253906 -0.820312 C 2.226562 -1.445312 2.195312 -2.449219 2.183594 -3.378906 L 2.140625 -7.1875 C 2.601562 -6.785156 8.066406 0 8.066406 0 L 8.621094 0 C 8.605469 -0.292969 8.550781 -1.195312 8.550781 -2.601562 Z M 8.550781 -5.660156 "/></g></g></g><g fill="#ffffff" fill-opacity="1"><g transform="translate(189.535481, 214.210078)"><g><path d="M 2.835938 -0.835938 C 2.824219 -1.308594 2.792969 -2.03125 2.792969 -2.710938 L 2.792969 -5.894531 C 2.792969 -6.730469 2.835938 -7.605469 2.851562 -8.164062 L 3.992188 -8.371094 L 3.949219 -8.691406 L 2.460938 -8.636719 L 2.003906 -8.636719 L 0.613281 -8.703125 L 0.570312 -8.398438 C 1.027344 -8.316406 1.65625 -8.273438 1.695312 -7.800781 C 1.710938 -7.3125 1.738281 -6.589844 1.738281 -5.894531 L 1.738281 -2.710938 C 1.738281 -1.835938 1.710938 -0.972656 1.683594 -0.472656 L 0.527344 -0.265625 L 0.585938 0.0546875 L 2.085938 0 L 2.53125 0 L 3.921875 0.0703125 L 3.964844 -0.238281 C 3.503906 -0.320312 2.863281 -0.363281 2.835938 -0.835938 Z M 2.835938 -0.835938 "/></g></g></g><g fill="#ffffff" fill-opacity="1"><g transform="translate(194.066391, 214.210078)"><g><path d="M 9.078125 -8.371094 L 9.023438 -8.691406 L 7.925781 -8.636719 L 7.871094 -8.636719 L 6.1875 -8.71875 L 6.132812 -8.414062 C 6.589844 -8.328125 7.59375 -8.289062 7.46875 -7.816406 C 7.3125 -7.371094 7.078125 -6.742188 6.828125 -6.105469 L 4.796875 -0.863281 L 2.890625 -5.910156 C 2.601562 -6.703125 2.335938 -7.5625 2.140625 -8.164062 L 3.488281 -8.371094 L 3.433594 -8.691406 L 1.738281 -8.636719 L 1.222656 -8.636719 L 0.152344 -8.691406 L 0.109375 -8.398438 C 0.570312 -8.316406 0.847656 -8.21875 1.042969 -7.757812 C 1.238281 -7.300781 1.488281 -6.660156 1.78125 -5.910156 L 4.074219 0.0429688 L 4.894531 -0.0429688 L 7.285156 -6.019531 C 7.5625 -6.742188 7.925781 -7.5625 8.203125 -8.164062 Z M 9.078125 -8.371094 "/></g></g></g><g fill="#ffffff" fill-opacity="1"><g transform="translate(203.253295, 214.210078)"><g><path d="M 6.675781 -1.890625 L 5.992188 -0.457031 L 2.808594 -0.417969 L 2.808594 -4.074219 C 4.003906 -4.058594 4.742188 -4.046875 5.089844 -4.03125 L 5.226562 -3.269531 L 5.574219 -3.324219 L 5.535156 -4.4375 L 5.5625 -5.257812 L 5.214844 -5.3125 C 5.1875 -5.019531 5.160156 -4.5625 4.839844 -4.519531 C 4.492188 -4.503906 3.867188 -4.492188 2.808594 -4.492188 L 2.808594 -8.21875 C 4.117188 -8.21875 5.214844 -8.175781 5.730469 -8.148438 L 6.132812 -6.910156 L 6.492188 -7.023438 L 6.257812 -8.746094 C 5.964844 -8.703125 5.492188 -8.648438 5.019531 -8.636719 L 2.195312 -8.636719 L 0.613281 -8.691406 L 0.570312 -8.398438 C 1.027344 -8.316406 1.65625 -8.273438 1.695312 -7.816406 L 1.695312 -7.800781 C 1.722656 -7.300781 1.738281 -6.589844 1.738281 -5.894531 L 1.738281 -2.726562 C 1.738281 -1.890625 1.710938 -1.085938 1.667969 -0.472656 L 0.527344 -0.265625 L 0.585938 0.0546875 L 2.058594 0 L 5.3125 0 C 5.796875 0.015625 6.089844 0.0546875 6.519531 0.109375 L 7.0625 -1.765625 Z M 6.675781 -1.890625 "/></g></g></g><g fill="#ffffff" fill-opacity="1"><g transform="translate(210.716788, 214.210078)"><g><path d="M 7.453125 -0.988281 C 7.160156 -1.472656 6.9375 -2.335938 6.605469 -3.140625 C 6.1875 -4.117188 5.492188 -4.769531 4.324219 -5.1875 C 5.535156 -5.3125 6.4375 -5.980469 6.4375 -6.964844 C 6.4375 -7.675781 6.117188 -8.132812 5.3125 -8.425781 C 4.351562 -8.816406 3.40625 -8.636719 2.390625 -8.636719 L 2.003906 -8.636719 L 0.597656 -8.691406 L 0.554688 -8.398438 C 1.015625 -8.316406 1.640625 -8.273438 1.683594 -7.800781 C 1.710938 -7.3125 1.722656 -6.589844 1.722656 -5.894531 L 1.722656 -3.210938 C 1.722656 -2.183594 1.695312 -1.070312 1.667969 -0.457031 L 0.527344 -0.265625 L 0.585938 0.0546875 L 2.058594 0 L 2.515625 0 L 3.90625 0.0546875 L 3.949219 -0.238281 C 3.488281 -0.320312 2.851562 -0.375 2.824219 -0.847656 C 2.808594 -1.335938 2.78125 -2.03125 2.78125 -2.710938 L 2.78125 -8.230469 C 3.238281 -8.230469 3.476562 -8.257812 3.78125 -8.257812 C 4.699219 -8.257812 5.4375 -7.953125 5.4375 -6.898438 C 5.4375 -5.730469 4.15625 -5.382812 3.546875 -5.382812 L 3.253906 -5.367188 L 3.363281 -5.003906 C 4.492188 -4.894531 5.101562 -3.964844 5.546875 -2.878906 C 6.035156 -1.597656 6.453125 -0.429688 7.257812 -0.0546875 C 7.496094 0.0429688 7.800781 0.0976562 8.050781 0.0820312 C 8.246094 0.0703125 8.425781 0.015625 8.511719 -0.015625 L 8.539062 -0.152344 C 8.121094 -0.265625 7.816406 -0.402344 7.453125 -0.988281 Z M 7.453125 -0.988281 "/></g></g></g><g fill="#ffffff" fill-opacity="1"><g transform="translate(219.361654, 214.210078)"><g><path d="M 0.515625 -1.917969 L 0.652344 -0.375 C 1.222656 -0.0429688 1.988281 0.167969 2.765625 0.167969 C 4.253906 0.167969 5.324219 -0.820312 5.324219 -2.28125 C 5.324219 -3.628906 4.367188 -4.351562 3.421875 -4.964844 C 2.585938 -5.519531 1.753906 -6.214844 1.753906 -7.0625 C 1.753906 -7.746094 2.210938 -8.371094 3.058594 -8.382812 C 3.601562 -8.398438 3.921875 -8.328125 4.15625 -8.21875 L 4.601562 -6.925781 L 4.964844 -7.023438 L 4.742188 -8.636719 C 4.28125 -8.730469 3.742188 -8.828125 3.199219 -8.828125 C 1.695312 -8.828125 0.820312 -7.941406 0.820312 -6.742188 C 0.820312 -5.324219 1.78125 -4.753906 2.710938 -4.058594 C 3.574219 -3.40625 4.351562 -2.792969 4.351562 -1.863281 C 4.351562 -1.097656 3.753906 -0.277344 2.738281 -0.277344 C 2.101562 -0.277344 1.585938 -0.429688 1.277344 -0.667969 L 0.902344 -2.113281 Z M 0.515625 -1.917969 "/></g></g></g><g fill="#ffffff" fill-opacity="1"><g transform="translate(225.171224, 214.210078)"><g><path d="M 2.835938 -0.835938 C 2.824219 -1.308594 2.792969 -2.03125 2.792969 -2.710938 L 2.792969 -5.894531 C 2.792969 -6.730469 2.835938 -7.605469 2.851562 -8.164062 L 3.992188 -8.371094 L 3.949219 -8.691406 L 2.460938 -8.636719 L 2.003906 -8.636719 L 0.613281 -8.703125 L 0.570312 -8.398438 C 1.027344 -8.316406 1.65625 -8.273438 1.695312 -7.800781 C 1.710938 -7.3125 1.738281 -6.589844 1.738281 -5.894531 L 1.738281 -2.710938 C 1.738281 -1.835938 1.710938 -0.972656 1.683594 -0.472656 L 0.527344 -0.265625 L 0.585938 0.0546875 L 2.085938 0 L 2.53125 0 L 3.921875 0.0703125 L 3.964844 -0.238281 C 3.503906 -0.320312 2.863281 -0.363281 2.835938 -0.835938 Z M 2.835938 -0.835938 "/></g></g></g><g fill="#ffffff" fill-opacity="1"><g transform="translate(229.702135, 214.210078)"><g><path d="M 4.53125 -8.691406 C 3.835938 -8.691406 2.792969 -8.636719 2.253906 -8.636719 L 0.597656 -8.691406 L 0.554688 -8.398438 C 1.015625 -8.316406 1.640625 -8.273438 1.683594 -7.800781 C 1.710938 -7.3125 1.722656 -6.578125 1.722656 -5.894531 L 1.722656 -2.710938 C 1.722656 -1.933594 1.695312 -1.085938 1.667969 -0.472656 L 0.527344 -0.265625 L 0.585938 0.0546875 L 2.058594 0 L 2.378906 0 C 3.15625 0 3.992188 0.0703125 4.492188 0.0703125 C 7.257812 0.0703125 8.96875 -1.640625 8.96875 -4.394531 C 8.96875 -7.214844 7.050781 -8.691406 4.53125 -8.691406 Z M 4.421875 -0.375 C 3.796875 -0.375 3.671875 -0.390625 2.851562 -0.390625 C 2.808594 -0.875 2.792969 -1.835938 2.792969 -2.710938 L 2.792969 -8.230469 C 2.976562 -8.230469 3.628906 -8.257812 4.394531 -8.257812 C 7.050781 -8.257812 7.828125 -6.132812 7.828125 -4.253906 C 7.828125 -1.597656 6.132812 -0.375 4.421875 -0.375 Z M 4.421875 -0.375 "/></g></g></g><g fill="#ffffff" fill-opacity="1"><g transform="translate(239.069718, 214.210078)"><g><path d="M 8.914062 -0.238281 C 8.453125 -0.320312 8.164062 -0.417969 7.953125 -0.847656 C 7.746094 -1.347656 7.507812 -1.988281 7.246094 -2.726562 L 5.074219 -8.703125 L 4.226562 -8.636719 L 1.890625 -2.628906 C 1.558594 -1.765625 1.210938 -0.960938 1 -0.472656 L 0.109375 -0.265625 L 0.167969 0.0546875 L 1.375 0 L 2.808594 0.0429688 L 2.863281 -0.25 C 2.101562 -0.320312 1.613281 -0.402344 1.710938 -0.804688 C 1.863281 -1.25 2.085938 -1.890625 2.351562 -2.53125 L 2.792969 -3.683594 L 5.769531 -3.683594 L 6.105469 -2.726562 C 6.425781 -1.792969 6.675781 -0.972656 6.8125 -0.472656 L 5.6875 -0.265625 L 5.742188 0.0546875 L 7.214844 0 L 8.078125 0 L 8.871094 0.0546875 Z M 4.910156 -4.171875 L 2.976562 -4.171875 L 4.351562 -7.746094 L 5.605469 -4.171875 Z M 4.910156 -4.171875 "/></g></g></g><g fill="#ffffff" fill-opacity="1"><g transform="translate(248.089836, 214.210078)"><g><path d="M 4.53125 -8.691406 C 3.835938 -8.691406 2.792969 -8.636719 2.253906 -8.636719 L 0.597656 -8.691406 L 0.554688 -8.398438 C 1.015625 -8.316406 1.640625 -8.273438 1.683594 -7.800781 C 1.710938 -7.3125 1.722656 -6.578125 1.722656 -5.894531 L 1.722656 -2.710938 C 1.722656 -1.933594 1.695312 -1.085938 1.667969 -0.472656 L 0.527344 -0.265625 L 0.585938 0.0546875 L 2.058594 0 L 2.378906 0 C 3.15625 0 3.992188 0.0703125 4.492188 0.0703125 C 7.257812 0.0703125 8.96875 -1.640625 8.96875 -4.394531 C 8.96875 -7.214844 7.050781 -8.691406 4.53125 -8.691406 Z M 4.421875 -0.375 C 3.796875 -0.375 3.671875 -0.390625 2.851562 -0.390625 C 2.808594 -0.875 2.792969 -1.835938 2.792969 -2.710938 L 2.792969 -8.230469 C 2.976562 -8.230469 3.628906 -8.257812 4.394531 -8.257812 C 7.050781 -8.257812 7.828125 -6.132812 7.828125 -4.253906 C 7.828125 -1.597656 6.132812 -0.375 4.421875 -0.375 Z M 4.421875 -0.375 "/></g></g></g><g fill="#ffffff" fill-opacity="1"><g transform="translate(257.45742, 214.210078)"><g/></g></g><g fill="#ffffff" fill-opacity="1"><g transform="translate(260.806957, 214.210078)"><g><path d="M 8.550781 -5.660156 C 8.550781 -6.550781 8.566406 -7.46875 8.578125 -8.164062 L 9.734375 -8.371094 L 9.679688 -8.691406 L 8.230469 -8.636719 L 6.925781 -8.703125 L 6.882812 -8.414062 C 7.34375 -8.328125 7.953125 -8.273438 8.007812 -7.816406 C 8.023438 -7.246094 8.050781 -6.3125 8.066406 -5.257812 L 8.105469 -1.558594 C 7.523438 -2.15625 3.78125 -6.714844 2.335938 -8.636719 L 1.972656 -8.636719 L 0.597656 -8.703125 L 0.554688 -8.398438 C 1 -8.316406 1.65625 -8.273438 1.683594 -7.828125 L 1.683594 -7.800781 C 1.695312 -7.355469 1.710938 -6.660156 1.710938 -5.921875 L 1.710938 -2.988281 C 1.710938 -2.113281 1.695312 -1.183594 1.683594 -0.472656 L 0.527344 -0.265625 L 0.585938 0.0546875 L 1.933594 0 L 2.003906 0 L 3.335938 0.0703125 L 3.378906 -0.238281 C 2.921875 -0.304688 2.28125 -0.363281 2.253906 -0.820312 C 2.226562 -1.445312 2.195312 -2.449219 2.183594 -3.378906 L 2.140625 -7.1875 C 2.601562 -6.785156 8.066406 0 8.066406 0 L 8.621094 0 C 8.605469 -0.292969 8.550781 -1.195312 8.550781 -2.601562 Z M 8.550781 -5.660156 "/></g></g></g><g fill="#ffffff" fill-opacity="1"><g transform="translate(270.799971, 214.210078)"><g><path d="M 8.914062 -0.238281 C 8.453125 -0.320312 8.164062 -0.417969 7.953125 -0.847656 C 7.746094 -1.347656 7.507812 -1.988281 7.246094 -2.726562 L 5.074219 -8.703125 L 4.226562 -8.636719 L 1.890625 -2.628906 C 1.558594 -1.765625 1.210938 -0.960938 1 -0.472656 L 0.109375 -0.265625 L 0.167969 0.0546875 L 1.375 0 L 2.808594 0.0429688 L 2.863281 -0.25 C 2.101562 -0.320312 1.613281 -0.402344 1.710938 -0.804688 C 1.863281 -1.25 2.085938 -1.890625 2.351562 -2.53125 L 2.792969 -3.683594 L 5.769531 -3.683594 L 6.105469 -2.726562 C 6.425781 -1.792969 6.675781 -0.972656 6.8125 -0.472656 L 5.6875 -0.265625 L 5.742188 0.0546875 L 7.214844 0 L 8.078125 0 L 8.871094 0.0546875 Z M 4.910156 -4.171875 L 2.976562 -4.171875 L 4.351562 -7.746094 L 5.605469 -4.171875 Z M 4.910156 -4.171875 "/></g></g></g><g fill="#ffffff" fill-opacity="1"><g transform="translate(279.82009, 214.210078)"><g><path d="M 6.394531 -0.390625 C 6.089844 -0.320312 5.660156 -0.25 5.074219 -0.25 C 2.835938 -0.25 1.597656 -2.085938 1.597656 -4.339844 C 1.597656 -7.246094 3.617188 -8.398438 5.214844 -8.398438 C 5.910156 -8.398438 6.382812 -8.230469 6.632812 -8.078125 L 7.214844 -6.632812 L 7.578125 -6.742188 L 7.214844 -8.703125 C 6.617188 -8.71875 5.828125 -8.816406 5.117188 -8.816406 C 2.628906 -8.816406 0.429688 -7.382812 0.429688 -4.351562 C 0.429688 -1.585938 2.28125 0.179688 4.949219 0.179688 C 5.257812 0.179688 5.535156 0.152344 5.757812 0.109375 C 5.769531 0.109375 5.796875 0.109375 5.8125 0.0976562 L 7.035156 -0.0820312 L 7.5625 -1.625 L 7.175781 -1.753906 Z M 6.394531 -0.390625 "/></g></g></g><g fill="#ffffff" fill-opacity="1"><g transform="translate(288.131384, 214.210078)"><g><path d="M 2.835938 -0.835938 C 2.824219 -1.308594 2.792969 -2.03125 2.792969 -2.710938 L 2.792969 -5.894531 C 2.792969 -6.730469 2.835938 -7.605469 2.851562 -8.164062 L 3.992188 -8.371094 L 3.949219 -8.691406 L 2.460938 -8.636719 L 2.003906 -8.636719 L 0.613281 -8.703125 L 0.570312 -8.398438 C 1.027344 -8.316406 1.65625 -8.273438 1.695312 -7.800781 C 1.710938 -7.3125 1.738281 -6.589844 1.738281 -5.894531 L 1.738281 -2.710938 C 1.738281 -1.835938 1.710938 -0.972656 1.683594 -0.472656 L 0.527344 -0.265625 L 0.585938 0.0546875 L 2.085938 0 L 2.53125 0 L 3.921875 0.0703125 L 3.964844 -0.238281 C 3.503906 -0.320312 2.863281 -0.363281 2.835938 -0.835938 Z M 2.835938 -0.835938 "/></g></g></g><g fill="#ffffff" fill-opacity="1"><g transform="translate(292.662294, 214.210078)"><g><path d="M 5.089844 0.195312 C 7.535156 0.195312 9.761719 -1.238281 9.761719 -4.296875 C 9.761719 -7.050781 7.773438 -8.828125 5.117188 -8.828125 C 2.65625 -8.828125 0.429688 -7.382812 0.429688 -4.351562 C 0.429688 -1.585938 2.433594 0.195312 5.089844 0.195312 Z M 1.597656 -4.296875 C 1.542969 -7.214844 3.601562 -8.371094 5.117188 -8.398438 C 7.203125 -8.425781 8.566406 -6.519531 8.605469 -4.339844 C 8.648438 -1.433594 6.589844 -0.25 5.074219 -0.238281 C 2.988281 -0.207031 1.625 -2.128906 1.597656 -4.296875 Z M 1.597656 -4.296875 "/></g></g></g><g fill="#ffffff" fill-opacity="1"><g transform="translate(302.822095, 214.210078)"><g><path d="M 8.550781 -5.660156 C 8.550781 -6.550781 8.566406 -7.46875 8.578125 -8.164062 L 9.734375 -8.371094 L 9.679688 -8.691406 L 8.230469 -8.636719 L 6.925781 -8.703125 L 6.882812 -8.414062 C 7.34375 -8.328125 7.953125 -8.273438 8.007812 -7.816406 C 8.023438 -7.246094 8.050781 -6.3125 8.066406 -5.257812 L 8.105469 -1.558594 C 7.523438 -2.15625 3.78125 -6.714844 2.335938 -8.636719 L 1.972656 -8.636719 L 0.597656 -8.703125 L 0.554688 -8.398438 C 1 -8.316406 1.65625 -8.273438 1.683594 -7.828125 L 1.683594 -7.800781 C 1.695312 -7.355469 1.710938 -6.660156 1.710938 -5.921875 L 1.710938 -2.988281 C 1.710938 -2.113281 1.695312 -1.183594 1.683594 -0.472656 L 0.527344 -0.265625 L 0.585938 0.0546875 L 1.933594 0 L 2.003906 0 L 3.335938 0.0703125 L 3.378906 -0.238281 C 2.921875 -0.304688 2.28125 -0.363281 2.253906 -0.820312 C 2.226562 -1.445312 2.195312 -2.449219 2.183594 -3.378906 L 2.140625 -7.1875 C 2.601562 -6.785156 8.066406 0 8.066406 0 L 8.621094 0 C 8.605469 -0.292969 8.550781 -1.195312 8.550781 -2.601562 Z M 8.550781 -5.660156 "/></g></g></g><g fill="#ffffff" fill-opacity="1"><g transform="translate(312.815109, 214.210078)"><g><path d="M 8.914062 -0.238281 C 8.453125 -0.320312 8.164062 -0.417969 7.953125 -0.847656 C 7.746094 -1.347656 7.507812 -1.988281 7.246094 -2.726562 L 5.074219 -8.703125 L 4.226562 -8.636719 L 1.890625 -2.628906 C 1.558594 -1.765625 1.210938 -0.960938 1 -0.472656 L 0.109375 -0.265625 L 0.167969 0.0546875 L 1.375 0 L 2.808594 0.0429688 L 2.863281 -0.25 C 2.101562 -0.320312 1.613281 -0.402344 1.710938 -0.804688 C 1.863281 -1.25 2.085938 -1.890625 2.351562 -2.53125 L 2.792969 -3.683594 L 5.769531 -3.683594 L 6.105469 -2.726562 C 6.425781 -1.792969 6.675781 -0.972656 6.8125 -0.472656 L 5.6875 -0.265625 L 5.742188 0.0546875 L 7.214844 0 L 8.078125 0 L 8.871094 0.0546875 Z M 4.910156 -4.171875 L 2.976562 -4.171875 L 4.351562 -7.746094 L 5.605469 -4.171875 Z M 4.910156 -4.171875 "/></g></g></g><g fill="#ffffff" fill-opacity="1"><g transform="translate(321.835227, 214.210078)"><g><path d="M 6.078125 -1.90625 L 5.351562 -0.488281 C 4.867188 -0.472656 4.019531 -0.429688 2.824219 -0.417969 C 2.792969 -0.890625 2.792969 -1.835938 2.792969 -2.710938 L 2.792969 -5.421875 C 2.792969 -6.382812 2.824219 -7.496094 2.851562 -8.164062 L 3.992188 -8.371094 L 3.933594 -8.691406 L 2.460938 -8.636719 L 2.003906 -8.636719 L 0.613281 -8.691406 L 0.570312 -8.398438 C 1.027344 -8.316406 1.640625 -8.273438 1.695312 -7.800781 C 1.722656 -7.300781 1.738281 -6.589844 1.738281 -5.894531 L 1.738281 -2.710938 C 1.738281 -1.890625 1.695312 -1.015625 1.667969 -0.472656 L 0.527344 -0.265625 L 0.585938 0.0546875 L 2.058594 0 L 4.644531 0 C 5.160156 0.015625 5.480469 0.0703125 5.867188 0.152344 L 6.480469 -1.78125 Z M 6.078125 -1.90625 "/></g></g></g><g clip-path="url(#f7a088098d)"><path fill="#f8b30d" d="M 62.167969 229.273438 C 60.132812 228.769531 58.191406 228.074219 56.34375 227.234375 C 56.320312 227.183594 56.296875 227.136719 56.246094 227.089844 L 56.222656 227.066406 C 56.128906 223.753906 53.5625 220.296875 51.238281 218.140625 C 50.925781 217.851562 50.253906 218.019531 50.304688 218.523438 C 50.636719 221.210938 51.71875 223.824219 53.539062 225.816406 C 50.421875 224.066406 47.617188 221.859375 45.054688 219.289062 C 45.101562 219.21875 45.125 219.121094 45.125 219.027344 C 45.148438 216.796875 44.835938 214.636719 44.070312 212.523438 C 43.519531 211.011719 42.800781 209.019531 41.3125 208.230469 C 40.976562 208.0625 40.570312 208.277344 40.570312 208.660156 C 40.523438 211.277344 41.074219 213.890625 42.273438 216.195312 C 41.839844 215.691406 41.433594 215.164062 41.027344 214.636719 C 38.4375 211.226562 36.109375 207.507812 34.21875 203.621094 C 34.242188 203.574219 34.265625 203.5 34.242188 203.429688 C 34.21875 203.359375 34.21875 203.285156 34.195312 203.214844 C 34.265625 203.191406 34.359375 203.140625 34.410156 203.046875 C 36.804688 199.496094 36.421875 194.214844 35.34375 190.28125 C 35.222656 189.824219 34.625 189.800781 34.386719 190.160156 C 32.179688 193.375 32.15625 197.070312 32.875 200.671875 C 31.605469 197.671875 30.621094 194.550781 30 191.359375 C 29.734375 190.015625 29.542969 188.671875 29.445312 187.351562 C 29.519531 187.351562 29.613281 187.328125 29.6875 187.28125 C 33.210938 185.144531 35.175781 180.394531 35.726562 176.484375 C 35.800781 175.980469 35.25 175.546875 34.816406 175.957031 C 32.371094 178.308594 30.453125 181.113281 29.328125 184.28125 C 29.398438 179.265625 30.574219 174.445312 32.539062 169.859375 C 32.609375 169.933594 32.730469 169.980469 32.851562 169.980469 C 36.972656 169.789062 40.882812 166.164062 42.96875 162.855469 C 43.207031 162.46875 42.800781 161.917969 42.367188 162.0625 C 39.371094 163.070312 36.613281 164.511719 34.167969 166.476562 C 36.421875 162.160156 39.300781 158.105469 42.511719 154.382812 L 42.535156 154.382812 C 44.574219 153.375 46.945312 152.535156 48.601562 150.929688 C 50.015625 149.539062 50.78125 147.640625 51.523438 145.84375 C 51.765625 145.265625 51.046875 144.953125 50.613281 145.21875 C 50.566406 145.195312 50.542969 145.195312 50.46875 145.195312 C 48.625 145.410156 46.996094 146.128906 45.652344 147.425781 C 44.191406 148.867188 43.496094 150.808594 42.414062 152.511719 C 39.945312 155.175781 37.695312 158.128906 35.726562 161.269531 C 36.304688 156.832031 37.046875 152.082031 35.894531 147.714844 C 35.75 147.1875 35.105469 147.1875 34.839844 147.570312 C 31.628906 152.082031 31.269531 158.511719 34.648438 163.046875 C 32.515625 166.742188 30.835938 170.699219 29.757812 174.730469 C 29.664062 173.003906 29.519531 171.300781 29.328125 169.597656 C 29.207031 168.46875 29.445312 166.214844 28.464844 165.421875 C 28.273438 165.253906 28.007812 165.207031 27.792969 165.324219 C 24.078125 167.582031 25.683594 176.171875 28.894531 178.1875 C 28.917969 178.210938 28.945312 178.210938 28.992188 178.210938 C 28.441406 181.332031 28.25 184.472656 28.511719 187.640625 L 28.511719 187.664062 C 28.511719 187.714844 28.511719 187.761719 28.535156 187.808594 C 28.632812 188.9375 28.777344 190.039062 28.992188 191.167969 C 29.136719 191.960938 29.328125 192.726562 29.519531 193.496094 C 28.65625 192.03125 27.578125 190.570312 26.570312 189.296875 C 25.394531 187.808594 24.003906 186.632812 22.136719 186.128906 C 21.703125 186.007812 21.367188 186.394531 21.441406 186.824219 C 22.351562 191.144531 25.613281 194.910156 29.925781 196.085938 C 30.046875 196.113281 30.140625 196.085938 30.214844 196.039062 C 31.53125 200.335938 33.449219 204.507812 35.75 208.398438 C 34.816406 207.628906 33.832031 206.933594 32.777344 206.355469 C 31.363281 205.566406 29.375 204.339844 27.722656 204.871094 C 27.433594 204.964844 27.21875 205.277344 27.3125 205.566406 C 28.726562 209.933594 33.1875 212.738281 37.695312 211.515625 L 37.71875 211.515625 C 38.699219 213.003906 39.753906 214.445312 40.832031 215.8125 C 42.535156 217.996094 44.453125 220.105469 46.5625 222.003906 C 43.925781 220.660156 40.617188 220.347656 37.859375 220.632812 C 37.40625 220.683594 37.117188 221.210938 37.476562 221.570312 C 40.472656 224.546875 45.027344 225.746094 49.03125 224.1875 C 49.082031 224.160156 49.105469 224.136719 49.128906 224.113281 C 52.941406 226.992188 57.277344 229.105469 62.074219 229.777344 C 62.359375 229.871094 62.527344 229.367188 62.167969 229.273438 Z M 46.25 148.480469 C 46.179688 148.625 46.132812 148.746094 46.058594 148.890625 C 45.890625 149.035156 45.722656 149.175781 45.554688 149.34375 C 45.773438 149.035156 46.011719 148.746094 46.25 148.480469 Z M 46.25 148.480469 " fill-opacity="1" fill-rule="nonzero"/></g><g clip-path="url(#de0cd9280a)"><path fill="#f8b30d" d="M 100.644531 229.824219 C 105.4375 229.152344 109.777344 227.039062 113.589844 224.160156 C 113.613281 224.1875 113.660156 224.210938 113.683594 224.234375 C 117.6875 225.792969 122.242188 224.59375 125.238281 221.617188 C 125.601562 221.257812 125.3125 220.730469 124.855469 220.683594 C 122.125 220.417969 118.792969 220.730469 116.15625 222.050781 C 118.265625 220.15625 120.183594 218.066406 121.882812 215.859375 C 122.960938 214.46875 123.992188 213.027344 125 211.5625 L 125.023438 211.5625 C 129.53125 212.765625 133.988281 209.980469 135.40625 205.613281 C 135.5 205.300781 135.285156 205.011719 134.996094 204.917969 C 133.34375 204.367188 131.351562 205.589844 129.9375 206.40625 C 128.882812 207.003906 127.902344 207.675781 126.964844 208.445312 C 129.265625 204.535156 131.183594 200.382812 132.503906 196.085938 C 132.574219 196.136719 132.671875 196.160156 132.792969 196.136719 C 137.105469 194.960938 140.367188 191.191406 141.277344 186.875 C 141.375 186.464844 141.015625 186.082031 140.582031 186.175781 C 138.710938 186.65625 137.347656 187.832031 136.148438 189.34375 C 135.140625 190.617188 134.0625 192.082031 133.199219 193.542969 C 133.390625 192.777344 133.558594 191.984375 133.726562 191.214844 C 133.941406 190.089844 134.085938 188.984375 134.183594 187.855469 C 134.207031 187.808594 134.207031 187.761719 134.207031 187.714844 L 134.207031 187.6875 C 134.46875 184.546875 134.277344 181.378906 133.726562 178.257812 C 133.75 178.257812 133.773438 178.234375 133.820312 178.234375 C 137.035156 176.21875 138.640625 167.628906 134.925781 165.375 C 134.710938 165.230469 134.445312 165.300781 134.253906 165.46875 C 133.269531 166.285156 133.511719 168.515625 133.390625 169.644531 C 133.199219 171.347656 133.054688 173.078125 132.960938 174.78125 C 131.878906 170.726562 130.179688 166.789062 128.070312 163.09375 C 131.449219 158.558594 131.089844 152.128906 127.878906 147.59375 C 127.613281 147.210938 126.941406 147.210938 126.824219 147.738281 C 125.671875 152.105469 126.414062 156.855469 126.988281 161.296875 C 125.023438 158.152344 122.769531 155.199219 120.277344 152.511719 C 119.222656 150.808594 118.527344 148.867188 117.042969 147.425781 C 115.699219 146.128906 114.070312 145.410156 112.222656 145.195312 C 112.175781 145.195312 112.128906 145.195312 112.078125 145.21875 C 111.648438 144.953125 110.953125 145.265625 111.167969 145.84375 C 111.910156 147.640625 112.679688 149.539062 114.09375 150.929688 C 115.746094 152.535156 118.121094 153.375 120.15625 154.382812 L 120.183594 154.382812 C 123.394531 158.105469 126.269531 162.160156 128.523438 166.476562 C 126.078125 164.511719 123.324219 163.070312 120.324219 162.0625 C 119.871094 161.917969 119.488281 162.46875 119.726562 162.855469 C 121.789062 166.140625 125.71875 169.789062 129.84375 169.980469 C 129.960938 169.980469 130.058594 169.933594 130.15625 169.859375 C 132.097656 174.445312 133.292969 179.265625 133.367188 184.28125 C 132.238281 181.113281 130.320312 178.308594 127.878906 175.957031 C 127.445312 175.546875 126.894531 175.980469 126.964844 176.484375 C 127.515625 180.394531 129.484375 185.144531 133.007812 187.28125 C 133.101562 187.328125 133.175781 187.351562 133.246094 187.351562 C 133.152344 188.671875 132.960938 190.015625 132.695312 191.359375 C 132.046875 194.527344 131.066406 197.648438 129.820312 200.671875 C 130.539062 197.046875 130.515625 193.375 128.308594 190.160156 C 128.070312 189.800781 127.46875 189.824219 127.351562 190.28125 C 126.269531 194.214844 125.886719 199.519531 128.285156 203.046875 C 128.355469 203.140625 128.429688 203.191406 128.5 203.214844 C 128.476562 203.285156 128.476562 203.359375 128.453125 203.429688 C 128.429688 203.5 128.453125 203.574219 128.476562 203.621094 C 126.582031 207.53125 124.234375 211.226562 121.667969 214.636719 C 121.261719 215.164062 120.851562 215.691406 120.421875 216.195312 C 121.597656 213.890625 122.148438 211.277344 122.125 208.660156 C 122.125 208.277344 121.714844 208.0625 121.378906 208.230469 C 119.917969 209.019531 119.199219 211.011719 118.625 212.523438 C 117.855469 214.613281 117.546875 216.796875 117.570312 219.027344 C 117.570312 219.121094 117.59375 219.21875 117.640625 219.289062 C 115.101562 221.859375 112.269531 224.066406 109.15625 225.816406 C 110.976562 223.824219 112.078125 221.210938 112.390625 218.523438 C 112.464844 218.019531 111.769531 217.851562 111.457031 218.140625 C 109.128906 220.296875 106.566406 223.753906 106.46875 227.066406 L 106.445312 227.089844 C 106.398438 227.136719 106.375 227.183594 106.351562 227.234375 C 104.503906 228.074219 102.5625 228.746094 100.523438 229.273438 C 100.117188 229.367188 100.285156 229.871094 100.644531 229.824219 Z M 117.089844 149.320312 C 116.921875 149.175781 116.753906 149.035156 116.585938 148.867188 C 116.515625 148.722656 116.464844 148.601562 116.394531 148.480469 C 116.632812 148.746094 116.875 149.035156 117.089844 149.320312 Z M 117.089844 149.320312 " fill-opacity="1" fill-rule="nonzero"/></g><g fill="#ffffff" fill-opacity="1"><g transform="translate(41.002425, 200.518937)"><g><path d="M 25.574219 -24.019531 L 25.414062 -24.933594 L 21.824219 -24.777344 L 21.664062 -24.777344 L 17.714844 -24.976562 L 17.554688 -24.097656 C 18.871094 -23.898438 21.066406 -23.738281 21.144531 -22.421875 C 21.183594 -20.984375 21.226562 -18.949219 21.226562 -16.957031 L 21.226562 -10.929688 C 21.226562 -4.347656 18.792969 -0.957031 13.964844 -0.957031 C 9.214844 -0.957031 6.863281 -4.347656 6.863281 -10.929688 L 6.863281 -16.796875 C 6.863281 -19.351562 6.902344 -21.703125 6.980469 -23.378906 L 10.414062 -24.019531 L 10.253906 -24.933594 L 5.863281 -24.777344 L 4.789062 -24.777344 L 0.917969 -24.976562 L 0.757812 -24.136719 C 2.074219 -23.898438 3.589844 -23.777344 3.710938 -22.421875 C 3.75 -20.984375 3.789062 -18.871094 3.789062 -16.796875 L 3.789062 -10.890625 C 3.789062 -3.351562 7.179688 0.558594 13.605469 0.558594 C 19.75 0.558594 22.460938 -3.351562 22.460938 -10.929688 L 22.460938 -16.957031 C 22.460938 -19.191406 22.542969 -21.703125 22.621094 -23.460938 Z M 25.574219 -24.019531 "/></g></g></g><g fill="#ffffff" fill-opacity="1"><g transform="translate(67.329841, 200.518937)"><g><path d="M 24.535156 -16.238281 C 24.535156 -18.792969 24.578125 -21.425781 24.617188 -23.417969 L 27.925781 -24.019531 L 27.769531 -24.933594 L 23.617188 -24.777344 L 19.867188 -24.976562 L 19.75 -24.136719 C 21.066406 -23.898438 22.820312 -23.738281 22.980469 -22.421875 C 23.019531 -20.785156 23.101562 -18.113281 23.140625 -15.082031 L 23.257812 -4.46875 C 21.585938 -6.183594 10.851562 -19.269531 6.703125 -24.777344 L 5.664062 -24.777344 L 1.714844 -24.976562 L 1.597656 -24.097656 C 2.871094 -23.859375 4.746094 -23.738281 4.828125 -22.460938 L 4.828125 -22.382812 C 4.867188 -21.105469 4.90625 -19.109375 4.90625 -16.996094 L 4.90625 -8.578125 C 4.90625 -6.0625 4.867188 -3.390625 4.828125 -1.355469 L 1.515625 -0.757812 L 1.675781 0.160156 L 5.546875 0 L 5.746094 0 L 9.574219 0.199219 L 9.695312 -0.679688 C 8.378906 -0.878906 6.542969 -1.039062 6.464844 -2.355469 C 6.382812 -4.148438 6.304688 -7.023438 6.265625 -9.695312 L 6.144531 -20.625 C 7.460938 -19.46875 23.140625 0 23.140625 0 L 24.734375 0 C 24.695312 -0.835938 24.535156 -3.429688 24.535156 -7.460938 Z M 24.535156 -16.238281 "/></g></g></g><g fill="#ffffff" fill-opacity="1"><g transform="translate(96.010757, 200.518937)"><g><path d="M 25.574219 -0.679688 C 24.257812 -0.917969 23.417969 -1.195312 22.820312 -2.433594 C 22.222656 -3.871094 21.542969 -5.707031 20.785156 -7.820312 L 14.5625 -24.976562 L 12.128906 -24.777344 L 5.425781 -7.539062 C 4.46875 -5.066406 3.472656 -2.753906 2.871094 -1.355469 L 0.320312 -0.757812 L 0.480469 0.160156 L 3.949219 0 L 8.058594 0.121094 L 8.21875 -0.71875 C 6.023438 -0.917969 4.628906 -1.15625 4.90625 -2.3125 C 5.347656 -3.589844 5.984375 -5.425781 6.742188 -7.261719 L 8.019531 -10.574219 L 16.558594 -10.574219 L 17.515625 -7.820312 C 18.433594 -5.148438 19.148438 -2.792969 19.550781 -1.355469 L 16.316406 -0.757812 L 16.476562 0.160156 L 20.707031 0 L 23.179688 0 L 25.453125 0.160156 Z M 14.082031 -11.96875 L 8.539062 -11.96875 L 12.488281 -22.222656 L 16.078125 -11.96875 Z M 14.082031 -11.96875 "/></g></g></g></svg>